{
.appVersion = "3080";
customParameters = (
{
name = localizedDesigner;
value = "French;Ange Degheest & Benjamin Gomez & Eugénie Bidaut";
},
{
name = license;
value = "SIL OFL";
},
{
name = licenseURL;
value = "https://scripts.sil.org/cms/scripts/page.php?item_id=OFL_web";
},
{
name = vendorID;
value = VTF;
},
{
name = Axes;
value = (
{
Name = Custom;
Tag = CUST;
}
);
}
);
date = "2021-04-30 15:32:30 +0000";
familyName = Basalte;
fontMaster = (
{
ascender = 800;
capHeight = 700;
custom = Volume;
customParameters = (
{
name = "Master Color";
value = "204,224,233,255";
},
{
name = "Link Metrics With First Master";
value = 1;
}
);
descender = -200;
id = "ADD356F3-6F8E-4A19-BEE8-38EF5CB52C35";
weightValue = 2;
xHeight = 620;
},
{
ascender = 800;
capHeight = 700;
custom = Fond;
customParameters = (
{
name = "Master Color";
value = "38,7,11,255";
},
{
name = "Link Metrics With First Master";
value = 0;
}
);
descender = -200;
id = "8B2712DD-44AF-41AD-B0E9-03B6F24551DE";
visible = 1;
weightValue = 1;
xHeight = 620;
}
);
glyphs = (
{
glyphname = A;
lastChange = "2021-05-01 11:42:14 +0000";
layers = (
{
anchors = (
{
name = top;
position = "{255, 800}";
}
);
layerId = "8B2712DD-44AF-41AD-B0E9-03B6F24551DE";
paths = (
{
closed = 1;
nodes = (
"122 0 LINE",
"255 537 LINE",
"388 0 LINE",
"516 0 LINE",
"317 800 LINE",
"193 800 LINE",
"-6 0 LINE"
);
},
{
closed = 1;
nodes = (
"425 151 LINE",
"425 267 LINE",
"139 267 LINE",
"139 151 LINE"
);
}
);
width = 510;
},
{
anchors = (
{
name = top;
position = "{255, 800}";
}
);
layerId = "ADD356F3-6F8E-4A19-BEE8-38EF5CB52C35";
paths = (
{
closed = 1;
nodes = (
"353 259 LINE",
"264 151 LINE",
"353 151 LINE",
"379 134 LINE",
"419 0 LINE",
"516 0 LINE",
"317 800 LINE",
"243 696 LINE"
);
},
{
closed = 1;
nodes = (
"25 0 LINE",
"122 0 LINE",
"159 150 LINE",
"44 81 LINE"
);
},
{
closed = 1;
nodes = (
"73 198 LINE",
"188 267 LINE",
"255 537 LINE",
"140 468 LINE"
);
}
);
width = 510;
},
{
associatedMasterId = "ADD356F3-6F8E-4A19-BEE8-38EF5CB52C35";
layerId = "D1E5B03D-58D0-473C-B02E-8755A657C204";
name = "Mar 26 20, 20:39";
paths = (
{
closed = 1;
nodes = (
"443 249 LINE",
"349 141 LINE",
"438 141 LINE",
"472 124 LINE",
"504 0 LINE",
"610 0 LINE",
"411 800 LINE",
"328 696 LINE"
);
},
{
closed = 1;
nodes = (
"101 0 LINE",
"207 0 LINE",
"242 140 LINE",
"118 71 LINE"
);
},
{
closed = 1;
nodes = (
"147 188 LINE",
"271 257 LINE",
"340 537 LINE",
"216 468 LINE"
);
}
);
width = 600;
},
{
associatedMasterId = "8B2712DD-44AF-41AD-B0E9-03B6F24551DE";
layerId = "8EEA52D3-100A-47CC-B71C-6ACA576457D9";
name = "Mar 26 20, 20:39";
paths = (
{
closed = 1;
nodes = (
"207 0 LINE",
"340 537 LINE",
"473 0 LINE",
"610 0 LINE",
"411 800 LINE",
"269 800 LINE",
"70 0 LINE"
);
},
{
closed = 1;
nodes = (
"224 141 LINE",
"510 141 LINE",
"510 257 LINE",
"224 257 LINE"
);
}
);
width = 600;
}
);
unicode = "0041,0061";
},
{
glyphname = Aacute;
lastChange = "2021-05-01 11:42:14 +0000";
layers = (
{
anchors = (
{
name = top;
position = "{255, 800}";
}
);
layerId = "ADD356F3-6F8E-4A19-BEE8-38EF5CB52C35";
paths = (
{
closed = 1;
nodes = (
"353 259 LINE",
"264 151 LINE",
"353 151 LINE",
"379 134 LINE",
"419 0 LINE",
"516 0 LINE",
"317 800 LINE",
"244 741 LINE"
);
},
{
closed = 1;
nodes = (
"25 0 LINE",
"122 0 LINE",
"159 150 LINE",
"44 81 LINE"
);
},
{
closed = 1;
nodes = (
"73 198 LINE",
"188 267 LINE",
"255 537 LINE",
"140 468 LINE"
);
},
{
closed = 1;
nodes = (
"244 741 LINE",
"317 800 LINE",
"362 924 LINE"
);
}
);
width = 510;
},
{
anchors = (
{
name = top;
position = "{255, 800}";
}
);
layerId = "8B2712DD-44AF-41AD-B0E9-03B6F24551DE";
paths = (
{
closed = 1;
nodes = (
"122 0 LINE",
"255 537 LINE",
"388 0 LINE",
"516 0 LINE",
"317 800 LINE",
"193 800 LINE",
"-6 0 LINE"
);
},
{
closed = 1;
nodes = (
"425 151 LINE",
"425 267 LINE",
"139 267 LINE",
"139 151 LINE"
);
},
{
closed = 1;
nodes = (
"317 800 LINE",
"362 924 LINE",
"252 924 LINE",
"236 800 LINE"
);
}
);
width = 510;
}
);
unicode = "00C1,00E1";
},
{
glyphname = Acircumflex;
lastChange = "2021-05-01 11:42:14 +0000";
layers = (
{
anchors = (
{
name = top;
position = "{255, 800}";
}
);
layerId = "ADD356F3-6F8E-4A19-BEE8-38EF5CB52C35";
paths = (
{
closed = 1;
nodes = (
"25 0 LINE",
"122 0 LINE",
"159 150 LINE",
"44 81 LINE"
);
},
{
closed = 1;
nodes = (
"73 198 LINE",
"188 267 LINE",
"255 537 LINE",
"140 468 LINE"
);
},
{
closed = 1;
nodes = (
"169 800 LINE",
"193 800 LINE",
"183 761 LINE",
"218 800 LINE",
"255 877 LINE"
);
},
{
closed = 1;
nodes = (
"353 259 LINE",
"264 151 LINE",
"353 151 LINE",
"379 134 LINE",
"419 0 LINE",
"516 0 LINE",
"317 800 LINE",
"375 800 LINE",
"329 924 LINE",
"275 869 LINE",
"310 795 LINE",
"236 722 LINE"
);
}
);
width = 510;
},
{
anchors = (
{
name = top;
position = "{255, 800}";
}
);
layerId = "8B2712DD-44AF-41AD-B0E9-03B6F24551DE";
paths = (
{
closed = 1;
nodes = (
"122 0 LINE",
"255 537 LINE",
"388 0 LINE",
"516 0 LINE",
"317 800 LINE",
"193 800 LINE",
"-6 0 LINE"
);
},
{
closed = 1;
nodes = (
"425 151 LINE",
"425 267 LINE",
"139 267 LINE",
"139 151 LINE"
);
},
{
closed = 1;
nodes = (
"218 800 LINE",
"255 877 LINE",
"292 800 LINE",
"375 800 LINE",
"329 924 LINE",
"183 924 LINE",
"137 800 LINE"
);
}
);
width = 510;
}
);
unicode = "00C2,00E2";
},
{
glyphname = Adieresis;
lastChange = "2021-05-01 11:42:14 +0000";
layers = (
{
anchors = (
{
name = top;
position = "{255, 800}";
}
);
layerId = "ADD356F3-6F8E-4A19-BEE8-38EF5CB52C35";
paths = (
{
closed = 1;
nodes = (
"353 259 LINE",
"264 151 LINE",
"353 151 LINE",
"379 134 LINE",
"419 0 LINE",
"516 0 LINE",
"317 800 LINE",
"244 687 LINE"
);
},
{
closed = 1;
nodes = (
"25 0 LINE",
"122 0 LINE",
"159 150 LINE",
"44 81 LINE"
);
},
{
closed = 1;
nodes = (
"72 193 LINE",
"188 267 LINE",
"255 537 LINE",
"139 463 LINE"
);
},
{
closed = 1;
nodes = (
"382 800 LINE",
"382 894 LINE",
"317 800 LINE"
);
},
{
closed = 1;
nodes = (
"193 800 LINE",
"169 703 LINE",
"232 800 LINE",
"232 894 LINE",
"164 800 LINE",
"164 800 LINE"
);
}
);
width = 510;
},
{
anchors = (
{
name = top;
position = "{255, 800}";
}
);
layerId = "8B2712DD-44AF-41AD-B0E9-03B6F24551DE";
paths = (
{
closed = 1;
nodes = (
"122 0 LINE",
"255 537 LINE",
"388 0 LINE",
"516 0 LINE",
"317 800 LINE",
"193 800 LINE",
"-6 0 LINE"
);
},
{
closed = 1;
nodes = (
"425 151 LINE",
"425 267 LINE",
"139 267 LINE",
"139 151 LINE"
);
},
{
closed = 1;
nodes = (
"232 800 LINE",
"232 894 LINE",
"130 894 LINE",
"130 800 LINE"
);
},
{
closed = 1;
nodes = (
"382 800 LINE",
"382 894 LINE",
"280 894 LINE",
"280 800 LINE"
);
}
);
width = 510;
}
);
unicode = "00C4,00E4";
},
{
glyphname = Agrave;
lastChange = "2021-05-01 11:42:14 +0000";
layers = (
{
anchors = (
{
name = top;
position = "{255, 800}";
}
);
layerId = "ADD356F3-6F8E-4A19-BEE8-38EF5CB52C35";
paths = (
{
closed = 1;
nodes = (
"353 259 LINE",
"264 151 LINE",
"353 151 LINE",
"379 134 LINE",
"419 0 LINE",
"516 0 LINE",
"317 800 LINE",
"227 764 LINE"
);
},
{
closed = 1;
nodes = (
"25 0 LINE",
"122 0 LINE",
"159 150 LINE",
"44 81 LINE"
);
},
{
closed = 1;
nodes = (
"73 198 LINE",
"188 267 LINE",
"255 537 LINE",
"140 468 LINE"
);
},
{
closed = 1;
nodes = (
"227 764 LINE",
"317 800 LINE",
"288 924 LINE"
);
}
);
width = 510;
},
{
anchors = (
{
name = top;
position = "{255, 800}";
}
);
layerId = "8B2712DD-44AF-41AD-B0E9-03B6F24551DE";
paths = (
{
closed = 1;
nodes = (
"122 0 LINE",
"255 537 LINE",
"388 0 LINE",
"516 0 LINE",
"317 800 LINE",
"193 800 LINE",
"-6 0 LINE"
);
},
{
closed = 1;
nodes = (
"425 151 LINE",
"425 267 LINE",
"139 267 LINE",
"139 151 LINE"
);
},
{
closed = 1;
nodes = (
"317 800 LINE",
"288 924 LINE",
"178 924 LINE",
"236 800 LINE"
);
}
);
width = 510;
}
);
unicode = "00C0,00E0";
},
{
glyphname = Aring;
lastChange = "2021-05-01 11:42:14 +0000";
layers = (
{
layerId = "ADD356F3-6F8E-4A19-BEE8-38EF5CB52C35";
paths = (
{
closed = 1;
nodes = (
"315 809 LINE SMOOTH",
"315 764 OFFCURVE",
"290 717 OFFCURVE",
"245 690 CURVE",
"353 259 LINE",
"264 151 LINE",
"353 151 LINE",
"379 134 LINE",
"419 0 LINE",
"516 0 LINE",
"340 712 LINE",
"365 730 OFFCURVE",
"376 762 OFFCURVE",
"376 809 CURVE SMOOTH",
"376 845 OFFCURVE",
"371 861 OFFCURVE",
"365 877 CURVE",
"315 816 LINE"
);
},
{
closed = 1;
nodes = (
"170 729 LINE",
"159 740 OFFCURVE",
"153 752 OFFCURVE",
"153 764 CURVE SMOOTH",
"153 774 OFFCURVE",
"154 781 OFFCURVE",
"160 787 CURVE SMOOTH",
"222 848 LINE",
"213 837 OFFCURVE",
"211 820 OFFCURVE",
"211 809 CURVE SMOOTH",
"211 798 OFFCURVE",
"213 787 OFFCURVE",
"216 781 CURVE"
);
},
{
closed = 1;
nodes = (
"25 0 LINE",
"122 0 LINE",
"159 150 LINE",
"44 81 LINE"
);
},
{
closed = 1;
nodes = (
"73 198 LINE",
"188 267 LINE",
"255 537 LINE",
"140 468 LINE"
);
}
);
width = 510;
},
{
components = (
{
name = ring;
transform = "{1, 0, 0, 1, -48, 130}";
}
);
layerId = "8B2712DD-44AF-41AD-B0E9-03B6F24551DE";
paths = (
{
closed = 1;
nodes = (
"122 0 LINE",
"255 537 LINE",
"388 0 LINE",
"516 0 LINE",
"329 753 LINE",
"181 753 LINE",
"-6 0 LINE"
);
},
{
closed = 1;
nodes = (
"425 151 LINE",
"425 267 LINE",
"139 267 LINE",
"139 151 LINE"
);
}
);
width = 510;
}
);
unicode = "00C5,00E5";
},
{
glyphname = AE;
lastChange = "2021-05-01 11:42:14 +0000";
layers = (
{
components = (
{
name = E;
transform = "{1, 0, 0, 1, 261, 0}";
}
);
layerId = "ADD356F3-6F8E-4A19-BEE8-38EF5CB52C35";
paths = (
{
closed = 1;
nodes = (
"24 0 LINE",
"121 0 LINE",
"169 150 LINE",
"54 81 LINE"
);
},
{
closed = 1;
nodes = (
"91 198 LINE",
"206 267 LINE",
"341 685 LINE",
"226 616 LINE"
);
},
{
closed = 1;
nodes = (
"458 270 LINE",
"473 334 LINE",
"316 151 LINE",
"354 151 LINE",
"380 150 LINE"
);
}
);
width = 789;
},
{
components = (
{
name = E;
transform = "{1, 0, 0, 1, 260, 0}";
}
);
layerId = "8B2712DD-44AF-41AD-B0E9-03B6F24551DE";
paths = (
{
closed = 1;
nodes = (
"120 0 LINE",
"378 800 LINE",
"261 800 LINE",
"-6 0 LINE"
);
},
{
closed = 1;
nodes = (
"361 151 LINE",
"361 267 LINE",
"167 267 LINE",
"167 151 LINE"
);
}
);
width = 789;
}
);
unicode = "00C6,00E6";
},
{
glyphname = B;
lastChange = "2021-05-01 11:42:14 +0000";
layers = (
{
layerId = "8B2712DD-44AF-41AD-B0E9-03B6F24551DE";
paths = (
{
closed = 1;
nodes = (
"371 0 LINE SMOOTH",
"491 0 OFFCURVE",
"554 52 OFFCURVE",
"554 179 CURVE SMOOTH",
"554 316 LINE SMOOTH",
"554 353 OFFCURVE",
"537 389 OFFCURVE",
"506 404 CURVE SMOOTH",
"462 426 LINE",
"518 438 OFFCURVE",
"554 476 OFFCURVE",
"554 538 CURVE SMOOTH",
"554 649 LINE SMOOTH",
"554 756 OFFCURVE",
"510 800 OFFCURVE",
"399 800 CURVE SMOOTH",
"80 800 LINE",
"80 0 LINE"
);
},
{
closed = 1;
nodes = (
"215 354 LINE",
"355 354 LINE SMOOTH",
"406 354 OFFCURVE",
"419 338 OFFCURVE",
"419 293 CURVE SMOOTH",
"419 193 LINE SMOOTH",
"419 147 OFFCURVE",
"401 130 OFFCURVE",
"356 130 CURVE SMOOTH",
"215 130 LINE"
);
},
{
closed = 1;
nodes = (
"215 670 LINE",
"355 670 LINE SMOOTH",
"406 670 OFFCURVE",
"419 654 OFFCURVE",
"419 609 CURVE SMOOTH",
"419 540 LINE SMOOTH",
"419 495 OFFCURVE",
"401 477 OFFCURVE",
"353 477 CURVE SMOOTH",
"215 477 LINE"
);
}
);
width = 619;
},
{
layerId = "ADD356F3-6F8E-4A19-BEE8-38EF5CB52C35";
paths = (
{
closed = 1;
nodes = (
"115 360 LINE",
"215 478 LINE",
"215 670 LINE",
"115 552 LINE"
);
},
{
closed = 1;
nodes = (
"115 12 LINE",
"215 130 LINE",
"215 354 LINE",
"115 236 LINE"
);
},
{
closed = 1;
nodes = (
"454 171 LINE SMOOTH",
"454 78 OFFCURVE",
"435 43 OFFCURVE",
"371 0 CURVE",
"491 0 OFFCURVE",
"554 52 OFFCURVE",
"554 179 CURVE SMOOTH",
"554 316 LINE SMOOTH",
"554 353 OFFCURVE",
"537 389 OFFCURVE",
"506 404 CURVE",
"454 329 LINE"
);
},
{
closed = 1;
nodes = (
"531 749 LINE",
"531 749 LINE",
"547 725 OFFCURVE",
"554 692 OFFCURVE",
"554 649 CURVE SMOOTH",
"554 538 LINE SMOOTH",
"554 476 OFFCURVE",
"518 438 OFFCURVE",
"462 426 CURVE",
"370 470 LINE",
"416 469 OFFCURVE",
"454 494 OFFCURVE",
"454 547 CURVE SMOOTH",
"454 658 LINE"
);
}
);
width = 619;
}
);
unicode = "0042,0062";
},
{
glyphname = C;
lastChange = "2021-05-01 11:42:14 +0000";
layers = (
{
layerId = "8B2712DD-44AF-41AD-B0E9-03B6F24551DE";
paths = (
{
closed = 1;
nodes = (
"482 -10 OFFCURVE",
"539 46 OFFCURVE",
"539 182 CURVE SMOOTH",
"539 295 LINE",
"404 295 LINE",
"404 192 LINE SMOOTH",
"404 138 OFFCURVE",
"398 125 OFFCURVE",
"302 125 CURVE SMOOTH",
"206 125 OFFCURVE",
"200 138 OFFCURVE",
"200 192 CURVE SMOOTH",
"200 608 LINE SMOOTH",
"200 662 OFFCURVE",
"206 675 OFFCURVE",
"302 675 CURVE SMOOTH",
"398 675 OFFCURVE",
"404 662 OFFCURVE",
"404 608 CURVE SMOOTH",
"404 534 LINE",
"539 534 LINE",
"539 618 LINE SMOOTH",
"539 754 OFFCURVE",
"482 810 OFFCURVE",
"302 810 CURVE SMOOTH",
"122 810 OFFCURVE",
"65 754 OFFCURVE",
"65 618 CURVE SMOOTH",
"65 182 LINE SMOOTH",
"65 46 OFFCURVE",
"122 -10 OFFCURVE",
"302 -10 CURVE SMOOTH"
);
}
);
width = 595;
},
{
layerId = "ADD356F3-6F8E-4A19-BEE8-38EF5CB52C35";
paths = (
{
closed = 1;
nodes = (
"439 154 LINE SMOOTH",
"439 60 OFFCURVE",
"429 19 OFFCURVE",
"396 -3 CURVE",
"502 15 OFFCURVE",
"539 73 OFFCURVE",
"539 182 CURVE SMOOTH",
"539 295 LINE",
"439 176 LINE"
);
},
{
closed = 1;
nodes = (
"122 92 LINE",
"108 108 OFFCURVE",
"100 129 OFFCURVE",
"100 153 CURVE SMOOTH",
"100 491 LINE SMOOTH",
"100 514 OFFCURVE",
"103 529 OFFCURVE",
"112 539 CURVE SMOOTH",
"212 656 LINE",
"203 646 OFFCURVE",
"200 631 OFFCURVE",
"200 608 CURVE SMOOTH",
"200 192 LINE SMOOTH",
"200 188 OFFCURVE",
"200 184 OFFCURVE",
"200 180 CURVE"
);
},
{
closed = 1;
nodes = (
"404 534 LINE",
"539 534 LINE",
"539 618 LINE SMOOTH",
"539 667 OFFCURVE",
"531 708 OFFCURVE",
"512 738 CURVE",
"404 608 LINE"
);
}
);
width = 595;
},
{
associatedMasterId = "8B2712DD-44AF-41AD-B0E9-03B6F24551DE";
layerId = "8D511F2A-BBE5-40B2-850A-849D3E35E819";
name = "Mar 27 20, 20:49";
paths = (
{
closed = 1;
nodes = (
"90 46 OFFCURVE",
"157 -10 OFFCURVE",
"327 -10 CURVE SMOOTH",
"497 -10 OFFCURVE",
"564 46 OFFCURVE",
"564 182 CURVE SMOOTH",
"564 295 LINE",
"429 295 LINE",
"429 192 LINE SMOOTH",
"429 138 OFFCURVE",
"413 125 OFFCURVE",
"327 125 CURVE SMOOTH",
"241 125 OFFCURVE",
"225 138 OFFCURVE",
"225 192 CURVE SMOOTH",
"225 608 LINE SMOOTH",
"225 662 OFFCURVE",
"241 675 OFFCURVE",
"327 675 CURVE SMOOTH",
"413 675 OFFCURVE",
"429 662 OFFCURVE",
"429 608 CURVE SMOOTH",
"429 534 LINE",
"564 534 LINE",
"564 618 LINE SMOOTH",
"564 754 OFFCURVE",
"497 810 OFFCURVE",
"327 810 CURVE SMOOTH",
"157 810 OFFCURVE",
"90 754 OFFCURVE",
"90 618 CURVE SMOOTH",
"90 182 LINE SMOOTH"
);
}
);
width = 600;
},
{
associatedMasterId = "ADD356F3-6F8E-4A19-BEE8-38EF5CB52C35";
layerId = "503C0D3B-F962-465C-B0AF-6882DB3F3C01";
name = "Mar 27 20, 20:49";
paths = (
{
closed = 1;
nodes = (
"464 154 LINE SMOOTH",
"464 60 OFFCURVE",
"451 19 OFFCURVE",
"418 -3 CURVE",
"522 16 OFFCURVE",
"564 73 OFFCURVE",
"564 182 CURVE SMOOTH",
"564 295 LINE",
"464 176 LINE"
);
},
{
closed = 1;
nodes = (
"147 92 LINE",
"133 108 OFFCURVE",
"125 129 OFFCURVE",
"125 153 CURVE SMOOTH",
"125 491 LINE SMOOTH",
"125 514 OFFCURVE",
"128 529 OFFCURVE",
"137 539 CURVE SMOOTH",
"237 656 LINE",
"228 646 OFFCURVE",
"225 631 OFFCURVE",
"225 608 CURVE SMOOTH",
"225 192 LINE SMOOTH",
"225 188 OFFCURVE",
"225 184 OFFCURVE",
"225 180 CURVE"
);
},
{
closed = 1;
nodes = (
"429 534 LINE",
"564 534 LINE",
"564 618 LINE SMOOTH",
"564 667 OFFCURVE",
"555 706 OFFCURVE",
"536 736 CURVE",
"429 608 LINE"
);
}
);
width = 600;
}
);
unicode = "0043,0063";
},
{
glyphname = Ccedilla;
lastChange = "2021-05-01 11:42:14 +0000";
layers = (
{
components = (
{
name = C;
}
);
layerId = "ADD356F3-6F8E-4A19-BEE8-38EF5CB52C35";
paths = (
{
closed = 1;
nodes = (
"232 -154 LINE",
"340 -154 LINE",
"350 -8 LINE"
);
}
);
width = 595;
},
{
components = (
{
name = C;
}
);
layerId = "8B2712DD-44AF-41AD-B0E9-03B6F24551DE";
paths = (
{
closed = 1;
nodes = (
"340 -154 LINE",
"350 0 LINE",
"248 0 LINE",
"208 -154 LINE"
);
}
);
width = 595;
}
);
unicode = "00C7,00E7";
},
{
glyphname = D;
lastChange = "2021-05-01 11:42:14 +0000";
layers = (
{
layerId = "8B2712DD-44AF-41AD-B0E9-03B6F24551DE";
paths = (
{
closed = 1;
nodes = (
"357 0 LINE SMOOTH",
"477 0 OFFCURVE",
"554 56 OFFCURVE",
"554 192 CURVE SMOOTH",
"554 608 LINE SMOOTH",
"554 744 OFFCURVE",
"477 800 OFFCURVE",
"357 800 CURVE SMOOTH",
"80 800 LINE",
"80 0 LINE"
);
},
{
closed = 1;
nodes = (
"215 665 LINE",
"326 665 LINE SMOOTH",
"392 665 OFFCURVE",
"419 645 OFFCURVE",
"419 588 CURVE SMOOTH",
"419 212 LINE SMOOTH",
"419 155 OFFCURVE",
"392 135 OFFCURVE",
"326 135 CURVE SMOOTH",
"215 135 LINE"
);
}
);
width = 619;
},
{
layerId = "ADD356F3-6F8E-4A19-BEE8-38EF5CB52C35";
paths = (
{
closed = 1;
nodes = (
"115 17 LINE",
"215 135 LINE",
"215 665 LINE",
"115 547 LINE"
);
},
{
closed = 1;
nodes = (
"454 192 LINE SMOOTH",
"454 99 OFFCURVE",
"421 43 OFFCURVE",
"357 0 CURVE",
"487 0 OFFCURVE",
"554 65 OFFCURVE",
"554 192 CURVE SMOOTH",
"554 608 LINE SMOOTH",
"554 645 OFFCURVE",
"549 676 OFFCURVE",
"538 701 CURVE",
"454 603 LINE"
);
}
);
width = 619;
},
{
associatedMasterId = "ADD356F3-6F8E-4A19-BEE8-38EF5CB52C35";
layerId = "AA70D556-8439-4FDC-9A63-6C2D419C8ED7";
name = "Mar 27 20, 09:40";
paths = (
{
closed = 1;
nodes = (
"464 192 LINE SMOOTH",
"464 99 OFFCURVE",
"424 44 OFFCURVE",
"360 1 CURVE",
"506 8 OFFCURVE",
"564 65 OFFCURVE",
"564 192 CURVE SMOOTH",
"564 608 LINE SMOOTH",
"564 645 OFFCURVE",
"559 677 OFFCURVE",
"548 702 CURVE",
"464 603 LINE"
);
},
{
closed = 1;
nodes = (
"125 17 LINE",
"225 135 LINE",
"225 665 LINE",
"125 547 LINE"
);
}
);
visible = 1;
width = 654;
},
{
associatedMasterId = "8B2712DD-44AF-41AD-B0E9-03B6F24551DE";
layerId = "9793DE0F-8B96-4723-9CF7-65D4E2E711A9";
name = "Mar 27 20, 09:40";
paths = (
{
closed = 1;
nodes = (
"413 665 OFFCURVE",
"429 652 OFFCURVE",
"429 598 CURVE SMOOTH",
"429 202 LINE SMOOTH",
"429 148 OFFCURVE",
"413 135 OFFCURVE",
"327 135 CURVE SMOOTH",
"225 135 LINE",
"225 665 LINE",
"327 665 LINE SMOOTH"
);
},
{
closed = 1;
nodes = (
"90 800 LINE",
"90 0 LINE",
"327 0 LINE SMOOTH",
"497 0 OFFCURVE",
"564 56 OFFCURVE",
"564 192 CURVE SMOOTH",
"564 608 LINE SMOOTH",
"564 744 OFFCURVE",
"497 800 OFFCURVE",
"327 800 CURVE SMOOTH"
);
}
);
width = 654;
}
);
unicode = "0044,0064";
},
{
glyphname = E;
lastChange = "2021-05-01 11:42:14 +0000";
layers = (
{
anchors = (
{
name = top;
position = "{286, 800}";
}
);
layerId = "8B2712DD-44AF-41AD-B0E9-03B6F24551DE";
paths = (
{
closed = 1;
nodes = (
"493 0 LINE",
"493 130 LINE",
"215 130 LINE",
"215 339 LINE",
"422 339 LINE",
"422 469 LINE",
"215 469 LINE",
"215 670 LINE",
"493 670 LINE",
"493 800 LINE",
"80 800 LINE",
"80 0 LINE"
);
}
);
width = 528;
},
{
anchors = (
{
name = top;
position = "{286, 800}";
}
);
layerId = "ADD356F3-6F8E-4A19-BEE8-38EF5CB52C35";
paths = (
{
closed = 1;
nodes = (
"115 351 LINE",
"215 469 LINE",
"215 670 LINE",
"115 552 LINE"
);
},
{
closed = 1;
nodes = (
"115 12 LINE",
"215 130 LINE",
"215 339 LINE",
"115 221 LINE"
);
},
{
closed = 1;
nodes = (
"493 670 LINE",
"493 800 LINE",
"383 670 LINE"
);
},
{
closed = 1;
nodes = (
"422 339 LINE",
"422 469 LINE",
"312 339 LINE"
);
},
{
closed = 1;
nodes = (
"493 0 LINE",
"493 130 LINE",
"383 0 LINE"
);
}
);
width = 528;
}
);
unicode = "0045,0065";
},
{
glyphname = Eacute;
lastChange = "2021-05-01 11:42:14 +0000";
layers = (
{
components = (
{
name = E;
}
);
layerId = "ADD356F3-6F8E-4A19-BEE8-38EF5CB52C35";
paths = (
{
closed = 1;
nodes = (
"256 786 LINE",
"242 707 LINE",
"314 800 LINE",
"359 924 LINE"
);
}
);
width = 528;
},
{
components = (
{
name = E;
}
);
guideLines = (
{
angle = 180;
position = "{304, 924}";
}
);
layerId = "8B2712DD-44AF-41AD-B0E9-03B6F24551DE";
paths = (
{
closed = 1;
nodes = (
"314 800 LINE",
"359 924 LINE",
"249 924 LINE",
"233 800 LINE"
);
}
);
width = 528;
}
);
unicode = "00C9,00E9";
},
{
glyphname = Ecircumflex;
lastChange = "2021-05-01 11:42:14 +0000";
layers = (
{
anchors = (
{
name = top;
position = "{286, 820}";
}
);
associatedMasterId = "8B2712DD-44AF-41AD-B0E9-03B6F24551DE";
layerId = "3CCC1BE5-FDA0-4F5B-9747-59B2016ABB6F";
name = "Jun 4 20, 23:02";
paths = (
{
closed = 1;
nodes = (
"493 0 LINE",
"493 130 LINE",
"215 130 LINE",
"215 339 LINE",
"422 339 LINE",
"422 469 LINE",
"215 469 LINE",
"215 670 LINE",
"493 670 LINE",
"493 800 LINE",
"286 840 LINE",
"80 800 LINE",
"80 0 LINE"
);
}
);
width = 528;
},
{
anchors = (
{
name = top;
position = "{286, 820}";
}
);
associatedMasterId = "8B2712DD-44AF-41AD-B0E9-03B6F24551DE";
layerId = "7F6543B5-BEC2-49A7-8D63-33B7CCB9C806";
name = "Jun 4 20, 23:07";
paths = (
{
closed = 1;
nodes = (
"493 0 LINE",
"493 130 LINE",
"215 130 LINE",
"215 339 LINE",
"422 339 LINE",
"422 469 LINE",
"215 469 LINE",
"215 670 LINE",
"493 670 LINE",
"493 800 LINE",
"80 800 LINE",
"80 0 LINE"
);
},
{
closed = 1;
nodes = (
"177 800 LINE",
"395 800 LINE",
"319 924 LINE",
"253 924 LINE"
);
}
);
width = 528;
},
{
anchors = (
{
name = top;
position = "{286, 800}";
}
);
layerId = "8B2712DD-44AF-41AD-B0E9-03B6F24551DE";
paths = (
{
closed = 1;
nodes = (
"493 0 LINE",
"493 130 LINE",
"215 130 LINE",
"215 339 LINE",
"422 339 LINE",
"422 469 LINE",
"215 469 LINE",
"215 670 LINE",
"493 670 LINE",
"493 800 LINE",
"80 800 LINE",
"80 0 LINE"
);
},
{
closed = 1;
nodes = (
"248 800 LINE",
"285 877 LINE",
"322 800 LINE",
"405 800 LINE",
"359 924 LINE",
"213 924 LINE",
"167 800 LINE"
);
}
);
width = 528;
},
{
anchors = (
{
name = top;
position = "{286, 800}";
}
);
associatedMasterId = "ADD356F3-6F8E-4A19-BEE8-38EF5CB52C35";
layerId = "1E5DD51B-598C-44ED-9B45-ACAA9A0CAE1A";
name = "Jun 4 20, 23:07";
paths = (
{
closed = 1;
nodes = (
"115 351 LINE",
"215 469 LINE",
"215 670 LINE",
"115 552 LINE"
);
},
{
closed = 1;
nodes = (
"115 12 LINE",
"215 130 LINE",
"215 339 LINE",
"115 221 LINE"
);
},
{
closed = 1;
nodes = (
"493 670 LINE",
"493 800 LINE",
"383 670 LINE"
);
},
{
closed = 1;
nodes = (
"422 339 LINE",
"422 469 LINE",
"312 339 LINE"
);
},
{
closed = 1;
nodes = (
"493 0 LINE",
"493 130 LINE",
"383 0 LINE"
);
},
{
closed = 1;
nodes = (
"281 869 LINE",
"357 757 LINE",
"395 800 LINE",
"320 924 LINE"
);
}
);
width = 528;
},
{
anchors = (
{
name = top;
position = "{286, 800}";
}
);
layerId = "ADD356F3-6F8E-4A19-BEE8-38EF5CB52C35";
paths = (
{
closed = 1;
nodes = (
"115 351 LINE",
"215 469 LINE",
"215 670 LINE",
"115 552 LINE"
);
},
{
closed = 1;
nodes = (
"115 12 LINE",
"215 130 LINE",
"215 339 LINE",
"115 221 LINE"
);
},
{
closed = 1;
nodes = (
"493 670 LINE",
"493 800 LINE",
"386 670 LINE"
);
},
{
closed = 1;
nodes = (
"422 339 LINE",
"422 469 LINE",
"312 339 LINE"
);
},
{
closed = 1;
nodes = (
"493 0 LINE",
"493 130 LINE",
"383 0 LINE"
);
},
{
closed = 1;
nodes = (
"187 796 LINE",
"161 734 LINE",
"248 800 LINE",
"285 877 LINE"
);
},
{
closed = 1;
nodes = (
"304 871 LINE",
"362 748 LINE",
"405 800 LINE",
"359 924 LINE"
);
}
);
width = 528;
},
{
anchors = (
{
name = top;
position = "{286, 820}";
}
);
associatedMasterId = "8B2712DD-44AF-41AD-B0E9-03B6F24551DE";
layerId = "2EE54EAC-AF5B-423B-8B41-BE1E05813516";
name = "Jun 7 20, 11:50";
paths = (
{
closed = 1;
nodes = (
"493 0 LINE",
"493 130 LINE",
"215 130 LINE",
"215 339 LINE",
"422 339 LINE",
"422 469 LINE",
"215 469 LINE",
"215 670 LINE",
"493 670 LINE",
"493 800 LINE",
"80 800 LINE",
"80 0 LINE"
);
},
{
closed = 1;
nodes = (
"177 827 LINE",
"395 827 LINE",
"319 924 LINE",
"253 924 LINE"
);
}
);
width = 528;
},
{
anchors = (
{
name = top;
position = "{286, 800}";
}
);
associatedMasterId = "ADD356F3-6F8E-4A19-BEE8-38EF5CB52C35";
layerId = "5FAD0EFA-16B1-4C47-956C-DF474FF18953";
name = "Jun 7 20, 11:50";
paths = (
{
closed = 1;
nodes = (
"115 351 LINE",
"215 469 LINE",
"215 670 LINE",
"115 552 LINE"
);
},
{
closed = 1;
nodes = (
"115 12 LINE",
"215 130 LINE",
"215 339 LINE",
"115 221 LINE"
);
},
{
closed = 1;
nodes = (
"493 670 LINE",
"493 800 LINE",
"383 670 LINE"
);
},
{
closed = 1;
nodes = (
"422 339 LINE",
"422 469 LINE",
"312 339 LINE"
);
},
{
closed = 1;
nodes = (
"493 0 LINE",
"493 130 LINE",
"383 0 LINE"
);
},
{
closed = 1;
nodes = (
"243 827 LINE",
"395 827 LINE",
"320 924 LINE"
);
}
);
width = 528;
}
);
unicode = "00CA,00EA";
},
{
glyphname = Edieresis;
lastChange = "2021-05-01 11:42:14 +0000";
layers = (
{
anchors = (
{
name = top;
position = "{286, 800}";
}
);
layerId = "ADD356F3-6F8E-4A19-BEE8-38EF5CB52C35";
paths = (
{
closed = 1;
nodes = (
"115 357 LINE",
"215 469 LINE",
"215 670 LINE",
"115 558 LINE"
);
},
{
closed = 1;
nodes = (
"115 18 LINE",
"215 130 LINE",
"215 339 LINE",
"115 227 LINE"
);
},
{
closed = 1;
nodes = (
"493 670 LINE",
"493 800 LINE",
"374 670 LINE"
);
},
{
closed = 1;
nodes = (
"422 339 LINE",
"422 469 LINE",
"302 339 LINE"
);
},
{
closed = 1;
nodes = (
"493 0 LINE",
"493 130 LINE",
"373 0 LINE"
);
},
{
closed = 1;
nodes = (
"345 721 LINE",
"418 800 LINE",
"418 894 LINE",
"345 804 LINE"
);
},
{
closed = 1;
nodes = (
"185 721 LINE",
"258 800 LINE",
"258 894 LINE",
"185 804 LINE"
);
}
);
width = 528;
},
{
components = (
{
name = E;
},
{
name = dieresis;
transform = "{1, 0, 0, 1, 119, 0}";
}
);
layerId = "8B2712DD-44AF-41AD-B0E9-03B6F24551DE";
width = 528;
}
);
unicode = "00CB,00EB";
},
{
glyphname = F;
lastChange = "2021-05-01 11:42:14 +0000";
layers = (
{
layerId = "8B2712DD-44AF-41AD-B0E9-03B6F24551DE";
paths = (
{
closed = 1;
nodes = (
"215 0 LINE",
"215 339 LINE",
"422 339 LINE",
"422 469 LINE",
"215 469 LINE",
"215 670 LINE",
"493 670 LINE",
"493 800 LINE",
"80 800 LINE",
"80 0 LINE"
);
}
);
width = 513;
},
{
layerId = "ADD356F3-6F8E-4A19-BEE8-38EF5CB52C35";
paths = (
{
closed = 1;
nodes = (
"115 351 LINE",
"215 469 LINE",
"215 670 LINE",
"115 552 LINE"
);
},
{
closed = 1;
nodes = (
"115 0 LINE",
"215 0 LINE",
"215 339 LINE",
"115 221 LINE"
);
},
{
closed = 1;
nodes = (
"493 670 LINE",
"493 800 LINE",
"383 670 LINE"
);
},
{
closed = 1;
nodes = (
"422 339 LINE",
"422 469 LINE",
"312 339 LINE"
);
}
);
width = 513;
}
);
unicode = "0046,0066";
},
{
glyphname = G;
lastChange = "2021-05-01 11:42:14 +0000";
layers = (
{
layerId = "8B2712DD-44AF-41AD-B0E9-03B6F24551DE";
paths = (
{
closed = 1;
nodes = (
"482 -10 OFFCURVE",
"539 46 OFFCURVE",
"539 182 CURVE SMOOTH",
"539 441 LINE",
"235 441 LINE",
"235 311 LINE",
"404 311 LINE",
"404 192 LINE SMOOTH",
"404 138 OFFCURVE",
"398 125 OFFCURVE",
"302 125 CURVE SMOOTH",
"206 125 OFFCURVE",
"200 138 OFFCURVE",
"200 192 CURVE SMOOTH",
"200 608 LINE SMOOTH",
"200 662 OFFCURVE",
"206 675 OFFCURVE",
"302 675 CURVE SMOOTH",
"398 675 OFFCURVE",
"404 662 OFFCURVE",
"404 608 CURVE SMOOTH",
"404 534 LINE",
"539 534 LINE",
"539 618 LINE SMOOTH",
"539 754 OFFCURVE",
"482 810 OFFCURVE",
"302 810 CURVE SMOOTH",
"122 810 OFFCURVE",
"65 754 OFFCURVE",
"65 618 CURVE SMOOTH",
"65 182 LINE SMOOTH",
"65 46 OFFCURVE",
"122 -10 OFFCURVE",
"302 -10 CURVE SMOOTH"
);
}
);
width = 604;
},
{
layerId = "ADD356F3-6F8E-4A19-BEE8-38EF5CB52C35";
paths = (
{
closed = 1;
nodes = (
"428 192 LINE SMOOTH",
"428 169 OFFCURVE",
"424 156 OFFCURVE",
"397 124 CURVE SMOOTH",
"284 -10 LINE",
"291 -10 OFFCURVE",
"290 -10 OFFCURVE",
"302 -10 CURVE SMOOTH",
"482 -10 OFFCURVE",
"539 46 OFFCURVE",
"539 182 CURVE SMOOTH",
"539 441 LINE",
"428 311 LINE"
);
},
{
closed = 1;
nodes = (
"122 92 LINE",
"108 108 OFFCURVE",
"100 129 OFFCURVE",
"100 153 CURVE SMOOTH",
"100 491 LINE SMOOTH",
"100 514 OFFCURVE",
"103 529 OFFCURVE",
"112 539 CURVE SMOOTH",
"211 658 LINE",
"202 648 OFFCURVE",
"200 631 OFFCURVE",
"200 608 CURVE SMOOTH",
"200 192 LINE SMOOTH",
"200 188 OFFCURVE",
"200 184 OFFCURVE",
"200 180 CURVE"
);
},
{
closed = 1;
nodes = (
"539 534 LINE",
"539 618 LINE SMOOTH",
"539 656 OFFCURVE",
"536 672 OFFCURVE",
"532 688 CURVE",
"404 534 LINE"
);
}
);
width = 604;
}
);
unicode = "0047,0067";
},
{
glyphname = H;
lastChange = "2021-05-01 11:42:14 +0000";
layers = (
{
layerId = "8B2712DD-44AF-41AD-B0E9-03B6F24551DE";
paths = (
{
closed = 1;
nodes = (
"215 0 LINE",
"215 334 LINE",
"419 334 LINE",
"419 0 LINE",
"554 0 LINE",
"554 800 LINE",
"419 800 LINE",
"419 464 LINE",
"215 464 LINE",
"215 800 LINE",
"80 800 LINE",
"80 0 LINE"
);
}
);
width = 634;
},
{
layerId = "ADD356F3-6F8E-4A19-BEE8-38EF5CB52C35";
paths = (
{
closed = 1;
nodes = (
"115 346 LINE",
"215 464 LINE",
"215 800 LINE",
"115 682 LINE"
);
},
{
closed = 1;
nodes = (
"454 0 LINE",
"554 0 LINE",
"554 800 LINE",
"454 682 LINE"
);
},
{
closed = 1;
nodes = (
"115 0 LINE",
"215 0 LINE",
"215 334 LINE",
"115 216 LINE"
);
}
);
width = 634;
}
);
unicode = "0048,0068";
},
{
glyphname = I;
lastChange = "2021-05-01 11:42:14 +0000";
layers = (
{
anchors = (
{
name = top;
position = "{152, 800}";
}
);
layerId = "8B2712DD-44AF-41AD-B0E9-03B6F24551DE";
paths = (
{
closed = 1;
nodes = (
"215 0 LINE",
"215 800 LINE",
"80 800 LINE",
"80 0 LINE"
);
}
);
width = 295;
},
{
anchors = (
{
name = top;
position = "{152, 800}";
}
);
layerId = "ADD356F3-6F8E-4A19-BEE8-38EF5CB52C35";
paths = (
{
closed = 1;
nodes = (
"115 0 LINE",
"215 0 LINE",
"215 800 LINE",
"115 682 LINE"
);
}
);
width = 295;
}
);
unicode = "0049,0069";
},
{
glyphname = Iacute;
lastChange = "2021-05-01 11:42:14 +0000";
layers = (
{
anchors = (
{
name = top;
position = "{152, 800}";
}
);
layerId = "ADD356F3-6F8E-4A19-BEE8-38EF5CB52C35";
paths = (
{
closed = 1;
nodes = (
"115 0 LINE",
"215 0 LINE",
"215 800 LINE",
"115 682 LINE"
);
},
{
closed = 1;
nodes = (
"115 682 LINE",
"215 800 LINE",
"260 924 LINE"
);
}
);
width = 295;
},
{
anchors = (
{
name = top;
position = "{152, 800}";
}
);
layerId = "8B2712DD-44AF-41AD-B0E9-03B6F24551DE";
paths = (
{
closed = 1;
nodes = (
"215 0 LINE",
"215 800 LINE",
"80 800 LINE",
"80 0 LINE"
);
},
{
closed = 1;
nodes = (
"215 800 LINE",
"260 924 LINE",
"150 924 LINE",
"134 800 LINE"
);
}
);
width = 295;
}
);
unicode = "00CD,00ED";
},
{
glyphname = Icircumflex;
lastChange = "2021-05-01 11:42:14 +0000";
layers = (
{
anchors = (
{
name = top;
position = "{152, 800}";
}
);
layerId = "ADD356F3-6F8E-4A19-BEE8-38EF5CB52C35";
paths = (
{
closed = 1;
nodes = (
"58 800 LINE",
"80 800 LINE",
"80 770 LINE",
"115 800 LINE",
"152 877 LINE"
);
},
{
closed = 1;
nodes = (
"215 0 LINE",
"215 800 LINE",
"272 800 LINE",
"226 924 LINE",
"171 871 LINE",
"209 792 LINE",
"115 708 LINE",
"115 0 LINE"
);
}
);
width = 295;
},
{
anchors = (
{
name = top;
position = "{152, 800}";
}
);
layerId = "8B2712DD-44AF-41AD-B0E9-03B6F24551DE";
paths = (
{
closed = 1;
nodes = (
"215 0 LINE",
"215 800 LINE",
"80 800 LINE",
"80 0 LINE"
);
},
{
closed = 1;
nodes = (
"115 800 LINE",
"152 877 LINE",
"189 800 LINE",
"272 800 LINE",
"226 924 LINE",
"80 924 LINE",
"34 800 LINE"
);
}
);
width = 295;
}
);
unicode = "00CE,00EE";
},
{
glyphname = Idieresis;
lastChange = "2021-05-01 11:42:14 +0000";
layers = (
{
anchors = (
{
name = top;
position = "{152, 800}";
}
);
layerId = "ADD356F3-6F8E-4A19-BEE8-38EF5CB52C35";
paths = (
{
closed = 1;
nodes = (
"80 800 LINE",
"80 741 LINE",
"124 800 LINE",
"124 894 LINE",
"47 800 LINE"
);
},
{
closed = 1;
nodes = (
"215 0 LINE",
"215 800 LINE",
"284 800 LINE",
"284 894 LINE",
"115 668 LINE",
"115 0 LINE"
);
}
);
width = 295;
},
{
anchors = (
{
name = top;
position = "{152, 800}";
}
);
layerId = "8B2712DD-44AF-41AD-B0E9-03B6F24551DE";
paths = (
{
closed = 1;
nodes = (
"215 0 LINE",
"215 800 LINE",
"80 800 LINE",
"80 0 LINE"
);
},
{
closed = 1;
nodes = (
"124 800 LINE",
"124 894 LINE",
"22 894 LINE",
"22 800 LINE"
);
},
{
closed = 1;
nodes = (
"284 800 LINE",
"284 894 LINE",
"182 894 LINE",
"182 800 LINE"
);
}
);
width = 295;
}
);
unicode = "00CF,00EF";
},
{
glyphname = Igrave;
lastChange = "2021-05-01 11:42:14 +0000";
layers = (
{
anchors = (
{
name = top;
position = "{152, 800}";
}
);
layerId = "ADD356F3-6F8E-4A19-BEE8-38EF5CB52C35";
paths = (
{
closed = 1;
nodes = (
"215 0 LINE",
"215 800 LINE",
"199 924 LINE",
"115 722 LINE",
"115 0 LINE"
);
}
);
width = 295;
},
{
anchors = (
{
name = top;
position = "{152, 800}";
}
);
layerId = "8B2712DD-44AF-41AD-B0E9-03B6F24551DE";
paths = (
{
closed = 1;
nodes = (
"215 0 LINE",
"215 800 LINE",
"80 800 LINE",
"80 0 LINE"
);
},
{
closed = 1;
nodes = (
"215 800 LINE",
"199 924 LINE",
"89 924 LINE",
"134 800 LINE"
);
}
);
width = 295;
}
);
unicode = "00CC,00EC";
},
{
glyphname = J;
lastChange = "2021-05-01 11:42:14 +0000";
layers = (
{
layerId = "8B2712DD-44AF-41AD-B0E9-03B6F24551DE";
paths = (
{
closed = 1;
nodes = (
"372 -10 OFFCURVE",
"424 46 OFFCURVE",
"424 182 CURVE SMOOTH",
"424 800 LINE",
"119 800 LINE",
"119 673 LINE",
"289 673 LINE",
"289 192 LINE SMOOTH",
"289 138 OFFCURVE",
"276 125 OFFCURVE",
"212 125 CURVE SMOOTH",
"151 125 OFFCURVE",
"135 138 OFFCURVE",
"135 192 CURVE SMOOTH",
"135 302 LINE",
"0 302 LINE",
"0 182 LINE SMOOTH",
"0 46 OFFCURVE",
"67 -10 OFFCURVE",
"212 -10 CURVE SMOOTH"
);
}
);
width = 499;
},
{
layerId = "ADD356F3-6F8E-4A19-BEE8-38EF5CB52C35";
paths = (
{
closed = 1;
nodes = (
"324 190 LINE SMOOTH",
"324 149 OFFCURVE",
"312 112 OFFCURVE",
"278 71 CURVE SMOOTH",
"212 -10 LINE",
"372 -10 OFFCURVE",
"424 46 OFFCURVE",
"424 182 CURVE SMOOTH",
"424 800 LINE",
"324 673 LINE"
);
},
{
closed = 1;
nodes = (
"57 72 LINE",
"43 88 OFFCURVE",
"35 110 OFFCURVE",
"35 133 CURVE SMOOTH",
"35 211 LINE",
"135 302 LINE",
"135 192 LINE SMOOTH",
"135 180 OFFCURVE",
"136 170 OFFCURVE",
"138 162 CURVE"
);
}
);
width = 499;
}
);
unicode = "004A,006A";
},
{
glyphname = K;
lastChange = "2021-05-01 11:42:14 +0000";
layers = (
{
layerId = "8B2712DD-44AF-41AD-B0E9-03B6F24551DE";
paths = (
{
closed = 1;
nodes = (
"584 0 LINE",
"317 454 LINE",
"160 454 LINE",
"419 0 LINE"
);
},
{
closed = 1;
nodes = (
"215 0 LINE",
"215 800 LINE",
"80 800 LINE",
"80 0 LINE"
);
},
{
closed = 1;
nodes = (
"269 379 LINE",
"579 800 LINE",
"429 800 LINE",
"124 379 LINE"
);
}
);
width = 579;
},
{
layerId = "ADD356F3-6F8E-4A19-BEE8-38EF5CB52C35";
paths = (
{
closed = 1;
nodes = (
"115 367 LINE",
"215 505 LINE",
"215 800 LINE",
"115 672 LINE"
);
},
{
closed = 1;
nodes = (
"460 0 LINE",
"584 0 LINE",
"320 449 LINE",
"579 800 LINE",
"399 699 LINE",
"207 435 LINE"
);
},
{
closed = 1;
nodes = (
"115 0 LINE",
"215 0 LINE",
"215 357 LINE",
"193 396 LINE",
"115 294 LINE"
);
}
);
width = 579;
},
{
associatedMasterId = "8B2712DD-44AF-41AD-B0E9-03B6F24551DE";
layerId = "591D0DD0-121F-440D-9B8C-1EB21AB3E466";
name = "Mar 28 20, 10:06";
paths = (
{
closed = 1;
nodes = (
"90 0 LINE",
"225 0 LINE",
"225 800 LINE",
"90 800 LINE"
);
},
{
closed = 1;
nodes = (
"127 372 LINE",
"268 372 LINE",
"589 800 LINE",
"439 800 LINE"
);
},
{
closed = 1;
nodes = (
"594 0 LINE",
"316 447 LINE",
"159 447 LINE",
"429 0 LINE"
);
}
);
width = 600;
},
{
associatedMasterId = "ADD356F3-6F8E-4A19-BEE8-38EF5CB52C35";
layerId = "1608EEA0-A0E8-4AE3-92AE-7038E5FEBBA1";
name = "Mar 28 20, 10:06";
paths = (
{
closed = 1;
nodes = (
"125 370 LINE",
"225 505 LINE",
"225 800 LINE",
"125 672 LINE"
);
},
{
closed = 1;
nodes = (
"470 0 LINE",
"594 0 LINE",
"320 441 LINE",
"589 800 LINE",
"410 700 LINE",
"212 428 LINE"
);
},
{
closed = 1;
nodes = (
"125 0 LINE",
"225 0 LINE",
"225 338 LINE",
"201 379 LINE",
"125 282 LINE"
);
}
);
width = 600;
}
);
unicode = "004B,006B";
},
{
glyphname = L;
lastChange = "2021-05-01 11:42:14 +0000";
layers = (
{
layerId = "8B2712DD-44AF-41AD-B0E9-03B6F24551DE";
paths = (
{
closed = 1;
nodes = (
"433 0 LINE",
"433 130 LINE",
"215 130 LINE",
"215 800 LINE",
"80 800 LINE",
"80 0 LINE"
);
}
);
width = 418;
},
{
layerId = "ADD356F3-6F8E-4A19-BEE8-38EF5CB52C35";
paths = (
{
closed = 1;
nodes = (
"115 12 LINE",
"215 130 LINE",
"215 800 LINE",
"115 682 LINE"
);
},
{
closed = 1;
nodes = (
"433 0 LINE",
"433 130 LINE",
"323 0 LINE"
);
}
);
width = 418;
}
);
unicode = "004C,006C";
},
{
glyphname = M;
lastChange = "2021-05-01 11:42:14 +0000";
layers = (
{
layerId = "8B2712DD-44AF-41AD-B0E9-03B6F24551DE";
paths = (
{
closed = 1;
nodes = (
"215 0 LINE",
"215 513 LINE",
"357 0 LINE",
"397 0 LINE",
"539 513 LINE",
"539 0 LINE",
"674 0 LINE",
"674 800 LINE",
"473 800 LINE",
"377 441 LINE",
"291 800 LINE",
"80 800 LINE",
"80 0 LINE"
);
}
);
width = 754;
},
{
layerId = "ADD356F3-6F8E-4A19-BEE8-38EF5CB52C35";
paths = (
{
closed = 1;
nodes = (
"574 0 LINE",
"674 0 LINE",
"674 800 LINE",
"574 641 LINE"
);
},
{
closed = 1;
nodes = (
"344 172 LINE",
"392 0 LINE",
"397 0 LINE",
"539 513 LINE",
"539 578 LINE",
"409 424 LINE"
);
},
{
closed = 1;
nodes = (
"327 234 LINE",
"377 441 LINE",
"291 800 LINE",
"206 677 LINE"
);
},
{
closed = 1;
nodes = (
"115 0 LINE",
"215 0 LINE",
"215 515 LINE",
"197 580 LINE",
"115 426 LINE"
);
}
);
width = 754;
},
{
associatedMasterId = "ADD356F3-6F8E-4A19-BEE8-38EF5CB52C35";
layerId = "2B83EB2A-9281-4D4A-9FEE-D7740376EC17";
name = "Mar 28 20, 10:24";
paths = (
{
closed = 1;
nodes = (
"664 0 LINE",
"769 0 LINE",
"769 800 LINE",
"664 655 LINE"
);
},
{
closed = 1;
nodes = (
"410 179 LINE",
"462 0 LINE",
"467 0 LINE",
"629 523 LINE",
"622 586 LINE",
"474 393 LINE"
);
},
{
closed = 1;
nodes = (
"393 230 LINE",
"447 414 LINE",
"335 800 LINE",
"249 692 LINE"
);
},
{
closed = 1;
nodes = (
"160 0 LINE",
"265 0 LINE",
"265 525 LINE",
"252 569 LINE",
"160 441 LINE"
);
}
);
width = 800;
},
{
associatedMasterId = "8B2712DD-44AF-41AD-B0E9-03B6F24551DE";
layerId = "7549DC34-34F5-43E2-9225-2F0AD64B7D0D";
name = "Mar 28 20, 10:24";
paths = (
{
closed = 1;
nodes = (
"265 0 LINE",
"265 523 LINE",
"427 0 LINE",
"467 0 LINE",
"629 523 LINE",
"629 0 LINE",
"769 0 LINE",
"769 800 LINE",
"559 800 LINE",
"447 414 LINE",
"335 800 LINE",
"125 800 LINE",
"125 0 LINE"
);
}
);
width = 800;
},
{
associatedMasterId = "ADD356F3-6F8E-4A19-BEE8-38EF5CB52C35";
layerId = "EE2385DB-6900-40F2-9958-BCC0D12C4611";
name = "Mar 28 20, 10:49";
paths = (
{
closed = 1;
nodes = (
"654 0 LINE",
"754 0 LINE",
"754 800 LINE",
"654 643 LINE"
);
},
{
closed = 1;
nodes = (
"413 174 LINE",
"462 0 LINE",
"467 0 LINE",
"619 513 LINE",
"619 568 LINE",
"480 415 LINE"
);
},
{
closed = 1;
nodes = (
"397 234 LINE",
"447 451 LINE",
"351 800 LINE",
"266 677 LINE"
);
},
{
closed = 1;
nodes = (
"175 0 LINE",
"275 0 LINE",
"275 515 LINE",
"258 570 LINE",
"175 426 LINE"
);
}
);
width = 800;
},
{
associatedMasterId = "8B2712DD-44AF-41AD-B0E9-03B6F24551DE";
layerId = "DF09279C-AF62-485A-8349-7BBFAD3AE468";
name = "Mar 28 20, 10:49";
paths = (
{
closed = 1;
nodes = (
"275 0 LINE",
"275 513 LINE",
"427 0 LINE",
"467 0 LINE",
"619 513 LINE",
"619 0 LINE",
"754 0 LINE",
"754 800 LINE",
"543 800 LINE",
"447 451 LINE",
"351 800 LINE",
"140 800 LINE",
"140 0 LINE"
);
}
);
width = 800;
}
);
unicode = "004D,006D";
},
{
glyphname = N;
lastChange = "2021-05-01 11:42:14 +0000";
layers = (
{
anchors = (
{
name = top;
position = "{324, 800}";
}
);
layerId = "8B2712DD-44AF-41AD-B0E9-03B6F24551DE";
paths = (
{
closed = 1;
nodes = (
"205 0 LINE",
"205 512 LINE",
"409 0 LINE",
"554 0 LINE",
"554 800 LINE",
"429 800 LINE",
"429 360 LINE",
"265 800 LINE",
"80 800 LINE",
"80 0 LINE"
);
}
);
width = 634;
},
{
anchors = (
{
name = top;
position = "{324, 800}";
}
);
layerId = "ADD356F3-6F8E-4A19-BEE8-38EF5CB52C35";
paths = (
{
closed = 1;
nodes = (
"463 0 LINE",
"554 0 LINE",
"554 800 LINE",
"463 693 LINE"
);
},
{
closed = 1;
nodes = (
"114 0 LINE",
"205 0 LINE",
"205 512 LINE",
"114 405 LINE"
);
},
{
closed = 1;
nodes = (
"429 35 LINE",
"429 360 LINE",
"265 800 LINE",
"167 688 LINE"
);
}
);
width = 634;
}
);
unicode = "004E,006E";
},
{
glyphname = O;
lastChange = "2021-05-01 11:42:14 +0000";
layers = (
{
anchors = (
{
name = top;
position = "{302, 800}";
}
);
layerId = "ADD356F3-6F8E-4A19-BEE8-38EF5CB52C35";
paths = (
{
closed = 1;
nodes = (
"439 182 LINE SMOOTH",
"439 89 OFFCURVE",
"399 34 OFFCURVE",
"335 -9 CURVE",
"481 -2 OFFCURVE",
"539 55 OFFCURVE",
"539 182 CURVE SMOOTH",
"539 618 LINE SMOOTH",
"539 655 OFFCURVE",
"534 687 OFFCURVE",
"523 712 CURVE",
"439 613 LINE"
);
},
{
closed = 1;
nodes = (
"122 92 LINE",
"108 108 OFFCURVE",
"100 129 OFFCURVE",
"100 153 CURVE SMOOTH",
"100 491 LINE SMOOTH",
"100 514 OFFCURVE",
"103 529 OFFCURVE",
"112 539 CURVE SMOOTH",
"212 656 LINE",
"203 646 OFFCURVE",
"200 631 OFFCURVE",
"200 608 CURVE SMOOTH",
"200 192 LINE SMOOTH",
"200 188 OFFCURVE",
"200 184 OFFCURVE",
"200 180 CURVE"
);
}
);
width = 604;
},
{
associatedMasterId = "8B2712DD-44AF-41AD-B0E9-03B6F24551DE";
layerId = "8FEE45AF-5AEB-41F9-9DD8-05FE1EEAE013";
name = "May 21 20, 11:17";
paths = (
{
closed = 1;
nodes = (
"65 182 LINE SMOOTH",
"65 46 OFFCURVE",
"132 -10 OFFCURVE",
"302 -10 CURVE SMOOTH",
"472 -10 OFFCURVE",
"539 46 OFFCURVE",
"539 182 CURVE SMOOTH",
"539 276 LINE SMOOTH",
"539 412 OFFCURVE",
"472 468 OFFCURVE",
"302 468 CURVE SMOOTH",
"132 468 OFFCURVE",
"65 412 OFFCURVE",
"65 276 CURVE SMOOTH"
);
},
{
closed = 1;
nodes = (
"404 192 LINE SMOOTH",
"404 138 OFFCURVE",
"388 125 OFFCURVE",
"302 125 CURVE SMOOTH",
"216 125 OFFCURVE",
"200 138 OFFCURVE",
"200 192 CURVE SMOOTH",
"200 266 LINE SMOOTH",
"200 320 OFFCURVE",
"216 333 OFFCURVE",
"302 333 CURVE",
"388 333 OFFCURVE",
"404 320 OFFCURVE",
"404 266 CURVE SMOOTH"
);
},
{
closed = 1;
nodes = (
"200 608 LINE SMOOTH",
"200 662 OFFCURVE",
"216 675 OFFCURVE",
"302 675 CURVE",
"388 675 OFFCURVE",
"404 662 OFFCURVE",
"404 608 CURVE SMOOTH",
"404 544 LINE",
"539 544 LINE",
"539 618 LINE SMOOTH",
"539 754 OFFCURVE",
"472 810 OFFCURVE",
"302 810 CURVE SMOOTH",
"132 810 OFFCURVE",
"65 754 OFFCURVE",
"65 618 CURVE SMOOTH",
"65 224 LINE",
"200 234 LINE"
);
}
);
width = 604;
},
{
associatedMasterId = "8B2712DD-44AF-41AD-B0E9-03B6F24551DE";
layerId = "051DE46A-5EA4-40E2-BAF4-726372B859E8";
name = "May 21 20, 11:19";
paths = (
{
closed = 1;
nodes = (
"65 46 OFFCURVE",
"132 -10 OFFCURVE",
"302 -10 CURVE SMOOTH",
"472 -10 OFFCURVE",
"539 46 OFFCURVE",
"539 182 CURVE SMOOTH",
"539 276 LINE SMOOTH",
"539 412 OFFCURVE",
"472 468 OFFCURVE",
"320 468 CURVE SMOOTH",
"263 468 OFFCURVE",
"229 460 OFFCURVE",
"200 447 CURVE",
"200 548 LINE SMOOTH",
"200 662 OFFCURVE",
"216 675 OFFCURVE",
"302 675 CURVE SMOOTH",
"388 675 OFFCURVE",
"404 662 OFFCURVE",
"404 608 CURVE SMOOTH",
"404 544 LINE",
"539 544 LINE",
"539 618 LINE SMOOTH",
"539 754 OFFCURVE",
"472 810 OFFCURVE",
"302 810 CURVE SMOOTH",
"132 810 OFFCURVE",
"65 754 OFFCURVE",
"65 558 CURVE SMOOTH",
"65 182 LINE SMOOTH"
);
},
{
closed = 1;
nodes = (
"200 266 LINE SMOOTH",
"200 320 OFFCURVE",
"216 333 OFFCURVE",
"302 333 CURVE SMOOTH",
"388 333 OFFCURVE",
"404 320 OFFCURVE",
"404 266 CURVE SMOOTH",
"404 192 LINE SMOOTH",
"404 138 OFFCURVE",
"388 125 OFFCURVE",
"302 125 CURVE SMOOTH",
"216 125 OFFCURVE",
"200 138 OFFCURVE",
"200 192 CURVE SMOOTH"
);
}
);
width = 604;
},
{
anchors = (
{
name = top;
position = "{302, 800}";
}
);
layerId = "8B2712DD-44AF-41AD-B0E9-03B6F24551DE";
paths = (
{
closed = 1;
nodes = (
"472 -10 OFFCURVE",
"539 46 OFFCURVE",
"539 182 CURVE SMOOTH",
"539 618 LINE SMOOTH",
"539 754 OFFCURVE",
"472 810 OFFCURVE",
"302 810 CURVE SMOOTH",
"132 810 OFFCURVE",
"65 754 OFFCURVE",
"65 618 CURVE SMOOTH",
"65 182 LINE SMOOTH",
"65 46 OFFCURVE",
"132 -10 OFFCURVE",
"302 -10 CURVE SMOOTH"
);
},
{
closed = 1;
nodes = (
"216 125 OFFCURVE",
"200 138 OFFCURVE",
"200 192 CURVE SMOOTH",
"200 608 LINE SMOOTH",
"200 662 OFFCURVE",
"216 675 OFFCURVE",
"302 675 CURVE SMOOTH",
"388 675 OFFCURVE",
"404 662 OFFCURVE",
"404 608 CURVE SMOOTH",
"404 192 LINE SMOOTH",
"404 138 OFFCURVE",
"388 125 OFFCURVE",
"302 125 CURVE SMOOTH"
);
}
);
width = 604;
}
);
unicode = "004F,006F";
},
{
glyphname = Oacute;
lastChange = "2021-05-01 11:42:14 +0000";
layers = (
{
anchors = (
{
name = top;
position = "{302, 800}";
}
);
layerId = "ADD356F3-6F8E-4A19-BEE8-38EF5CB52C35";
paths = (
{
closed = 1;
nodes = (
"439 182 LINE SMOOTH",
"439 89 OFFCURVE",
"399 34 OFFCURVE",
"335 -9 CURVE",
"481 -2 OFFCURVE",
"539 55 OFFCURVE",
"539 182 CURVE SMOOTH",
"539 618 LINE SMOOTH",
"539 655 OFFCURVE",
"534 687 OFFCURVE",
"523 712 CURVE",
"439 613 LINE"
);
},
{
closed = 1;
nodes = (
"122 92 LINE",
"108 108 OFFCURVE",
"100 129 OFFCURVE",
"100 153 CURVE SMOOTH",
"100 491 LINE SMOOTH",
"100 514 OFFCURVE",
"103 529 OFFCURVE",
"112 539 CURVE SMOOTH",
"212 656 LINE",
"203 646 OFFCURVE",
"200 631 OFFCURVE",
"200 608 CURVE SMOOTH",
"200 192 LINE SMOOTH",
"200 188 OFFCURVE",
"200 184 OFFCURVE",
"200 180 CURVE"
);
},
{
closed = 1;
nodes = (
"289 795 LINE",
"275 716 LINE",
"347 809 LINE",
"389 924 LINE"
);
}
);
width = 604;
},
{
anchors = (
{
name = top;
position = "{302, 800}";
}
);
layerId = "8B2712DD-44AF-41AD-B0E9-03B6F24551DE";
paths = (
{
closed = 1;
nodes = (
"472 -10 OFFCURVE",
"539 46 OFFCURVE",
"539 182 CURVE SMOOTH",
"539 618 LINE SMOOTH",
"539 754 OFFCURVE",
"472 810 OFFCURVE",
"302 810 CURVE SMOOTH",
"132 810 OFFCURVE",
"65 754 OFFCURVE",
"65 618 CURVE SMOOTH",
"65 182 LINE SMOOTH",
"65 46 OFFCURVE",
"132 -10 OFFCURVE",
"302 -10 CURVE SMOOTH"
);
},
{
closed = 1;
nodes = (
"216 125 OFFCURVE",
"200 138 OFFCURVE",
"200 192 CURVE SMOOTH",
"200 608 LINE SMOOTH",
"200 662 OFFCURVE",
"216 675 OFFCURVE",
"302 675 CURVE SMOOTH",
"388 675 OFFCURVE",
"404 662 OFFCURVE",
"404 608 CURVE SMOOTH",
"404 192 LINE SMOOTH",
"404 138 OFFCURVE",
"388 125 OFFCURVE",
"302 125 CURVE SMOOTH"
);
},
{
closed = 1;
nodes = (
"344 800 LINE",
"389 924 LINE",
"279 924 LINE",
"263 800 LINE"
);
}
);
width = 604;
}
);
unicode = "00D3,00F3";
},
{
glyphname = Ocircumflex;
lastChange = "2021-05-01 11:42:14 +0000";
layers = (
{
anchors = (
{
name = top;
position = "{302, 800}";
}
);
layerId = "ADD356F3-6F8E-4A19-BEE8-38EF5CB52C35";
paths = (
{
closed = 1;
nodes = (
"439 182 LINE SMOOTH",
"439 89 OFFCURVE",
"399 34 OFFCURVE",
"335 -9 CURVE",
"481 -2 OFFCURVE",
"539 55 OFFCURVE",
"539 182 CURVE SMOOTH",
"539 618 LINE SMOOTH",
"539 655 OFFCURVE",
"534 687 OFFCURVE",
"523 712 CURVE",
"439 616 LINE"
);
},
{
closed = 1;
nodes = (
"122 92 LINE",
"108 108 OFFCURVE",
"100 129 OFFCURVE",
"100 153 CURVE SMOOTH",
"100 491 LINE SMOOTH",
"100 514 OFFCURVE",
"103 529 OFFCURVE",
"112 539 CURVE SMOOTH",
"212 656 LINE",
"203 646 OFFCURVE",
"200 631 OFFCURVE",
"200 608 CURVE SMOOTH",
"200 192 LINE SMOOTH",
"200 188 OFFCURVE",
"200 184 OFFCURVE",
"200 180 CURVE"
);
},
{
closed = 1;
nodes = (
"198 796 LINE",
"174 726 LINE",
"270 810 LINE",
"302 877 LINE"
);
},
{
closed = 1;
nodes = (
"322 868 LINE",
"380 750 LINE",
"424 795 LINE",
"376 924 LINE"
);
}
);
width = 604;
},
{
anchors = (
{
name = top;
position = "{302, 800}";
}
);
layerId = "8B2712DD-44AF-41AD-B0E9-03B6F24551DE";
paths = (
{
closed = 1;
nodes = (
"472 -10 OFFCURVE",
"539 46 OFFCURVE",
"539 182 CURVE SMOOTH",
"539 618 LINE SMOOTH",
"539 754 OFFCURVE",
"472 810 OFFCURVE",
"302 810 CURVE SMOOTH",
"132 810 OFFCURVE",
"65 754 OFFCURVE",
"65 618 CURVE SMOOTH",
"65 182 LINE SMOOTH",
"65 46 OFFCURVE",
"132 -10 OFFCURVE",
"302 -10 CURVE SMOOTH"
);
},
{
closed = 1;
nodes = (
"216 125 OFFCURVE",
"200 138 OFFCURVE",
"200 192 CURVE SMOOTH",
"200 608 LINE SMOOTH",
"200 662 OFFCURVE",
"216 675 OFFCURVE",
"302 675 CURVE SMOOTH",
"388 675 OFFCURVE",
"404 662 OFFCURVE",
"404 608 CURVE SMOOTH",
"404 192 LINE SMOOTH",
"404 138 OFFCURVE",
"388 125 OFFCURVE",
"302 125 CURVE SMOOTH"
);
},
{
closed = 1;
nodes = (
"376 924 LINE",
"230 924 LINE",
"181 792 LINE",
"265 800 LINE",
"302 877 LINE",
"339 800 LINE",
"426 789 LINE"
);
}
);
width = 604;
}
);
unicode = "00D4,00F4";
},
{
glyphname = Odieresis;
lastChange = "2021-05-01 11:42:14 +0000";
layers = (
{
anchors = (
{
name = top;
position = "{302, 800}";
}
);
layerId = "ADD356F3-6F8E-4A19-BEE8-38EF5CB52C35";
paths = (
{
closed = 1;
nodes = (
"439 182 LINE SMOOTH",
"439 89 OFFCURVE",
"399 34 OFFCURVE",
"335 -9 CURVE",
"481 -2 OFFCURVE",
"539 55 OFFCURVE",
"539 182 CURVE SMOOTH",
"539 618 LINE SMOOTH",
"539 655 OFFCURVE",
"534 687 OFFCURVE",
"523 712 CURVE",
"439 613 LINE"
);
},
{
closed = 1;
nodes = (
"122 92 LINE",
"108 108 OFFCURVE",
"100 129 OFFCURVE",
"100 153 CURVE SMOOTH",
"100 491 LINE SMOOTH",
"100 514 OFFCURVE",
"103 529 OFFCURVE",
"112 539 CURVE SMOOTH",
"212 656 LINE",
"203 646 OFFCURVE",
"200 631 OFFCURVE",
"200 608 CURVE SMOOTH",
"200 192 LINE SMOOTH",
"200 188 OFFCURVE",
"200 184 OFFCURVE",
"200 180 CURVE"
);
},
{
closed = 1;
nodes = (
"351 718 LINE",
"434 795 LINE",
"434 894 LINE",
"351 807 LINE"
);
},
{
closed = 1;
nodes = (
"195 719 LINE",
"274 810 LINE",
"274 894 LINE",
"195 803 LINE"
);
}
);
width = 604;
},
{
anchors = (
{
name = top;
position = "{302, 800}";
}
);
layerId = "8B2712DD-44AF-41AD-B0E9-03B6F24551DE";
paths = (
{
closed = 1;
nodes = (
"472 -10 OFFCURVE",
"539 46 OFFCURVE",
"539 182 CURVE SMOOTH",
"539 618 LINE SMOOTH",
"539 754 OFFCURVE",
"472 810 OFFCURVE",
"302 810 CURVE SMOOTH",
"132 810 OFFCURVE",
"65 754 OFFCURVE",
"65 618 CURVE SMOOTH",
"65 182 LINE SMOOTH",
"65 46 OFFCURVE",
"132 -10 OFFCURVE",
"302 -10 CURVE SMOOTH"
);
},
{
closed = 1;
nodes = (
"216 125 OFFCURVE",
"200 138 OFFCURVE",
"200 192 CURVE SMOOTH",
"200 608 LINE SMOOTH",
"200 662 OFFCURVE",
"216 675 OFFCURVE",
"302 675 CURVE SMOOTH",
"388 675 OFFCURVE",
"404 662 OFFCURVE",
"404 608 CURVE SMOOTH",
"404 192 LINE SMOOTH",
"404 138 OFFCURVE",
"388 125 OFFCURVE",
"302 125 CURVE SMOOTH"
);
},
{
closed = 1;
nodes = (
"274 790 LINE",
"274 894 LINE",
"172 894 LINE",
"172 790 LINE"
);
},
{
closed = 1;
nodes = (
"434 790 LINE",
"434 894 LINE",
"332 894 LINE",
"332 790 LINE"
);
}
);
width = 604;
}
);
unicode = "00D6,00F6";
},
{
glyphname = Ograve;
lastChange = "2021-05-01 11:42:14 +0000";
layers = (
{
anchors = (
{
name = top;
position = "{302, 800}";
}
);
layerId = "ADD356F3-6F8E-4A19-BEE8-38EF5CB52C35";
paths = (
{
closed = 1;
nodes = (
"439 182 LINE SMOOTH",
"439 89 OFFCURVE",
"399 34 OFFCURVE",
"335 -9 CURVE",
"481 -2 OFFCURVE",
"539 55 OFFCURVE",
"539 182 CURVE SMOOTH",
"539 618 LINE SMOOTH",
"539 655 OFFCURVE",
"534 687 OFFCURVE",
"523 712 CURVE",
"439 613 LINE"
);
},
{
closed = 1;
nodes = (
"122 92 LINE",
"108 108 OFFCURVE",
"100 129 OFFCURVE",
"100 153 CURVE SMOOTH",
"100 491 LINE SMOOTH",
"100 514 OFFCURVE",
"103 529 OFFCURVE",
"112 539 CURVE SMOOTH",
"212 656 LINE",
"203 646 OFFCURVE",
"200 631 OFFCURVE",
"200 608 CURVE SMOOTH",
"200 192 LINE SMOOTH",
"200 188 OFFCURVE",
"200 184 OFFCURVE",
"200 180 CURVE"
);
},
{
closed = 1;
nodes = (
"264 821 LINE",
"293 737 LINE",
"345 809 LINE",
"330 924 LINE"
);
}
);
width = 604;
},
{
anchors = (
{
name = top;
position = "{302, 800}";
}
);
layerId = "8B2712DD-44AF-41AD-B0E9-03B6F24551DE";
paths = (
{
closed = 1;
nodes = (
"472 -10 OFFCURVE",
"539 46 OFFCURVE",
"539 182 CURVE SMOOTH",
"539 618 LINE SMOOTH",
"539 754 OFFCURVE",
"472 810 OFFCURVE",
"302 810 CURVE SMOOTH",
"132 810 OFFCURVE",
"65 754 OFFCURVE",
"65 618 CURVE SMOOTH",
"65 182 LINE SMOOTH",
"65 46 OFFCURVE",
"132 -10 OFFCURVE",
"302 -10 CURVE SMOOTH"
);
},
{
closed = 1;
nodes = (
"216 125 OFFCURVE",
"200 138 OFFCURVE",
"200 192 CURVE SMOOTH",
"200 608 LINE SMOOTH",
"200 662 OFFCURVE",
"216 675 OFFCURVE",
"302 675 CURVE SMOOTH",
"388 675 OFFCURVE",
"404 662 OFFCURVE",
"404 608 CURVE SMOOTH",
"404 192 LINE SMOOTH",
"404 138 OFFCURVE",
"388 125 OFFCURVE",
"302 125 CURVE SMOOTH"
);
},
{
closed = 1;
nodes = (
"346 800 LINE",
"330 924 LINE",
"220 924 LINE",
"265 800 LINE"
);
}
);
width = 604;
}
);
unicode = "00D2,00F2";
},
{
glyphname = Oslash;
lastChange = "2021-05-01 11:42:14 +0000";
layers = (
{
anchors = (
{
name = top;
position = "{302, 800}";
}
);
layerId = "ADD356F3-6F8E-4A19-BEE8-38EF5CB52C35";
paths = (
{
closed = 1;
nodes = (
"439 182 LINE SMOOTH",
"439 89 OFFCURVE",
"399 34 OFFCURVE",
"335 -9 CURVE",
"481 -2 OFFCURVE",
"539 55 OFFCURVE",
"539 182 CURVE SMOOTH",
"539 618 LINE SMOOTH",
"539 655 OFFCURVE",
"534 687 OFFCURVE",
"523 712 CURVE",
"439 613 LINE"
);
},
{
closed = 1;
nodes = (
"404 520 LINE",
"276 125 LINE",
"238 125 OFFCURVE",
"206 135 OFFCURVE",
"202 167 CURVE",
"279 395 LINE"
);
},
{
closed = 1;
nodes = (
"100 158 LINE",
"100 491 LINE SMOOTH",
"100 514 OFFCURVE",
"103 529 OFFCURVE",
"112 539 CURVE SMOOTH",
"212 656 LINE",
"203 646 OFFCURVE",
"200 631 OFFCURVE",
"200 608 CURVE SMOOTH",
"200 276 LINE"
);
}
);
width = 604;
},
{
components = (
{
name = O;
}
);
layerId = "8B2712DD-44AF-41AD-B0E9-03B6F24551DE";
paths = (
{
closed = 1;
nodes = (
"455 677 LINE",
"346 726 LINE",
"146 110 LINE",
"254 58 LINE"
);
}
);
width = 604;
}
);
leftMetricsKey = O;
rightMetricsKey = O;
unicode = "00D8,00F8";
},
{
glyphname = OE;
lastChange = "2021-05-01 11:42:14 +0000";
layers = (
{
layerId = "ADD356F3-6F8E-4A19-BEE8-38EF5CB52C35";
paths = (
{
closed = 1;
nodes = (
"122 92 LINE",
"108 108 OFFCURVE",
"100 129 OFFCURVE",
"100 153 CURVE SMOOTH",
"100 491 LINE SMOOTH",
"100 514 OFFCURVE",
"103 529 OFFCURVE",
"112 539 CURVE SMOOTH",
"212 656 LINE",
"203 646 OFFCURVE",
"200 631 OFFCURVE",
"200 608 CURVE SMOOTH",
"200 192 LINE SMOOTH",
"200 188 OFFCURVE",
"200 184 OFFCURVE",
"200 180 CURVE"
);
},
{
closed = 1;
nodes = (
"439 351 LINE",
"539 469 LINE",
"539 670 LINE",
"439 552 LINE"
);
},
{
closed = 1;
nodes = (
"439 177 LINE",
"439 12 LINE",
"539 130 LINE",
"539 339 LINE",
"439 221 LINE"
);
},
{
closed = 1;
nodes = (
"817 670 LINE",
"817 800 LINE",
"707 670 LINE"
);
},
{
closed = 1;
nodes = (
"746 339 LINE",
"746 469 LINE",
"636 339 LINE"
);
},
{
closed = 1;
nodes = (
"817 0 LINE",
"817 130 LINE",
"707 0 LINE"
);
}
);
width = 852;
},
{
layerId = "8B2712DD-44AF-41AD-B0E9-03B6F24551DE";
paths = (
{
closed = 1;
nodes = (
"817 0 LINE",
"817 130 LINE",
"539 130 LINE",
"539 339 LINE",
"746 339 LINE",
"746 469 LINE",
"539 469 LINE",
"539 670 LINE",
"817 670 LINE",
"817 800 LINE",
"302 800 LINE SMOOTH",
"132 800 OFFCURVE",
"65 744 OFFCURVE",
"65 608 CURVE SMOOTH",
"65 192 LINE SMOOTH",
"65 56 OFFCURVE",
"132 0 OFFCURVE",
"302 0 CURVE SMOOTH"
);
},
{
closed = 1;
nodes = (
"216 125 OFFCURVE",
"200 138 OFFCURVE",
"200 192 CURVE SMOOTH",
"200 608 LINE SMOOTH",
"200 662 OFFCURVE",
"216 675 OFFCURVE",
"302 675 CURVE SMOOTH",
"404 675 LINE",
"404 125 LINE",
"302 125 LINE SMOOTH"
);
}
);
width = 852;
},
{
associatedMasterId = "ADD356F3-6F8E-4A19-BEE8-38EF5CB52C35";
layerId = "9F149CE7-1EE8-4EDB-A28F-5CFDDB2D458D";
name = "Jun 4 20, 21:30";
paths = (
{
closed = 1;
nodes = (
"122 92 LINE",
"108 108 OFFCURVE",
"100 129 OFFCURVE",
"100 153 CURVE SMOOTH",
"100 491 LINE SMOOTH",
"100 514 OFFCURVE",
"103 529 OFFCURVE",
"112 539 CURVE SMOOTH",
"212 656 LINE",
"203 646 OFFCURVE",
"200 631 OFFCURVE",
"200 608 CURVE SMOOTH",
"200 192 LINE SMOOTH",
"200 188 OFFCURVE",
"200 184 OFFCURVE",
"200 180 CURVE"
);
},
{
closed = 1;
nodes = (
"439 351 LINE",
"539 469 LINE",
"539 670 LINE",
"439 552 LINE"
);
},
{
closed = 1;
nodes = (
"439 12 LINE",
"539 130 LINE",
"539 339 LINE",
"439 221 LINE"
);
},
{
closed = 1;
nodes = (
"817 670 LINE",
"817 800 LINE",
"707 670 LINE"
);
},
{
closed = 1;
nodes = (
"746 339 LINE",
"746 469 LINE",
"636 339 LINE"
);
},
{
closed = 1;
nodes = (
"817 0 LINE",
"817 130 LINE",
"707 0 LINE"
);
}
);
width = 1132;
}
);
unicode = "0152,0153";
},
{
glyphname = P;
lastChange = "2021-05-01 11:42:14 +0000";
layers = (
{
layerId = "8B2712DD-44AF-41AD-B0E9-03B6F24551DE";
paths = (
{
closed = 1;
nodes = (
"215 0 LINE",
"215 309 LINE",
"399 309 LINE SMOOTH",
"495 309 OFFCURVE",
"554 367 OFFCURVE",
"554 472 CURVE SMOOTH",
"554 649 LINE SMOOTH",
"554 756 OFFCURVE",
"510 800 OFFCURVE",
"399 800 CURVE SMOOTH",
"80 800 LINE",
"80 0 LINE"
);
},
{
closed = 1;
nodes = (
"215 670 LINE",
"355 670 LINE SMOOTH",
"406 670 OFFCURVE",
"419 654 OFFCURVE",
"419 609 CURVE SMOOTH",
"419 502 LINE SMOOTH",
"419 457 OFFCURVE",
"401 439 OFFCURVE",
"353 439 CURVE SMOOTH",
"215 439 LINE"
);
}
);
width = 594;
},
{
layerId = "ADD356F3-6F8E-4A19-BEE8-38EF5CB52C35";
paths = (
{
closed = 1;
nodes = (
"115 321 LINE",
"215 439 LINE",
"215 670 LINE",
"115 552 LINE"
);
},
{
closed = 1;
nodes = (
"115 0 LINE",
"215 0 LINE",
"215 308 LINE",
"115 190 LINE"
);
},
{
closed = 1;
nodes = (
"546 715 LINE",
"552 696 OFFCURVE",
"554 674 OFFCURVE",
"554 649 CURVE SMOOTH",
"554 472 LINE SMOOTH",
"554 367 OFFCURVE",
"495 309 OFFCURVE",
"399 309 CURVE SMOOTH",
"317 309 LINE",
"403 405 LINE SMOOTH",
"438 444 OFFCURVE",
"448 460 OFFCURVE",
"448 502 CURVE SMOOTH",
"448 610 LINE"
);
}
);
width = 594;
}
);
unicode = "0050,0070";
},
{
glyphname = Q;
lastChange = "2021-05-01 11:42:14 +0000";
layers = (
{
layerId = "8B2712DD-44AF-41AD-B0E9-03B6F24551DE";
paths = (
{
closed = 1;
nodes = (
"472 -10 OFFCURVE",
"539 46 OFFCURVE",
"539 182 CURVE SMOOTH",
"539 618 LINE SMOOTH",
"539 754 OFFCURVE",
"472 810 OFFCURVE",
"302 810 CURVE SMOOTH",
"132 810 OFFCURVE",
"65 754 OFFCURVE",
"65 618 CURVE SMOOTH",
"65 182 LINE SMOOTH",
"65 46 OFFCURVE",
"132 -10 OFFCURVE",
"302 -10 CURVE SMOOTH"
);
},
{
closed = 1;
nodes = (
"413 -105 LINE",
"359 17 LINE",
"225 17 LINE",
"272 -105 LINE"
);
},
{
closed = 1;
nodes = (
"216 125 OFFCURVE",
"200 138 OFFCURVE",
"200 192 CURVE SMOOTH",
"200 608 LINE SMOOTH",
"200 662 OFFCURVE",
"216 675 OFFCURVE",
"302 675 CURVE SMOOTH",
"388 675 OFFCURVE",
"404 662 OFFCURVE",
"404 608 CURVE SMOOTH",
"404 192 LINE SMOOTH",
"404 138 OFFCURVE",
"388 125 OFFCURVE",
"302 125 CURVE SMOOTH"
);
}
);
width = 604;
},
{
layerId = "ADD356F3-6F8E-4A19-BEE8-38EF5CB52C35";
paths = (
{
closed = 1;
nodes = (
"439 184 LINE SMOOTH",
"439 150 OFFCURVE",
"428 126 OFFCURVE",
"403 95 CURVE SMOOTH",
"286 -52 LINE",
"306 -105 LINE",
"413 -105 LINE",
"365 4 LINE",
"335 -9 LINE",
"481 -2 OFFCURVE",
"539 55 OFFCURVE",
"539 182 CURVE SMOOTH",
"539 618 LINE SMOOTH",
"539 655 OFFCURVE",
"534 687 OFFCURVE",
"523 712 CURVE",
"439 613 LINE"
);
},
{
closed = 1;
nodes = (
"122 92 LINE",
"108 108 OFFCURVE",
"100 129 OFFCURVE",
"100 153 CURVE SMOOTH",
"100 491 LINE SMOOTH",
"100 514 OFFCURVE",
"103 529 OFFCURVE",
"112 539 CURVE SMOOTH",
"212 656 LINE",
"203 646 OFFCURVE",
"200 631 OFFCURVE",
"200 608 CURVE SMOOTH",
"200 192 LINE SMOOTH",
"200 188 OFFCURVE",
"200 184 OFFCURVE",
"200 180 CURVE"
);
}
);
width = 604;
}
);
unicode = "0051,0071";
},
{
glyphname = R;
lastChange = "2021-05-01 11:42:14 +0000";
layers = (
{
layerId = "8B2712DD-44AF-41AD-B0E9-03B6F24551DE";
paths = (
{
closed = 1;
nodes = (
"215 0 LINE",
"215 316 LINE",
"355 316 LINE SMOOTH",
"406 316 OFFCURVE",
"419 300 OFFCURVE",
"419 255 CURVE SMOOTH",
"419 0 LINE",
"554 0 LINE",
"554 278 LINE SMOOTH",
"554 337 OFFCURVE",
"516 371 OFFCURVE",
"462 387 CURVE",
"518 399 OFFCURVE",
"554 437 OFFCURVE",
"554 499 CURVE SMOOTH",
"554 649 LINE SMOOTH",
"554 756 OFFCURVE",
"510 800 OFFCURVE",
"399 800 CURVE SMOOTH",
"80 800 LINE",
"80 0 LINE"
);
},
{
closed = 1;
nodes = (
"215 670 LINE",
"355 670 LINE SMOOTH",
"406 670 OFFCURVE",
"419 654 OFFCURVE",
"419 609 CURVE SMOOTH",
"419 502 LINE SMOOTH",
"419 457 OFFCURVE",
"401 439 OFFCURVE",
"353 439 CURVE SMOOTH",
"215 439 LINE"
);
}
);
width = 624;
},
{
layerId = "ADD356F3-6F8E-4A19-BEE8-38EF5CB52C35";
paths = (
{
closed = 1;
nodes = (
"115 321 LINE",
"215 439 LINE",
"215 670 LINE",
"115 552 LINE"
);
},
{
closed = 1;
nodes = (
"115 0 LINE",
"215 0 LINE",
"215 315 LINE",
"115 197 LINE"
);
},
{
closed = 1;
nodes = (
"454 0 LINE",
"554 0 LINE",
"554 278 LINE SMOOTH",
"554 298 OFFCURVE",
"549 317 OFFCURVE",
"540 333 CURVE",
"454 252 LINE"
);
},
{
closed = 1;
nodes = (
"546 715 LINE",
"552 696 OFFCURVE",
"554 674 OFFCURVE",
"554 649 CURVE SMOOTH",
"554 498 LINE SMOOTH",
"554 436 OFFCURVE",
"518 398 OFFCURVE",
"462 386 CURVE",
"377 388 LINE",
"418 433 LINE SMOOTH",
"436 453 OFFCURVE",
"448 471 OFFCURVE",
"448 502 CURVE SMOOTH",
"448 610 LINE"
);
}
);
width = 624;
}
);
unicode = "0052,0072";
},
{
glyphname = S;
lastChange = "2021-05-01 11:42:14 +0000";
layers = (
{
layerId = "8B2712DD-44AF-41AD-B0E9-03B6F24551DE";
paths = (
{
closed = 1;
nodes = (
"472 -10 OFFCURVE",
"539 46 OFFCURVE",
"539 182 CURVE SMOOTH",
"539 370 LINE SMOOTH",
"539 445 OFFCURVE",
"492 470 OFFCURVE",
"404 471 CURVE SMOOTH",
"243 472 LINE SMOOTH",
"210 472 OFFCURVE",
"200 477 OFFCURVE",
"200 515 CURVE SMOOTH",
"200 608 LINE SMOOTH",
"200 662 OFFCURVE",
"216 675 OFFCURVE",
"302 675 CURVE SMOOTH",
"384 675 OFFCURVE",
"400 662 OFFCURVE",
"400 608 CURVE SMOOTH",
"400 561 LINE",
"535 561 LINE",
"535 618 LINE SMOOTH",
"535 754 OFFCURVE",
"468 810 OFFCURVE",
"302 810 CURVE SMOOTH",
"132 810 OFFCURVE",
"65 754 OFFCURVE",
"65 618 CURVE SMOOTH",
"65 489 LINE SMOOTH",
"65 393 OFFCURVE",
"99 346 OFFCURVE",
"214 345 CURVE SMOOTH",
"352 344 LINE SMOOTH",
"394 344 OFFCURVE",
"404 331 OFFCURVE",
"404 294 CURVE SMOOTH",
"404 192 LINE SMOOTH",
"404 138 OFFCURVE",
"388 125 OFFCURVE",
"302 125 CURVE SMOOTH",
"216 125 OFFCURVE",
"200 138 OFFCURVE",
"200 192 CURVE SMOOTH",
"200 252 LINE",
"65 252 LINE",
"65 182 LINE SMOOTH",
"65 46 OFFCURVE",
"132 -10 OFFCURVE",
"302 -10 CURVE SMOOTH"
);
}
);
width = 604;
},
{
layerId = "ADD356F3-6F8E-4A19-BEE8-38EF5CB52C35";
paths = (
{
closed = 1;
nodes = (
"424 189 LINE SMOOTH",
"424 148 OFFCURVE",
"414 117 OFFCURVE",
"390 90 CURVE SMOOTH",
"302 -10 LINE",
"472 -10 OFFCURVE",
"539 46 OFFCURVE",
"539 182 CURVE SMOOTH",
"539 370 LINE SMOOTH",
"539 389 OFFCURVE",
"536 398 OFFCURVE",
"534 405 CURVE",
"424 267 LINE"
);
},
{
closed = 1;
nodes = (
"420 561 LINE",
"535 561 LINE",
"535 618 LINE SMOOTH",
"535 648 OFFCURVE",
"532 674 OFFCURVE",
"525 697 CURVE",
"420 594 LINE"
);
},
{
closed = 1;
nodes = (
"122 412 LINE",
"108 428 OFFCURVE",
"100 449 OFFCURVE",
"100 481 CURVE SMOOTH",
"100 506 OFFCURVE",
"103 529 OFFCURVE",
"112 539 CURVE SMOOTH",
"212 656 LINE",
"203 646 OFFCURVE",
"200 631 OFFCURVE",
"200 608 CURVE SMOOTH",
"200 503 LINE"
);
},
{
closed = 1;
nodes = (
"122 72 LINE",
"108 88 OFFCURVE",
"85 115 OFFCURVE",
"100 133 CURVE SMOOTH",
"200 252 LINE",
"200 192 LINE SMOOTH",
"200 180 OFFCURVE",
"201 170 OFFCURVE",
"203 162 CURVE"
);
}
);
width = 604;
}
);
unicode = "0053,0073";
},
{
glyphname = Germandbls;
lastChange = "2021-05-01 11:42:14 +0000";
layers = (
{
layerId = "ADD356F3-6F8E-4A19-BEE8-38EF5CB52C35";
paths = (
{
closed = 1;
nodes = (
"283 374 LINE",
"326 353 LINE",
"440 465 LINE",
"564 651 LINE",
"564 738 LINE",
"446 631 LINE"
);
},
{
closed = 1;
nodes = (
"480 117 LINE SMOOTH",
"480 54 OFFCURVE",
"452 3 OFFCURVE",
"393 -8 CURVE",
"511 -1 OFFCURVE",
"584 45 OFFCURVE",
"584 182 CURVE SMOOTH",
"584 319 LINE SMOOTH",
"584 356 OFFCURVE",
"580 375 OFFCURVE",
"568 400 CURVE",
"480 301 LINE"
);
},
{
closed = 1;
nodes = (
"100 0 LINE",
"100 464 LINE SMOOTH",
"100 487 OFFCURVE",
"103 502 OFFCURVE",
"112 512 CURVE SMOOTH",
"216 639 LINE",
"205 624 OFFCURVE",
"200 603 OFFCURVE",
"200 580 CURVE SMOOTH",
"200 0 LINE"
);
}
);
width = 649;
},
{
layerId = "8B2712DD-44AF-41AD-B0E9-03B6F24551DE";
paths = (
{
closed = 1;
nodes = (
"347 -10 LINE SMOOTH",
"517 -10 OFFCURVE",
"584 46 OFFCURVE",
"584 182 CURVE SMOOTH",
"584 324 LINE SMOOTH",
"584 421 OFFCURVE",
"530 465 OFFCURVE",
"440 465 CURVE",
"564 651 LINE",
"564 738 LINE",
"486 776 OFFCURVE",
"407 810 OFFCURVE",
"302 810 CURVE SMOOTH",
"150 810 OFFCURVE",
"65 744 OFFCURVE",
"65 608 CURVE SMOOTH",
"65 0 LINE",
"200 0 LINE",
"200 584 LINE SMOOTH",
"200 641 OFFCURVE",
"239 675 OFFCURVE",
"304 675 CURVE SMOOTH",
"343 675 OFFCURVE",
"376 666 OFFCURVE",
"413 645 CURVE",
"250 391 LINE",
"326 353 LINE",
"339 365 OFFCURVE",
"345 368 OFFCURVE",
"365 368 CURVE SMOOTH",
"431 368 OFFCURVE",
"449 348 OFFCURVE",
"449 294 CURVE SMOOTH",
"449 192 LINE SMOOTH",
"449 138 OFFCURVE",
"433 125 OFFCURVE",
"347 125 CURVE SMOOTH",
"241 125 LINE",
"241 -10 LINE"
);
}
);
width = 649;
}
);
unicode = "1E9E,00DF";
},
{
glyphname = T;
lastChange = "2021-05-01 11:42:14 +0000";
layers = (
{
layerId = "8B2712DD-44AF-41AD-B0E9-03B6F24551DE";
paths = (
{
closed = 1;
nodes = (
"302 0 LINE",
"302 670 LINE",
"469 670 LINE",
"469 800 LINE",
"0 800 LINE",
"0 670 LINE",
"167 670 LINE",
"167 0 LINE"
);
}
);
width = 469;
},
{
layerId = "ADD356F3-6F8E-4A19-BEE8-38EF5CB52C35";
paths = (
{
closed = 1;
nodes = (
"202 0 LINE",
"302 0 LINE",
"302 670 LINE",
"202 552 LINE"
);
},
{
closed = 1;
nodes = (
"469 670 LINE",
"469 800 LINE",
"359 670 LINE"
);
}
);
width = 469;
}
);
unicode = "0054,0074";
},
{
glyphname = U;
lastChange = "2021-05-01 11:42:14 +0000";
layers = (
{
anchors = (
{
name = top;
position = "{303, 800}";
}
);
layerId = "8B2712DD-44AF-41AD-B0E9-03B6F24551DE";
paths = (
{
closed = 1;
nodes = (
"468 -10 OFFCURVE",
"535 61 OFFCURVE",
"535 200 CURVE SMOOTH",
"535 800 LINE",
"400 800 LINE",
"400 209 LINE SMOOTH",
"400 152 OFFCURVE",
"384 123 OFFCURVE",
"303 123 CURVE SMOOTH",
"222 123 OFFCURVE",
"206 152 OFFCURVE",
"206 209 CURVE SMOOTH",
"206 800 LINE",
"71 800 LINE",
"71 200 LINE SMOOTH",
"71 61 OFFCURVE",
"138 -10 OFFCURVE",
"303 -10 CURVE SMOOTH"
);
}
);
width = 606;
},
{
anchors = (
{
name = top;
position = "{303, 800}";
}
);
layerId = "ADD356F3-6F8E-4A19-BEE8-38EF5CB52C35";
paths = (
{
closed = 1;
nodes = (
"435 165 LINE SMOOTH",
"435 105 OFFCURVE",
"417 51 OFFCURVE",
"348 -8 CURVE",
"482 5 OFFCURVE",
"535 76 OFFCURVE",
"535 200 CURVE SMOOTH",
"535 800 LINE",
"435 686 LINE"
);
},
{
closed = 1;
nodes = (
"128 92 LINE",
"114 108 OFFCURVE",
"106 129 OFFCURVE",
"106 153 CURVE SMOOTH",
"106 686 LINE",
"206 800 LINE",
"206 192 LINE SMOOTH",
"206 188 OFFCURVE",
"206 184 OFFCURVE",
"206 180 CURVE"
);
}
);
width = 606;
}
);
unicode = "0055,0075";
},
{
glyphname = Uacute;
lastChange = "2021-05-01 11:42:14 +0000";
layers = (
{
anchors = (
{
name = top;
position = "{303, 800}";
}
);
associatedMasterId = "8B2712DD-44AF-41AD-B0E9-03B6F24551DE";
layerId = "FAE3D2B0-9DA8-4C20-9D8B-514C04D95BB6";
name = "Jun 4 20, 22:27";
paths = (
{
closed = 1;
nodes = (
"400 209 LINE SMOOTH",
"400 152 OFFCURVE",
"384 123 OFFCURVE",
"303 123 CURVE SMOOTH",
"222 123 OFFCURVE",
"206 152 OFFCURVE",
"206 209 CURVE SMOOTH",
"206 800 LINE",
"71 800 LINE",
"71 200 LINE SMOOTH",
"71 61 OFFCURVE",
"138 -10 OFFCURVE",
"303 -10 CURVE SMOOTH",
"468 -10 OFFCURVE",
"535 61 OFFCURVE",
"535 200 CURVE SMOOTH",
"535 800 LINE",
"400 800 LINE"
);
},
{
closed = 1;
nodes = (
"296 687 LINE",
"402 924 LINE",
"292 924 LINE"
);
}
);
width = 606;
},
{
anchors = (
{
name = top;
position = "{303, 800}";
}
);
layerId = "8B2712DD-44AF-41AD-B0E9-03B6F24551DE";
paths = (
{
closed = 1;
nodes = (
"468 -10 OFFCURVE",
"535 61 OFFCURVE",
"535 200 CURVE SMOOTH",
"535 800 LINE",
"400 800 LINE",
"400 209 LINE SMOOTH",
"400 152 OFFCURVE",
"384 123 OFFCURVE",
"303 123 CURVE SMOOTH",
"222 123 OFFCURVE",
"206 152 OFFCURVE",
"206 209 CURVE SMOOTH",
"206 800 LINE",
"71 800 LINE",
"71 200 LINE SMOOTH",
"71 61 OFFCURVE",
"138 -10 OFFCURVE",
"303 -10 CURVE SMOOTH"
);
},
{
closed = 1;
nodes = (
"331 924 LINE",
"217 924 LINE",
"169 726 LINE",
"208 693 LINE"
);
}
);
width = 606;
},
{
anchors = (
{
name = top;
position = "{303, 800}";
}
);
associatedMasterId = "ADD356F3-6F8E-4A19-BEE8-38EF5CB52C35";
layerId = "A76F7D6C-3B04-4E95-9F03-3E93394008F8";
name = "Jun 4 20, 22:28";
paths = (
{
closed = 1;
nodes = (
"435 165 LINE SMOOTH",
"435 105 OFFCURVE",
"417 51 OFFCURVE",
"348 -8 CURVE",
"482 5 OFFCURVE",
"535 76 OFFCURVE",
"535 200 CURVE SMOOTH",
"535 800 LINE",
"435 686 LINE"
);
},
{
closed = 1;
nodes = (
"128 92 LINE",
"114 108 OFFCURVE",
"106 129 OFFCURVE",
"106 153 CURVE SMOOTH",
"106 686 LINE",
"206 800 LINE",
"206 192 LINE SMOOTH",
"206 188 OFFCURVE",
"206 184 OFFCURVE",
"206 180 CURVE"
);
},
{
closed = 1;
nodes = (
"311 791 LINE",
"310 720 LINE",
"402 924 LINE"
);
}
);
width = 606;
},
{
anchors = (
{
name = top;
position = "{303, 800}";
}
);
layerId = "ADD356F3-6F8E-4A19-BEE8-38EF5CB52C35";
paths = (
{
closed = 1;
nodes = (
"435 165 LINE SMOOTH",
"435 105 OFFCURVE",
"417 51 OFFCURVE",
"348 -8 CURVE",
"482 5 OFFCURVE",
"535 76 OFFCURVE",
"535 200 CURVE SMOOTH",
"535 800 LINE",
"435 686 LINE"
);
},
{
closed = 1;
nodes = (
"128 92 LINE",
"114 108 OFFCURVE",
"106 129 OFFCURVE",
"106 153 CURVE SMOOTH",
"106 641 LINE",
"331 924 LINE",
"206 689 LINE",
"206 192 LINE SMOOTH",
"206 188 OFFCURVE",
"206 184 OFFCURVE",
"206 180 CURVE"
);
}
);
width = 606;
},
{
anchors = (
{
name = top;
position = "{303, 800}";
}
);
associatedMasterId = "8B2712DD-44AF-41AD-B0E9-03B6F24551DE";
layerId = "7B55B012-ED8A-4004-81F6-A2A816302D58";
name = "Jun 4 20, 22:28";
paths = (
{
closed = 1;
nodes = (
"400 209 LINE SMOOTH",
"400 152 OFFCURVE",
"384 123 OFFCURVE",
"303 123 CURVE SMOOTH",
"222 123 OFFCURVE",
"206 152 OFFCURVE",
"206 209 CURVE SMOOTH",
"206 800 LINE",
"71 800 LINE",
"71 200 LINE SMOOTH",
"71 61 OFFCURVE",
"138 -10 OFFCURVE",
"303 -10 CURVE SMOOTH",
"468 -10 OFFCURVE",
"535 61 OFFCURVE",
"535 200 CURVE SMOOTH",
"535 800 LINE",
"400 800 LINE"
);
},
{
closed = 1;
nodes = (
"264 800 LINE",
"345 800 LINE",
"390 924 LINE",
"280 924 LINE"
);
}
);
width = 606;
},
{
anchors = (
{
name = top;
position = "{303, 800}";
}
);
associatedMasterId = "ADD356F3-6F8E-4A19-BEE8-38EF5CB52C35";
layerId = "46E17B18-00DC-45F8-A4E1-FA7DFCDB702A";
name = "Jun 4 20, 22:28";
paths = (
{
closed = 1;
nodes = (
"435 165 LINE SMOOTH",
"435 105 OFFCURVE",
"417 51 OFFCURVE",
"348 -8 CURVE",
"482 5 OFFCURVE",
"535 76 OFFCURVE",
"535 200 CURVE SMOOTH",
"535 800 LINE",
"435 686 LINE"
);
},
{
closed = 1;
nodes = (
"128 92 LINE",
"114 108 OFFCURVE",
"106 129 OFFCURVE",
"106 153 CURVE SMOOTH",
"106 686 LINE",
"206 800 LINE",
"206 192 LINE SMOOTH",
"206 188 OFFCURVE",
"206 184 OFFCURVE",
"206 180 CURVE"
);
},
{
closed = 1;
nodes = (
"287 786 LINE",
"273 707 LINE",
"345 800 LINE",
"390 924 LINE"
);
}
);
width = 606;
},
{
anchors = (
{
name = top;
position = "{303, 800}";
}
);
associatedMasterId = "8B2712DD-44AF-41AD-B0E9-03B6F24551DE";
layerId = "460D521E-3CAA-4DEE-8FD6-0D860C013F95";
name = "Jun 4 20, 22:32";
paths = (
{
closed = 1;
nodes = (
"400 209 LINE SMOOTH",
"400 152 OFFCURVE",
"384 123 OFFCURVE",
"303 123 CURVE SMOOTH",
"222 123 OFFCURVE",
"206 152 OFFCURVE",
"206 209 CURVE SMOOTH",
"206 800 LINE",
"71 800 LINE",
"71 200 LINE SMOOTH",
"71 61 OFFCURVE",
"138 -10 OFFCURVE",
"303 -10 CURVE SMOOTH",
"468 -10 OFFCURVE",
"535 61 OFFCURVE",
"535 200 CURVE SMOOTH",
"535 800 LINE",
"400 800 LINE"
);
},
{
closed = 1;
nodes = (
"269 706 LINE",
"309 706 LINE",
"395 924 LINE",
"285 924 LINE"
);
}
);
width = 606;
},
{
anchors = (
{
name = top;
position = "{303, 800}";
}
);
associatedMasterId = "ADD356F3-6F8E-4A19-BEE8-38EF5CB52C35";
layerId = "476CE6C8-B7B8-45D0-8302-57136DFF747E";
name = "Jun 4 20, 22:32";
paths = (
{
closed = 1;
nodes = (
"435 165 LINE SMOOTH",
"435 105 OFFCURVE",
"417 51 OFFCURVE",
"348 -8 CURVE",
"482 5 OFFCURVE",
"535 76 OFFCURVE",
"535 200 CURVE SMOOTH",
"535 800 LINE",
"435 686 LINE"
);
},
{
closed = 1;
nodes = (
"128 92 LINE",
"114 108 OFFCURVE",
"106 129 OFFCURVE",
"106 153 CURVE SMOOTH",
"106 686 LINE",
"206 800 LINE",
"206 192 LINE SMOOTH",
"206 188 OFFCURVE",
"206 184 OFFCURVE",
"206 180 CURVE"
);
},
{
closed = 1;
nodes = (
"300 786 LINE",
"292 706 LINE",
"309 706 LINE",
"395 924 LINE"
);
}
);
width = 606;
}
);
unicode = "00DA,00FA";
},
{
glyphname = Ucircumflex;
lastChange = "2021-05-01 11:42:14 +0000";
layers = (
{
anchors = (
{
name = top;
position = "{303, 800}";
}
);
layerId = "ADD356F3-6F8E-4A19-BEE8-38EF5CB52C35";
paths = (
{
closed = 1;
nodes = (
"435 165 LINE SMOOTH",
"435 105 OFFCURVE",
"417 51 OFFCURVE",
"348 -8 CURVE",
"482 5 OFFCURVE",
"535 76 OFFCURVE",
"535 200 CURVE SMOOTH",
"535 800 LINE",
"435 670 LINE"
);
},
{
closed = 1;
nodes = (
"327 879 LINE",
"392 745 LINE",
"434 800 LINE",
"377 924 LINE"
);
},
{
closed = 1;
nodes = (
"106 654 LINE",
"303 877 LINE",
"206 677 LINE",
"206 192 LINE",
"206 180 LINE",
"128 92 LINE",
"114 108 OFFCURVE",
"106 129 OFFCURVE",
"106 153 CURVE SMOOTH"
);
}
);
width = 606;
},
{
anchors = (
{
name = top;
position = "{303, 800}";
}
);
layerId = "8B2712DD-44AF-41AD-B0E9-03B6F24551DE";
paths = (
{
closed = 1;
nodes = (
"468 -10 OFFCURVE",
"535 61 OFFCURVE",
"535 200 CURVE SMOOTH",
"535 800 LINE",
"400 800 LINE",
"400 209 LINE SMOOTH",
"400 152 OFFCURVE",
"384 123 OFFCURVE",
"303 123 CURVE SMOOTH",
"222 123 OFFCURVE",
"206 152 OFFCURVE",
"206 209 CURVE SMOOTH",
"206 800 LINE",
"71 800 LINE",
"71 200 LINE SMOOTH",
"71 61 OFFCURVE",
"138 -10 OFFCURVE",
"303 -10 CURVE SMOOTH"
);
},
{
closed = 1;
nodes = (
"434 800 LINE",
"377 924 LINE",
"231 924 LINE",
"185 800 LINE",
"206 676 LINE",
"303 877 LINE",
"401 673 LINE"
);
}
);
width = 606;
}
);
unicode = "00DB,00FB";
},
{
glyphname = Udieresis;
lastChange = "2021-05-01 11:42:14 +0000";
layers = (
{
anchors = (
{
name = top;
position = "{303, 800}";
}
);
layerId = "ADD356F3-6F8E-4A19-BEE8-38EF5CB52C35";
paths = (
{
closed = 1;
nodes = (
"435 165 LINE SMOOTH",
"435 105 OFFCURVE",
"417 51 OFFCURVE",
"348 -8 CURVE",
"482 5 OFFCURVE",
"535 76 OFFCURVE",
"535 200 CURVE SMOOTH",
"535 800 LINE",
"435 678 LINE"
);
},
{
closed = 1;
nodes = (
"400 790 LINE",
"400 770 LINE",
"435 800 LINE",
"435 894 LINE",
"350 790 LINE"
);
},
{
closed = 1;
nodes = (
"106 640 LINE",
"275 894 LINE",
"275 790 LINE",
"206 790 LINE",
"206 192 LINE",
"206 180 LINE",
"128 92 LINE",
"114 108 OFFCURVE",
"106 129 OFFCURVE",
"106 153 CURVE SMOOTH"
);
}
);
width = 606;
},
{
anchors = (
{
name = top;
position = "{303, 800}";
}
);
layerId = "8B2712DD-44AF-41AD-B0E9-03B6F24551DE";
paths = (
{
closed = 1;
nodes = (
"468 -10 OFFCURVE",
"535 61 OFFCURVE",
"535 200 CURVE SMOOTH",
"535 800 LINE",
"400 800 LINE",
"400 209 LINE SMOOTH",
"400 152 OFFCURVE",
"384 123 OFFCURVE",
"303 123 CURVE SMOOTH",
"222 123 OFFCURVE",
"206 152 OFFCURVE",
"206 209 CURVE SMOOTH",
"206 800 LINE",
"71 800 LINE",
"71 200 LINE SMOOTH",
"71 61 OFFCURVE",
"138 -10 OFFCURVE",
"303 -10 CURVE SMOOTH"
);
},
{
closed = 1;
nodes = (
"275 790 LINE",
"275 894 LINE",
"173 894 LINE",
"173 790 LINE"
);
},
{
closed = 1;
nodes = (
"435 790 LINE",
"435 894 LINE",
"333 894 LINE",
"333 790 LINE"
);
}
);
width = 606;
}
);
unicode = "00DC,00FC";
},
{
glyphname = Ugrave;
lastChange = "2021-05-01 11:42:14 +0000";
layers = (
{
anchors = (
{
name = top;
position = "{303, 800}";
}
);
layerId = "ADD356F3-6F8E-4A19-BEE8-38EF5CB52C35";
paths = (
{
closed = 1;
nodes = (
"435 165 LINE SMOOTH",
"435 105 OFFCURVE",
"417 51 OFFCURVE",
"348 -8 CURVE",
"482 5 OFFCURVE",
"535 76 OFFCURVE",
"535 200 CURVE SMOOTH",
"535 800 LINE",
"435 686 LINE"
);
},
{
closed = 1;
nodes = (
"128 92 LINE",
"114 108 OFFCURVE",
"106 129 OFFCURVE",
"106 153 CURVE SMOOTH",
"106 686 LINE",
"206 800 LINE",
"206 192 LINE SMOOTH",
"206 188 OFFCURVE",
"206 184 OFFCURVE",
"206 180 CURVE"
);
},
{
closed = 1;
nodes = (
"340 853 LINE",
"388 761 LINE",
"421 800 LINE",
"391 924 LINE"
);
}
);
width = 600;
},
{
components = (
{
name = U;
}
);
layerId = "8B2712DD-44AF-41AD-B0E9-03B6F24551DE";
paths = (
{
closed = 1;
nodes = (
"439 726 LINE",
"391 924 LINE",
"277 924 LINE",
"400 693 LINE"
);
}
);
width = 600;
}
);
unicode = "00D9,00F9";
},
{
glyphname = V;
lastChange = "2021-05-01 11:42:14 +0000";
layers = (
{
layerId = "8B2712DD-44AF-41AD-B0E9-03B6F24551DE";
paths = (
{
closed = 1;
nodes = (
"307 0 LINE",
"516 800 LINE",
"388 800 LINE",
"255 271 LINE",
"122 800 LINE",
"-6 800 LINE",
"203 0 LINE"
);
}
);
width = 510;
},
{
layerId = "ADD356F3-6F8E-4A19-BEE8-38EF5CB52C35";
paths = (
{
closed = 1;
nodes = (
"235 73 LINE",
"307 0 LINE",
"516 800 LINE",
"391 675 LINE"
);
},
{
closed = 1;
nodes = (
"211 107 LINE",
"255 271 LINE",
"122 800 LINE",
"50 719 LINE"
);
}
);
width = 510;
}
);
unicode = "0056,0076";
},
{
glyphname = W;
lastChange = "2021-05-01 11:42:14 +0000";
layers = (
{
layerId = "8B2712DD-44AF-41AD-B0E9-03B6F24551DE";
paths = (
{
closed = 1;
nodes = (
"264 0 LINE",
"372 465 LINE",
"480 0 LINE",
"581 0 LINE",
"730 800 LINE",
"602 800 LINE",
"529 331 LINE",
"429 800 LINE",
"315 800 LINE",
"215 331 LINE",
"142 800 LINE",
"12 800 LINE",
"161 0 LINE"
);
}
);
width = 742;
},
{
layerId = "ADD356F3-6F8E-4A19-BEE8-38EF5CB52C35";
paths = (
{
closed = 1;
nodes = (
"520 69 LINE",
"581 0 LINE",
"730 800 LINE",
"620 697 LINE"
);
},
{
closed = 1;
nodes = (
"491 114 LINE",
"529 333 LINE",
"429 800 LINE",
"348 697 LINE"
);
},
{
closed = 1;
nodes = (
"265 0 LINE",
"372 465 LINE",
"358 520 LINE",
"255 355 LINE",
"196 70 LINE"
);
},
{
closed = 1;
nodes = (
"173 114 LINE",
"215 333 LINE",
"142 800 LINE",
"64 698 LINE"
);
}
);
width = 742;
}
);
unicode = "0057,0077";
},
{
glyphname = X;
lastChange = "2021-05-01 11:42:14 +0000";
layers = (
{
layerId = "8B2712DD-44AF-41AD-B0E9-03B6F24551DE";
paths = (
{
closed = 1;
nodes = (
"514 0 LINE",
"174 800 LINE",
"19 800 LINE",
"359 0 LINE"
);
},
{
closed = 1;
nodes = (
"165 0 LINE",
"505 800 LINE",
"350 800 LINE",
"10 0 LINE"
);
}
);
width = 525;
},
{
layerId = "ADD356F3-6F8E-4A19-BEE8-38EF5CB52C35";
paths = (
{
closed = 1;
nodes = (
"225 413 LINE",
"398 0 LINE",
"515 0 LINE",
"340 412 LINE",
"505 800 LINE",
"337 679 LINE"
);
},
{
closed = 1;
nodes = (
"165 0 LINE",
"262 228 LINE",
"121 163 LINE",
"51 0 LINE"
);
},
{
closed = 1;
nodes = (
"263 592 LINE",
"175 800 LINE",
"97 705 LINE",
"204 454 LINE"
);
}
);
width = 525;
}
);
unicode = "0058,0078";
},
{
glyphname = Y;
lastChange = "2021-05-01 11:42:14 +0000";
layers = (
{
anchors = (
{
name = top;
position = "{243, 800}";
}
);
layerId = "8B2712DD-44AF-41AD-B0E9-03B6F24551DE";
paths = (
{
closed = 1;
nodes = (
"310 0 LINE",
"310 391 LINE",
"499 800 LINE",
"347 800 LINE",
"243 553 LINE",
"139 800 LINE",
"-13 800 LINE",
"176 391 LINE",
"176 0 LINE"
);
}
);
width = 486;
},
{
anchors = (
{
name = top;
position = "{243, 800}";
}
);
layerId = "ADD356F3-6F8E-4A19-BEE8-38EF5CB52C35";
paths = (
{
closed = 1;
nodes = (
"211 391 LINE",
"211 0 LINE",
"310 0 LINE",
"310 391 LINE",
"499 800 LINE",
"334 680 LINE"
);
},
{
closed = 1;
nodes = (
"243 553 LINE",
"139 800 LINE",
"71 693 LINE",
"193 439 LINE"
);
}
);
width = 486;
},
{
associatedMasterId = "8B2712DD-44AF-41AD-B0E9-03B6F24551DE";
layerId = "FF136811-3D52-4B98-9A19-FAAB4EEB2D1C";
name = "May 19 20, 22:06";
paths = (
{
closed = 1;
nodes = (
"179 0 LINE",
"333 0 LINE",
"333 391 LINE",
"512 800 LINE",
"357 800 LINE",
"256 563 LINE",
"155 800 LINE",
"0 800 LINE",
"179 391 LINE"
);
}
);
width = 600;
}
);
unicode = "0059,0079";
},
{
glyphname = Ydieresis;
lastChange = "2021-05-01 11:42:14 +0000";
layers = (
{
anchors = (
{
name = top;
position = "{243, 800}";
}
);
layerId = "ADD356F3-6F8E-4A19-BEE8-38EF5CB52C35";
paths = (
{
closed = 1;
nodes = (
"211 391 LINE",
"211 0 LINE",
"310 0 LINE",
"310 391 LINE",
"499 800 LINE",
"306 612 LINE"
);
},
{
closed = 1;
nodes = (
"342 790 LINE",
"323 740 LINE",
"375 800 LINE",
"375 894 LINE",
"290 790 LINE"
);
},
{
closed = 1;
nodes = (
"193 439 LINE",
"243 553 LINE",
"143 790 LINE",
"215 790 LINE",
"215 894 LINE",
"71 693 LINE"
);
}
);
width = 486;
},
{
anchors = (
{
name = top;
position = "{243, 800}";
}
);
layerId = "8B2712DD-44AF-41AD-B0E9-03B6F24551DE";
paths = (
{
closed = 1;
nodes = (
"310 0 LINE",
"310 391 LINE",
"499 800 LINE",
"347 800 LINE",
"243 553 LINE",
"139 800 LINE",
"-13 800 LINE",
"176 391 LINE",
"176 0 LINE"
);
},
{
closed = 1;
nodes = (
"215 790 LINE",
"215 894 LINE",
"113 894 LINE",
"113 790 LINE"
);
},
{
closed = 1;
nodes = (
"375 790 LINE",
"375 894 LINE",
"273 894 LINE",
"273 790 LINE"
);
}
);
width = 486;
}
);
unicode = "0178,00FF";
},
{
glyphname = Z;
lastChange = "2021-05-01 11:42:14 +0000";
layers = (
{
layerId = "8B2712DD-44AF-41AD-B0E9-03B6F24551DE";
paths = (
{
closed = 1;
nodes = (
"195 130 LINE",
"455 670 LINE",
"298 670 LINE",
"38 130 LINE"
);
},
{
closed = 1;
nodes = (
"455 0 LINE",
"455 130 LINE",
"38 130 LINE",
"38 0 LINE"
);
},
{
closed = 1;
nodes = (
"455 670 LINE",
"455 800 LINE",
"38 800 LINE",
"38 670 LINE"
);
}
);
width = 492;
},
{
layerId = "ADD356F3-6F8E-4A19-BEE8-38EF5CB52C35";
paths = (
{
closed = 1;
nodes = (
"195 130 LINE",
"455 670 LINE",
"455 800 LINE",
"342 671 LINE",
"76 126 LINE",
"76 14 LINE"
);
},
{
closed = 1;
nodes = (
"455 0 LINE",
"455 130 LINE",
"312 0 LINE"
);
}
);
width = 492;
}
);
unicode = "005A,007A";
},
{
glyphname = zero;
lastChange = "2021-05-01 11:42:14 +0000";
layers = (
{
layerId = "8B2712DD-44AF-41AD-B0E9-03B6F24551DE";
paths = (
{
closed = 1;
nodes = (
"463 -10 OFFCURVE",
"530 46 OFFCURVE",
"530 182 CURVE SMOOTH",
"530 618 LINE SMOOTH",
"530 754 OFFCURVE",
"463 810 OFFCURVE",
"297 810 CURVE SMOOTH",
"131 810 OFFCURVE",
"64 754 OFFCURVE",
"64 618 CURVE SMOOTH",
"64 182 LINE SMOOTH",
"64 46 OFFCURVE",
"131 -10 OFFCURVE",
"297 -10 CURVE SMOOTH"
);
},
{
closed = 1;
nodes = (
"215 125 OFFCURVE",
"199 138 OFFCURVE",
"199 192 CURVE SMOOTH",
"199 608 LINE SMOOTH",
"199 662 OFFCURVE",
"215 675 OFFCURVE",
"297 675 CURVE SMOOTH",
"379 675 OFFCURVE",
"395 662 OFFCURVE",
"395 608 CURVE SMOOTH",
"395 192 LINE SMOOTH",
"395 138 OFFCURVE",
"379 125 OFFCURVE",
"297 125 CURVE SMOOTH"
);
}
);
width = 596;
},
{
layerId = "ADD356F3-6F8E-4A19-BEE8-38EF5CB52C35";
paths = (
{
closed = 1;
nodes = (
"431 185 LINE SMOOTH",
"431 92 OFFCURVE",
"391 33 OFFCURVE",
"331 -10 CURVE",
"473 -3 OFFCURVE",
"531 58 OFFCURVE",
"531 185 CURVE SMOOTH",
"531 621 LINE SMOOTH",
"531 658 OFFCURVE",
"526 690 OFFCURVE",
"515 715 CURVE",
"431 616 LINE"
);
},
{
closed = 1;
nodes = (
"122 92 LINE",
"108 108 OFFCURVE",
"100 129 OFFCURVE",
"100 153 CURVE SMOOTH",
"100 491 LINE SMOOTH",
"100 514 OFFCURVE",
"103 529 OFFCURVE",
"112 539 CURVE SMOOTH",
"212 656 LINE",
"203 646 OFFCURVE",
"200 638 OFFCURVE",
"200 615 CURVE SMOOTH",
"200 199 LINE SMOOTH",
"200 195 OFFCURVE",
"200 184 OFFCURVE",
"200 180 CURVE"
);
}
);
width = 596;
}
);
unicode = 0030;
},
{
glyphname = one;
lastChange = "2021-05-01 11:42:14 +0000";
layers = (
{
layerId = "8B2712DD-44AF-41AD-B0E9-03B6F24551DE";
paths = (
{
closed = 1;
nodes = (
"256 0 LINE",
"256 800 LINE",
"121 800 LINE",
"121 0 LINE"
);
},
{
closed = 1;
nodes = (
"159 670 LINE",
"159 800 LINE",
"22 800 LINE",
"22 670 LINE"
);
}
);
width = 336;
},
{
layerId = "ADD356F3-6F8E-4A19-BEE8-38EF5CB52C35";
paths = (
{
closed = 1;
nodes = (
"156 0 LINE",
"256 0 LINE",
"256 800 LINE",
"156 671 LINE"
);
}
);
width = 336;
},
{
associatedMasterId = "ADD356F3-6F8E-4A19-BEE8-38EF5CB52C35";
layerId = "232BF557-E31E-4EA0-989B-87FA4F419A8C";
name = "May 21 20, 19:53";
paths = (
{
closed = 1;
nodes = (
"115 0 LINE",
"215 0 LINE",
"215 813 LINE",
"115 685 LINE"
);
}
);
width = 295;
},
{
associatedMasterId = "8B2712DD-44AF-41AD-B0E9-03B6F24551DE";
layerId = "D91C18B7-A094-43B1-9107-9315FEFBDDF1";
name = "May 21 20, 19:53";
paths = (
{
closed = 1;
nodes = (
"80 0 LINE",
"215 0 LINE",
"215 813 LINE",
"80 753 LINE"
);
}
);
width = 295;
}
);
unicode = 0031;
},
{
glyphname = two;
lastChange = "2021-05-01 11:42:14 +0000";
layers = (
{
layerId = "8B2712DD-44AF-41AD-B0E9-03B6F24551DE";
paths = (
{
closed = 1;
nodes = (
"503 0 LINE",
"503 130 LINE",
"217 130 LINE",
"403 330 LINE SMOOTH",
"479 412 OFFCURVE",
"512 463 OFFCURVE",
"512 552 CURVE SMOOTH",
"512 618 LINE SMOOTH",
"512 754 OFFCURVE",
"445 810 OFFCURVE",
"275 810 CURVE SMOOTH",
"109 810 OFFCURVE",
"42 754 OFFCURVE",
"42 618 CURVE SMOOTH",
"42 538 LINE",
"177 538 LINE",
"177 608 LINE SMOOTH",
"177 662 OFFCURVE",
"193 675 OFFCURVE",
"275 675 CURVE SMOOTH",
"361 675 OFFCURVE",
"377 662 OFFCURVE",
"377 608 CURVE SMOOTH",
"377 562 LINE SMOOTH",
"377 522 OFFCURVE",
"360 487 OFFCURVE",
"326 449 CURVE SMOOTH",
"42 135 LINE",
"42 0 LINE"
);
}
);
width = 575;
},
{
layerId = "ADD356F3-6F8E-4A19-BEE8-38EF5CB52C35";
paths = (
{
closed = 1;
nodes = (
"412 567 LINE SMOOTH",
"412 514 OFFCURVE",
"394 476 OFFCURVE",
"352 429 CURVE SMOOTH",
"75 122 LINE",
"75 0 LINE",
"97 0 LINE",
"403 330 LINE SMOOTH",
"480 413 OFFCURVE",
"512 464 OFFCURVE",
"512 552 CURVE SMOOTH",
"512 618 LINE SMOOTH",
"512 655 OFFCURVE",
"507 687 OFFCURVE",
"496 712 CURVE",
"412 613 LINE"
);
},
{
closed = 1;
nodes = (
"89 538 LINE",
"189 656 LINE",
"180 646 OFFCURVE",
"177 631 OFFCURVE",
"177 608 CURVE SMOOTH",
"177 538 LINE"
);
},
{
closed = 1;
nodes = (
"503 0 LINE",
"503 130 LINE",
"360 0 LINE"
);
}
);
width = 575;
}
);
unicode = 0032;
},
{
glyphname = three;
lastChange = "2021-05-01 11:42:14 +0000";
layers = (
{
associatedMasterId = "8B2712DD-44AF-41AD-B0E9-03B6F24551DE";
layerId = "82385CBF-20AA-482E-8AE2-CDCBCE646B69";
name = "May 21 20, 17:59";
paths = (
{
closed = 1;
nodes = (
"69 46 OFFCURVE",
"136 -10 OFFCURVE",
"302 -10 CURVE SMOOTH",
"472 -10 OFFCURVE",
"539 46 OFFCURVE",
"539 182 CURVE SMOOTH",
"539 304 LINE SMOOTH",
"539 401 OFFCURVE",
"482 458 OFFCURVE",
"367 465 CURVE",
"531 665 LINE",
"531 800 LINE",
"85 800 LINE",
"85 665 LINE",
"375 665 LINE",
"189 443 LINE",
"225 338 LINE",
"245 344 OFFCURVE",
"270 348 OFFCURVE",
"302 348 CURVE SMOOTH",
"388 348 OFFCURVE",
"404 328 OFFCURVE",
"404 274 CURVE SMOOTH",
"404 192 LINE SMOOTH",
"404 138 OFFCURVE",
"388 125 OFFCURVE",
"302 125 CURVE SMOOTH",
"220 125 OFFCURVE",
"204 138 OFFCURVE",
"204 192 CURVE SMOOTH",
"204 245 LINE",
"69 245 LINE",
"69 182 LINE SMOOTH"
);
}
);
width = 600;
},
{
associatedMasterId = "ADD356F3-6F8E-4A19-BEE8-38EF5CB52C35";
layerId = "D2A80168-40A3-4F1D-8A4B-6151516BD3C9";
name = "May 21 20, 18:16";
paths = (
{
closed = 1;
nodes = (
"232 355 LINE",
"254 374 OFFCURVE",
"292 380 OFFCURVE",
"326 378 CURVE",
"385 485 LINE",
"531 665 LINE",
"531 800 LINE",
"444 665 LINE",
"199 436 LINE"
);
},
{
closed = 1;
nodes = (
"435 117 LINE SMOOTH",
"435 54 OFFCURVE",
"407 3 OFFCURVE",
"348 -8 CURVE",
"466 -1 OFFCURVE",
"539 45 OFFCURVE",
"539 182 CURVE SMOOTH",
"539 299 LINE SMOOTH",
"539 336 OFFCURVE",
"535 355 OFFCURVE",
"523 380 CURVE",
"435 237 LINE"
);
},
{
closed = 1;
nodes = (
"146 39 LINE",
"117 59 OFFCURVE",
"97 96 OFFCURVE",
"96 125 CURVE",
"204 237 LINE",
"204 192 LINE SMOOTH",
"204 160 OFFCURVE",
"212 142 OFFCURVE",
"231 134 CURVE"
);
}
);
width = 600;
},
{
layerId = "ADD356F3-6F8E-4A19-BEE8-38EF5CB52C35";
paths = (
{
closed = 1;
nodes = (
"198 375 LINE",
"241 353 LINE",
"345 465 LINE",
"491 716 LINE",
"491 800 LINE",
"369 670 LINE"
);
},
{
closed = 1;
nodes = (
"395 117 LINE SMOOTH",
"395 54 OFFCURVE",
"367 3 OFFCURVE",
"308 -8 CURVE",
"426 -1 OFFCURVE",
"499 45 OFFCURVE",
"499 182 CURVE SMOOTH",
"499 319 LINE SMOOTH",
"499 356 OFFCURVE",
"495 375 OFFCURVE",
"483 400 CURVE",
"395 301 LINE"
);
},
{
closed = 1;
nodes = (
"110 42 LINE",
"81 62 OFFCURVE",
"61 98 OFFCURVE",
"60 127 CURVE",
"164 237 LINE",
"164 192 LINE SMOOTH",
"164 160 OFFCURVE",
"172 142 OFFCURVE",
"191 134 CURVE"
);
}
);
width = 556;
},
{
associatedMasterId = "8B2712DD-44AF-41AD-B0E9-03B6F24551DE";
layerId = "5A5C81FD-3A75-455F-B726-5BA3BCDC059A";
name = "May 21 20, 18:16";
paths = (
{
closed = 1;
nodes = (
"69 46 OFFCURVE",
"136 -10 OFFCURVE",
"302 -10 CURVE SMOOTH",
"472 -10 OFFCURVE",
"539 46 OFFCURVE",
"539 182 CURVE SMOOTH",
"539 334 LINE SMOOTH",
"539 431 OFFCURVE",
"478 478 OFFCURVE",
"385 485 CURVE",
"531 665 LINE",
"531 800 LINE",
"85 800 LINE",
"85 665 LINE",
"409 665 LINE",
"163 441 LINE",
"232 355 LINE",
"245 366 OFFCURVE",
"266 378 OFFCURVE",
"310 378 CURVE SMOOTH",
"386 378 OFFCURVE",
"404 358 OFFCURVE",
"404 304 CURVE SMOOTH",
"404 192 LINE SMOOTH",
"404 138 OFFCURVE",
"388 125 OFFCURVE",
"302 125 CURVE SMOOTH",
"220 125 OFFCURVE",
"204 138 OFFCURVE",
"204 192 CURVE SMOOTH",
"204 245 LINE",
"69 245 LINE",
"69 182 LINE SMOOTH"
);
}
);
width = 600;
},
{
layerId = "8B2712DD-44AF-41AD-B0E9-03B6F24551DE";
paths = (
{
closed = 1;
nodes = (
"432 -10 OFFCURVE",
"499 46 OFFCURVE",
"499 182 CURVE SMOOTH",
"499 324 LINE SMOOTH",
"499 421 OFFCURVE",
"435 462 OFFCURVE",
"345 465 CURVE",
"491 716 LINE",
"491 800 LINE",
"49 800 LINE",
"49 665 LINE",
"325 665 LINE",
"165 391 LINE",
"241 353 LINE",
"254 365 OFFCURVE",
"260 368 OFFCURVE",
"280 368 CURVE SMOOTH",
"346 368 OFFCURVE",
"364 348 OFFCURVE",
"364 294 CURVE SMOOTH",
"364 192 LINE SMOOTH",
"364 138 OFFCURVE",
"348 125 OFFCURVE",
"262 125 CURVE SMOOTH",
"180 125 OFFCURVE",
"164 138 OFFCURVE",
"164 192 CURVE SMOOTH",
"164 245 LINE",
"29 245 LINE",
"29 182 LINE SMOOTH",
"29 46 OFFCURVE",
"96 -10 OFFCURVE",
"262 -10 CURVE SMOOTH"
);
}
);
width = 556;
},
{
associatedMasterId = "ADD356F3-6F8E-4A19-BEE8-38EF5CB52C35";
layerId = "203384D5-403C-49CF-89F0-8BADE94219F0";
name = "May 21 20, 18:16";
paths = (
{
closed = 1;
nodes = (
"269 350 LINE",
"385 455 LINE",
"531 681 LINE",
"531 800 LINE",
"443 724 LINE",
"229 394 LINE"
);
},
{
closed = 1;
nodes = (
"435 117 LINE SMOOTH",
"435 54 OFFCURVE",
"407 3 OFFCURVE",
"348 -8 CURVE",
"466 -1 OFFCURVE",
"539 45 OFFCURVE",
"539 182 CURVE SMOOTH",
"539 299 LINE SMOOTH",
"539 336 OFFCURVE",
"535 355 OFFCURVE",
"523 380 CURVE",
"435 287 LINE"
);
},
{
closed = 1;
nodes = (
"146 39 LINE",
"117 59 OFFCURVE",
"97 96 OFFCURVE",
"96 125 CURVE",
"204 237 LINE",
"204 192 LINE SMOOTH",
"204 160 OFFCURVE",
"212 142 OFFCURVE",
"231 134 CURVE"
);
}
);
width = 600;
},
{
associatedMasterId = "8B2712DD-44AF-41AD-B0E9-03B6F24551DE";
layerId = "A21DCB62-327F-4D4E-818A-B20464EB5B1F";
name = "May 21 20, 18:16";
paths = (
{
closed = 1;
nodes = (
"69 46 OFFCURVE",
"136 -10 OFFCURVE",
"302 -10 CURVE SMOOTH",
"472 -10 OFFCURVE",
"539 46 OFFCURVE",
"539 182 CURVE SMOOTH",
"539 304 LINE SMOOTH",
"539 401 OFFCURVE",
"478 448 OFFCURVE",
"385 455 CURVE",
"531 681 LINE",
"531 800 LINE",
"85 800 LINE",
"85 665 LINE",
"377 665 LINE",
"203 398 LINE",
"265 328 LINE",
"278 339 OFFCURVE",
"296 348 OFFCURVE",
"320 348 CURVE SMOOTH",
"386 348 OFFCURVE",
"404 328 OFFCURVE",
"404 274 CURVE SMOOTH",
"404 192 LINE SMOOTH",
"404 138 OFFCURVE",
"388 125 OFFCURVE",
"302 125 CURVE SMOOTH",
"220 125 OFFCURVE",
"204 138 OFFCURVE",
"204 192 CURVE SMOOTH",
"204 245 LINE",
"69 245 LINE",
"69 182 LINE SMOOTH"
);
}
);
width = 600;
},
{
associatedMasterId = "ADD356F3-6F8E-4A19-BEE8-38EF5CB52C35";
layerId = "38F245C5-2ED5-4D33-87CB-AC978AEAD62B";
name = "May 21 20, 19:46";
paths = (
{
closed = 1;
nodes = (
"226 348 LINE",
"265 328 LINE",
"385 445 LINE",
"531 716 LINE",
"531 800 LINE",
"402 676 LINE"
);
},
{
closed = 1;
nodes = (
"435 117 LINE SMOOTH",
"435 54 OFFCURVE",
"407 3 OFFCURVE",
"348 -8 CURVE",
"466 -1 OFFCURVE",
"539 45 OFFCURVE",
"539 182 CURVE SMOOTH",
"539 299 LINE SMOOTH",
"539 336 OFFCURVE",
"535 355 OFFCURVE",
"523 380 CURVE",
"435 281 LINE"
);
},
{
closed = 1;
nodes = (
"146 39 LINE",
"117 59 OFFCURVE",
"101 98 OFFCURVE",
"100 127 CURVE",
"204 237 LINE",
"204 192 LINE SMOOTH",
"204 160 OFFCURVE",
"212 142 OFFCURVE",
"231 134 CURVE"
);
}
);
width = 600;
},
{
associatedMasterId = "8B2712DD-44AF-41AD-B0E9-03B6F24551DE";
layerId = "9A2D6681-27D4-47FD-9B6D-B96BB2B83C52";
name = "May 21 20, 19:46";
paths = (
{
closed = 1;
nodes = (
"69 46 OFFCURVE",
"136 -10 OFFCURVE",
"302 -10 CURVE SMOOTH",
"472 -10 OFFCURVE",
"539 46 OFFCURVE",
"539 182 CURVE SMOOTH",
"539 304 LINE SMOOTH",
"539 401 OFFCURVE",
"475 442 OFFCURVE",
"385 445 CURVE",
"531 716 LINE",
"531 800 LINE",
"85 800 LINE",
"85 665 LINE",
"365 665 LINE",
"203 358 LINE",
"265 328 LINE",
"278 339 OFFCURVE",
"296 348 OFFCURVE",
"320 348 CURVE SMOOTH",
"386 348 OFFCURVE",
"404 328 OFFCURVE",
"404 274 CURVE SMOOTH",
"404 192 LINE SMOOTH",
"404 138 OFFCURVE",
"388 125 OFFCURVE",
"302 125 CURVE SMOOTH",
"220 125 OFFCURVE",
"204 138 OFFCURVE",
"204 192 CURVE SMOOTH",
"204 245 LINE",
"69 245 LINE",
"69 182 LINE SMOOTH"
);
}
);
width = 600;
},
{
associatedMasterId = "ADD356F3-6F8E-4A19-BEE8-38EF5CB52C35";
layerId = "D83585F5-9164-4586-9539-4D3DC14EA774";
name = "Jun 4 20, 21:25";
paths = (
{
closed = 1;
nodes = (
"189 360 LINE",
"241 333 LINE",
"345 445 LINE",
"491 716 LINE",
"491 800 LINE",
"362 676 LINE"
);
},
{
closed = 1;
nodes = (
"395 117 LINE SMOOTH",
"395 54 OFFCURVE",
"367 3 OFFCURVE",
"308 -8 CURVE",
"426 -1 OFFCURVE",
"499 45 OFFCURVE",
"499 182 CURVE SMOOTH",
"499 299 LINE SMOOTH",
"499 336 OFFCURVE",
"495 355 OFFCURVE",
"483 380 CURVE",
"395 281 LINE"
);
},
{
closed = 1;
nodes = (
"106 39 LINE",
"77 59 OFFCURVE",
"61 98 OFFCURVE",
"60 127 CURVE",
"164 237 LINE",
"164 192 LINE SMOOTH",
"164 160 OFFCURVE",
"172 142 OFFCURVE",
"191 134 CURVE"
);
}
);
width = 556;
},
{
associatedMasterId = "8B2712DD-44AF-41AD-B0E9-03B6F24551DE";
layerId = "2D0529BC-C813-4787-B28B-3C6DEF814EEE";
name = "Jun 4 20, 21:25";
paths = (
{
closed = 1;
nodes = (
"29 46 OFFCURVE",
"96 -10 OFFCURVE",
"262 -10 CURVE SMOOTH",
"432 -10 OFFCURVE",
"499 46 OFFCURVE",
"499 182 CURVE SMOOTH",
"499 304 LINE SMOOTH",
"499 401 OFFCURVE",
"435 442 OFFCURVE",
"345 445 CURVE",
"491 716 LINE",
"491 800 LINE",
"49 800 LINE",
"49 665 LINE",
"325 665 LINE",
"165 371 LINE",
"241 333 LINE",
"254 345 OFFCURVE",
"260 348 OFFCURVE",
"280 348 CURVE SMOOTH",
"346 348 OFFCURVE",
"364 328 OFFCURVE",
"364 274 CURVE SMOOTH",
"364 192 LINE SMOOTH",
"364 138 OFFCURVE",
"348 125 OFFCURVE",
"262 125 CURVE SMOOTH",
"180 125 OFFCURVE",
"164 138 OFFCURVE",
"164 192 CURVE SMOOTH",
"164 245 LINE",
"29 245 LINE",
"29 182 LINE SMOOTH"
);
}
);
width = 556;
}
);
unicode = 0033;
},
{
glyphname = four;
lastChange = "2021-05-01 11:42:14 +0000";
layers = (
{
layerId = "8B2712DD-44AF-41AD-B0E9-03B6F24551DE";
paths = (
{
closed = 1;
nodes = (
"164 305 LINE",
"369 800 LINE",
"234 800 LINE",
"29 305 LINE"
);
},
{
closed = 1;
nodes = (
"574 175 LINE",
"574 305 LINE",
"29 305 LINE",
"29 175 LINE"
);
},
{
closed = 1;
nodes = (
"456 0 LINE",
"456 800 LINE",
"321 800 LINE",
"321 0 LINE"
);
}
);
width = 589;
},
{
layerId = "ADD356F3-6F8E-4A19-BEE8-38EF5CB52C35";
paths = (
{
closed = 1;
nodes = (
"356 185 LINE",
"456 305 LINE",
"456 800 LINE",
"356 680 LINE"
);
},
{
closed = 1;
nodes = (
"574 175 LINE",
"574 305 LINE",
"473 175 LINE"
);
},
{
closed = 1;
nodes = (
"358 0 LINE",
"456 0 LINE",
"456 175 LINE",
"358 50 LINE"
);
},
{
closed = 1;
nodes = (
"171 487 LINE",
"42 183 LINE",
"164 305 LINE",
"321 684 LINE"
);
}
);
width = 589;
},
{
associatedMasterId = "ADD356F3-6F8E-4A19-BEE8-38EF5CB52C35";
layerId = "79D7CA11-7782-4948-9404-D40183BB5DFA";
name = "May 21 20, 11:55";
paths = (
{
closed = 1;
nodes = (
"360 175 LINE",
"460 305 LINE",
"460 800 LINE",
"360 670 LINE"
);
},
{
closed = 1;
nodes = (
"578 175 LINE",
"578 305 LINE",
"480 175 LINE"
);
},
{
closed = 1;
nodes = (
"362 0 LINE",
"460 0 LINE",
"460 175 LINE",
"362 45 LINE"
);
},
{
closed = 1;
nodes = (
"72 175 LINE",
"168 305 LINE",
"325 305 LINE",
"225 175 LINE"
);
},
{
closed = 1;
nodes = (
"133 446 LINE",
"74 305 LINE",
"72 175 LINE",
"168 305 LINE",
"325 684 LINE"
);
}
);
width = 600;
}
);
unicode = 0034;
},
{
glyphname = five;
lastChange = "2021-05-01 11:42:14 +0000";
layers = (
{
layerId = "8B2712DD-44AF-41AD-B0E9-03B6F24551DE";
paths = (
{
closed = 1;
nodes = (
"453 -10 OFFCURVE",
"520 46 OFFCURVE",
"520 182 CURVE SMOOTH",
"520 321 LINE SMOOTH",
"520 418 OFFCURVE",
"463 482 OFFCURVE",
"306 482 CURVE SMOOTH",
"269 482 OFFCURVE",
"237 478 OFFCURVE",
"207 469 CURVE",
"227 670 LINE",
"511 670 LINE",
"511 800 LINE",
"107 800 LINE",
"70 355 LINE",
"188 326 LINE",
"213 352 OFFCURVE",
"232 364 OFFCURVE",
"283 364 CURVE SMOOTH",
"369 364 OFFCURVE",
"385 344 OFFCURVE",
"385 290 CURVE SMOOTH",
"385 192 LINE SMOOTH",
"385 138 OFFCURVE",
"369 125 OFFCURVE",
"283 125 CURVE SMOOTH",
"201 125 OFFCURVE",
"185 139 OFFCURVE",
"185 192 CURVE SMOOTH",
"185 237 LINE",
"50 237 LINE",
"50 182 LINE SMOOTH",
"50 46 OFFCURVE",
"117 -10 OFFCURVE",
"283 -10 CURVE SMOOTH"
);
}
);
width = 571;
},
{
layerId = "ADD356F3-6F8E-4A19-BEE8-38EF5CB52C35";
paths = (
{
closed = 1;
nodes = (
"416 117 LINE SMOOTH",
"416 54 OFFCURVE",
"388 3 OFFCURVE",
"329 -8 CURVE",
"447 -1 OFFCURVE",
"520 45 OFFCURVE",
"520 182 CURVE SMOOTH",
"520 314 LINE SMOOTH",
"520 351 OFFCURVE",
"516 373 OFFCURVE",
"504 398 CURVE",
"416 295 LINE"
);
},
{
closed = 1;
nodes = (
"127 39 LINE",
"98 59 OFFCURVE",
"82 98 OFFCURVE",
"81 127 CURVE",
"185 237 LINE",
"185 192 LINE SMOOTH",
"185 160 OFFCURVE",
"193 142 OFFCURVE",
"212 134 CURVE"
);
},
{
closed = 1;
nodes = (
"511 670 LINE",
"511 800 LINE",
"386 670 LINE"
);
},
{
closed = 1;
nodes = (
"105 378 LINE",
"207 469 LINE",
"227 670 LINE",
"121 554 LINE"
);
}
);
width = 571;
},
{
associatedMasterId = "ADD356F3-6F8E-4A19-BEE8-38EF5CB52C35";
layerId = "4B83C405-59F1-4C5D-8B2E-1EC343AEC4E6";
name = "May 21 20, 15:07";
paths = (
{
closed = 1;
nodes = (
"435 137 LINE SMOOTH",
"435 64 OFFCURVE",
"427 29 OFFCURVE",
"368 -6 CURVE",
"472 7 OFFCURVE",
"539 45 OFFCURVE",
"539 182 CURVE SMOOTH",
"539 314 LINE SMOOTH",
"539 351 OFFCURVE",
"535 373 OFFCURVE",
"523 398 CURVE",
"435 295 LINE"
);
},
{
closed = 1;
nodes = (
"146 39 LINE",
"117 59 OFFCURVE",
"98 101 OFFCURVE",
"97 130 CURVE",
"204 237 LINE",
"204 192 LINE SMOOTH",
"204 160 OFFCURVE",
"212 142 OFFCURVE",
"231 134 CURVE"
);
},
{
closed = 1;
nodes = (
"530 670 LINE",
"530 800 LINE",
"415 670 LINE"
);
},
{
closed = 1;
nodes = (
"117 405 LINE",
"148 376 LINE",
"226 469 LINE",
"246 670 LINE",
"129 526 LINE"
);
}
);
width = 600;
},
{
associatedMasterId = "8B2712DD-44AF-41AD-B0E9-03B6F24551DE";
layerId = "0E54F64B-1612-4AB5-96E9-6EDA3EFCAA59";
name = "May 21 20, 15:07";
paths = (
{
closed = 1;
nodes = (
"69 46 OFFCURVE",
"136 -10 OFFCURVE",
"302 -10 CURVE SMOOTH",
"472 -10 OFFCURVE",
"539 46 OFFCURVE",
"539 182 CURVE SMOOTH",
"539 321 LINE SMOOTH",
"539 418 OFFCURVE",
"482 482 OFFCURVE",
"325 482 CURVE SMOOTH",
"288 482 OFFCURVE",
"256 478 OFFCURVE",
"226 469 CURVE",
"246 670 LINE",
"530 670 LINE",
"530 800 LINE",
"126 800 LINE",
"92 427 LINE",
"189 335 LINE",
"213 351 OFFCURVE",
"251 364 OFFCURVE",
"302 364 CURVE SMOOTH",
"388 364 OFFCURVE",
"404 344 OFFCURVE",
"404 290 CURVE SMOOTH",
"404 192 LINE SMOOTH",
"404 138 OFFCURVE",
"388 125 OFFCURVE",
"302 125 CURVE SMOOTH",
"220 125 OFFCURVE",
"204 139 OFFCURVE",
"204 192 CURVE SMOOTH",
"204 237 LINE",
"69 237 LINE",
"69 182 LINE SMOOTH"
);
}
);
width = 600;
}
);
unicode = 0035;
},
{
glyphname = six;
lastChange = "2021-05-01 11:42:14 +0000";
layers = (
{
layerId = "8B2712DD-44AF-41AD-B0E9-03B6F24551DE";
paths = (
{
closed = 1;
nodes = (
"472 -10 OFFCURVE",
"539 46 OFFCURVE",
"539 182 CURVE SMOOTH",
"539 276 LINE SMOOTH",
"539 412 OFFCURVE",
"472 468 OFFCURVE",
"320 468 CURVE SMOOTH",
"263 468 OFFCURVE",
"229 460 OFFCURVE",
"200 447 CURVE",
"200 613 LINE SMOOTH",
"200 667 OFFCURVE",
"216 680 OFFCURVE",
"302 680 CURVE SMOOTH",
"388 680 OFFCURVE",
"404 667 OFFCURVE",
"404 613 CURVE SMOOTH",
"404 544 LINE",
"539 544 LINE",
"539 618 LINE SMOOTH",
"539 754 OFFCURVE",
"472 810 OFFCURVE",
"302 810 CURVE SMOOTH",
"132 810 OFFCURVE",
"65 754 OFFCURVE",
"65 618 CURVE SMOOTH",
"65 182 LINE SMOOTH",
"65 46 OFFCURVE",
"132 -10 OFFCURVE",
"302 -10 CURVE SMOOTH"
);
},
{
closed = 1;
nodes = (
"216 120 OFFCURVE",
"200 133 OFFCURVE",
"200 187 CURVE SMOOTH",
"200 271 LINE SMOOTH",
"200 325 OFFCURVE",
"216 338 OFFCURVE",
"302 338 CURVE SMOOTH",
"388 338 OFFCURVE",
"404 325 OFFCURVE",
"404 271 CURVE SMOOTH",
"404 187 LINE SMOOTH",
"404 133 OFFCURVE",
"388 120 OFFCURVE",
"302 120 CURVE SMOOTH"
);
}
);
width = 604;
},
{
layerId = "ADD356F3-6F8E-4A19-BEE8-38EF5CB52C35";
paths = (
{
closed = 1;
nodes = (
"439 182 LINE SMOOTH",
"439 89 OFFCURVE",
"399 34 OFFCURVE",
"335 -9 CURVE",
"481 -2 OFFCURVE",
"539 55 OFFCURVE",
"539 182 CURVE SMOOTH",
"539 278 LINE SMOOTH",
"539 315 OFFCURVE",
"534 347 OFFCURVE",
"523 372 CURVE",
"439 273 LINE"
);
},
{
closed = 1;
nodes = (
"122 92 LINE",
"108 108 OFFCURVE",
"100 129 OFFCURVE",
"100 153 CURVE SMOOTH",
"100 175 OFFCURVE",
"102 192 OFFCURVE",
"112 204 CURVE SMOOTH",
"212 321 LINE",
"203 311 OFFCURVE",
"200 296 OFFCURVE",
"200 273 CURVE SMOOTH",
"200 192 LINE SMOOTH",
"200 188 OFFCURVE",
"200 184 OFFCURVE",
"200 180 CURVE"
);
},
{
closed = 1;
nodes = (
"100 328 LINE",
"100 501 LINE SMOOTH",
"100 524 OFFCURVE",
"103 539 OFFCURVE",
"112 549 CURVE SMOOTH",
"212 666 LINE",
"203 656 OFFCURVE",
"200 641 OFFCURVE",
"200 618 CURVE SMOOTH",
"200 447 LINE"
);
},
{
closed = 1;
nodes = (
"439 544 LINE",
"539 544 LINE",
"539 618 LINE SMOOTH",
"539 655 OFFCURVE",
"534 687 OFFCURVE",
"523 712 CURVE",
"439 613 LINE"
);
}
);
width = 604;
}
);
unicode = 0036;
},
{
glyphname = seven;
lastChange = "2021-05-01 11:42:14 +0000";
layers = (
{
layerId = "8B2712DD-44AF-41AD-B0E9-03B6F24551DE";
paths = (
{
closed = 1;
nodes = (
"235 0 LINE",
"464 670 LINE",
"464 800 LINE",
"31 800 LINE",
"31 670 LINE",
"312 670 LINE",
"81 0 LINE"
);
}
);
width = 497;
},
{
layerId = "ADD356F3-6F8E-4A19-BEE8-38EF5CB52C35";
paths = (
{
closed = 1;
nodes = (
"235 0 LINE",
"464 670 LINE",
"464 800 LINE",
"351 671 LINE",
"117 0 LINE"
);
}
);
width = 497;
}
);
unicode = 0037;
},
{
glyphname = eight;
lastChange = "2021-05-01 11:42:14 +0000";
layers = (
{
layerId = "8B2712DD-44AF-41AD-B0E9-03B6F24551DE";
paths = (
{
closed = 1;
nodes = (
"464 -10 OFFCURVE",
"531 46 OFFCURVE",
"531 182 CURVE SMOOTH",
"531 276 LINE SMOOTH",
"531 339 OFFCURVE",
"501 374 OFFCURVE",
"458 401 CURVE",
"501 427 OFFCURVE",
"531 462 OFFCURVE",
"531 525 CURVE SMOOTH",
"531 618 LINE SMOOTH",
"531 754 OFFCURVE",
"464 810 OFFCURVE",
"298 810 CURVE SMOOTH",
"132 810 OFFCURVE",
"65 754 OFFCURVE",
"65 618 CURVE SMOOTH",
"65 525 LINE SMOOTH",
"65 462 OFFCURVE",
"95 427 OFFCURVE",
"138 401 CURVE",
"95 374 OFFCURVE",
"65 339 OFFCURVE",
"65 276 CURVE SMOOTH",
"65 182 LINE SMOOTH",
"65 46 OFFCURVE",
"132 -10 OFFCURVE",
"298 -10 CURVE SMOOTH"
);
},
{
closed = 1;
nodes = (
"216 120 OFFCURVE",
"200 133 OFFCURVE",
"200 187 CURVE SMOOTH",
"200 271 LINE SMOOTH",
"200 325 OFFCURVE",
"216 338 OFFCURVE",
"298 338 CURVE SMOOTH",
"380 338 OFFCURVE",
"396 325 OFFCURVE",
"396 271 CURVE SMOOTH",
"396 187 LINE SMOOTH",
"396 133 OFFCURVE",
"380 120 OFFCURVE",
"298 120 CURVE SMOOTH"
);
},
{
closed = 1;
nodes = (
"216 463 OFFCURVE",
"200 476 OFFCURVE",
"200 530 CURVE SMOOTH",
"200 613 LINE SMOOTH",
"200 667 OFFCURVE",
"216 680 OFFCURVE",
"298 680 CURVE SMOOTH",
"380 680 OFFCURVE",
"396 667 OFFCURVE",
"396 613 CURVE SMOOTH",
"396 530 LINE SMOOTH",
"396 476 OFFCURVE",
"380 463 OFFCURVE",
"298 463 CURVE SMOOTH"
);
}
);
width = 600;
},
{
guideLines = (
{
position = "{194, 627}";
}
);
layerId = "ADD356F3-6F8E-4A19-BEE8-38EF5CB52C35";
paths = (
{
closed = 1;
nodes = (
"424 192 LINE SMOOTH",
"424 139 OFFCURVE",
"414 112 OFFCURVE",
"302 -10 CURVE",
"484 -4 OFFCURVE",
"531 58 OFFCURVE",
"531 185 CURVE SMOOTH",
"531 267 LINE SMOOTH",
"531 304 OFFCURVE",
"529 321 OFFCURVE",
"515 344 CURVE",
"424 242 LINE"
);
},
{
closed = 1;
nodes = (
"431 545 LINE SMOOTH",
"431 512 OFFCURVE",
"416 483 OFFCURVE",
"369 458 CURVE",
"458 401 LINE",
"515 436 OFFCURVE",
"531 477 OFFCURVE",
"531 526 CURVE SMOOTH",
"531 634 LINE SMOOTH",
"531 664 OFFCURVE",
"524 696 OFFCURVE",
"513 719 CURVE",
"432 623 LINE"
);
},
{
closed = 1;
nodes = (
"164 421 LINE",
"111 447 OFFCURVE",
"86 510 OFFCURVE",
"106 534 CURVE SMOOTH",
"212 661 LINE",
"203 651 OFFCURVE",
"200 634 OFFCURVE",
"200 616 CURVE SMOOTH",
"200 530 LINE SMOOTH",
"200 490 OFFCURVE",
"211 480 OFFCURVE",
"224 473 CURVE"
);
},
{
closed = 1;
nodes = (
"157 55 LINE",
"107 85 OFFCURVE",
"99 170 OFFCURVE",
"108 195 CURVE",
"212 320 LINE",
"203 310 OFFCURVE",
"200 293 OFFCURVE",
"200 275 CURVE SMOOTH",
"200 189 LINE SMOOTH",
"200 149 OFFCURVE",
"211 139 OFFCURVE",
"224 132 CURVE"
);
}
);
width = 600;
},
{
associatedMasterId = "8B2712DD-44AF-41AD-B0E9-03B6F24551DE";
layerId = "DB861CEC-45FB-47D1-826F-559959742390";
name = "May 21 20, 11:22";
paths = (
{
closed = 1;
nodes = (
"65 525 LINE SMOOTH",
"65 389 OFFCURVE",
"132 333 OFFCURVE",
"298 333 CURVE SMOOTH",
"464 333 OFFCURVE",
"531 389 OFFCURVE",
"531 525 CURVE SMOOTH",
"531 618 LINE SMOOTH",
"531 754 OFFCURVE",
"464 810 OFFCURVE",
"298 810 CURVE SMOOTH",
"132 810 OFFCURVE",
"65 754 OFFCURVE",
"65 618 CURVE SMOOTH"
);
},
{
closed = 1;
nodes = (
"396 535 LINE SMOOTH",
"396 481 OFFCURVE",
"380 468 OFFCURVE",
"298 468 CURVE SMOOTH",
"216 468 OFFCURVE",
"200 481 OFFCURVE",
"200 535 CURVE SMOOTH",
"200 608 LINE SMOOTH",
"200 662 OFFCURVE",
"216 675 OFFCURVE",
"298 675 CURVE SMOOTH",
"380 675 OFFCURVE",
"396 662 OFFCURVE",
"396 608 CURVE SMOOTH"
);
},
{
closed = 1;
nodes = (
"65 182 LINE SMOOTH",
"65 46 OFFCURVE",
"132 -10 OFFCURVE",
"298 -10 CURVE SMOOTH",
"464 -10 OFFCURVE",
"531 46 OFFCURVE",
"531 182 CURVE SMOOTH",
"531 276 LINE SMOOTH",
"531 412 OFFCURVE",
"464 468 OFFCURVE",
"298 468 CURVE SMOOTH",
"132 468 OFFCURVE",
"65 412 OFFCURVE",
"65 276 CURVE SMOOTH"
);
},
{
closed = 1;
nodes = (
"396 192 LINE SMOOTH",
"396 138 OFFCURVE",
"380 125 OFFCURVE",
"298 125 CURVE SMOOTH",
"216 125 OFFCURVE",
"200 138 OFFCURVE",
"200 192 CURVE SMOOTH",
"200 266 LINE SMOOTH",
"200 320 OFFCURVE",
"216 333 OFFCURVE",
"298 333 CURVE SMOOTH",
"380 333 OFFCURVE",
"396 320 OFFCURVE",
"396 266 CURVE SMOOTH"
);
}
);
width = 600;
},
{
associatedMasterId = "ADD356F3-6F8E-4A19-BEE8-38EF5CB52C35";
layerId = "6D939646-DB24-44AF-A25D-1722A1BDD72B";
name = "May 29 20, 20:57";
paths = (
{
closed = 1;
nodes = (
"424 192 LINE SMOOTH",
"424 139 OFFCURVE",
"414 112 OFFCURVE",
"302 -10 CURVE",
"484 -4 OFFCURVE",
"531 58 OFFCURVE",
"531 185 CURVE SMOOTH",
"531 267 LINE SMOOTH",
"531 304 OFFCURVE",
"529 321 OFFCURVE",
"515 344 CURVE",
"424 242 LINE"
);
},
{
closed = 1;
nodes = (
"122 92 LINE",
"108 108 OFFCURVE",
"100 129 OFFCURVE",
"100 153 CURVE SMOOTH",
"100 176 OFFCURVE",
"103 191 OFFCURVE",
"112 201 CURVE SMOOTH",
"212 318 LINE",
"203 308 OFFCURVE",
"200 296 OFFCURVE",
"200 277 CURVE SMOOTH",
"200 199 LINE SMOOTH",
"200 195 OFFCURVE",
"200 184 OFFCURVE",
"200 180 CURVE"
);
},
{
closed = 1;
nodes = (
"423 537 LINE SMOOTH",
"423 503 OFFCURVE",
"403 469 OFFCURVE",
"285 340 CURVE",
"340 341 OFFCURVE",
"375 334 OFFCURVE",
"387 315 CURVE",
"458 401 LINE",
"515 436 OFFCURVE",
"531 477 OFFCURVE",
"531 526 CURVE SMOOTH",
"531 634 LINE SMOOTH",
"531 664 OFFCURVE",
"524 696 OFFCURVE",
"513 719 CURVE",
"424 615 LINE"
);
},
{
closed = 1;
nodes = (
"122 435 LINE",
"108 451 OFFCURVE",
"100 472 OFFCURVE",
"100 496 CURVE SMOOTH",
"100 519 OFFCURVE",
"103 534 OFFCURVE",
"112 544 CURVE SMOOTH",
"212 661 LINE",
"203 651 OFFCURVE",
"200 639 OFFCURVE",
"200 620 CURVE SMOOTH",
"200 542 LINE SMOOTH",
"200 538 OFFCURVE",
"200 527 OFFCURVE",
"200 523 CURVE"
);
}
);
width = 600;
}
);
unicode = 0038;
},
{
glyphname = nine;
lastChange = "2021-05-01 11:42:14 +0000";
layers = (
{
layerId = "8B2712DD-44AF-41AD-B0E9-03B6F24551DE";
paths = (
{
closed = 1;
nodes = (
"472 -10 OFFCURVE",
"539 46 OFFCURVE",
"539 182 CURVE SMOOTH",
"539 618 LINE SMOOTH",
"539 754 OFFCURVE",
"472 810 OFFCURVE",
"302 810 CURVE SMOOTH",
"132 810 OFFCURVE",
"65 754 OFFCURVE",
"65 618 CURVE SMOOTH",
"65 503 LINE SMOOTH",
"65 367 OFFCURVE",
"132 311 OFFCURVE",
"284 311 CURVE SMOOTH",
"341 311 OFFCURVE",
"375 319 OFFCURVE",
"404 332 CURVE",
"404 187 LINE SMOOTH",
"404 133 OFFCURVE",
"388 120 OFFCURVE",
"302 120 CURVE SMOOTH",
"216 120 OFFCURVE",
"200 133 OFFCURVE",
"200 187 CURVE SMOOTH",
"200 226 LINE",
"65 226 LINE",
"65 182 LINE SMOOTH",
"65 46 OFFCURVE",
"132 -10 OFFCURVE",
"302 -10 CURVE SMOOTH"
);
},
{
closed = 1;
nodes = (
"216 441 OFFCURVE",
"200 454 OFFCURVE",
"200 508 CURVE SMOOTH",
"200 613 LINE SMOOTH",
"200 667 OFFCURVE",
"216 680 OFFCURVE",
"302 680 CURVE SMOOTH",
"388 680 OFFCURVE",
"404 667 OFFCURVE",
"404 613 CURVE SMOOTH",
"404 508 LINE SMOOTH",
"404 454 OFFCURVE",
"388 441 OFFCURVE",
"302 441 CURVE SMOOTH"
);
}
);
width = 600;
},
{
layerId = "ADD356F3-6F8E-4A19-BEE8-38EF5CB52C35";
paths = (
{
closed = 1;
nodes = (
"150 37 LINE",
"121 57 OFFCURVE",
"97 96 OFFCURVE",
"96 125 CURVE",
"199 226 LINE",
"199 187 LINE SMOOTH",
"199 155 OFFCURVE",
"207 137 OFFCURVE",
"226 129 CURVE"
);
},
{
closed = 1;
nodes = (
"438 185 LINE SMOOTH",
"438 92 OFFCURVE",
"398 33 OFFCURVE",
"338 -10 CURVE",
"480 -3 OFFCURVE",
"538 58 OFFCURVE",
"538 185 CURVE SMOOTH",
"538 621 LINE SMOOTH",
"538 658 OFFCURVE",
"533 690 OFFCURVE",
"522 715 CURVE",
"438 616 LINE"
);
},
{
closed = 1;
nodes = (
"122 401 LINE",
"108 417 OFFCURVE",
"100 438 OFFCURVE",
"100 462 CURVE SMOOTH",
"100 497 LINE SMOOTH",
"100 520 OFFCURVE",
"103 535 OFFCURVE",
"112 545 CURVE SMOOTH",
"212 662 LINE",
"203 652 OFFCURVE",
"200 638 OFFCURVE",
"200 615 CURVE SMOOTH",
"200 508 LINE SMOOTH",
"200 504 OFFCURVE",
"200 493 OFFCURVE",
"200 489 CURVE"
);
}
);
width = 600;
}
);
unicode = 0039;
},
{
glyphname = fraction;
lastChange = "2021-05-01 11:42:14 +0000";
layers = (
{
layerId = "ADD356F3-6F8E-4A19-BEE8-38EF5CB52C35";
paths = (
{
closed = 1;
nodes = (
"58 73 LINE",
"130 0 LINE",
"390 800 LINE",
"265 675 LINE"
);
}
);
width = 395;
},
{
layerId = "8B2712DD-44AF-41AD-B0E9-03B6F24551DE";
paths = (
{
closed = 1;
nodes = (
"130 0 LINE",
"390 800 LINE",
"265 800 LINE",
"5 0 LINE"
);
}
);
width = 395;
}
);
unicode = 2044;
},
{
glyphname = .notdef;
lastChange = "2021-05-01 11:42:14 +0000";
layers = (
{
layerId = "ADD356F3-6F8E-4A19-BEE8-38EF5CB52C35";
paths = (
{
closed = 1;
nodes = (
"769 0 LINE",
"769 81 LINE",
"220 81 LINE",
"220 0 LINE"
);
},
{
closed = 1;
nodes = (
"21 0 LINE",
"21 11 LINE",
"10 11 LINE",
"10 0 LINE"
);
},
{
closed = 1;
nodes = (
"51 0 LINE",
"51 36 LINE",
"85 36 LINE",
"85 45 LINE",
"51 45 LINE",
"51 75 LINE",
"101 75 LINE",
"101 81 LINE",
"44 81 LINE",
"44 0 LINE"
);
},
{
closed = 1;
nodes = (
"129 0 LINE",
"129 34 LINE",
"184 34 LINE",
"184 0 LINE",
"191 0 LINE",
"191 41 LINE",
"166 41 LINE",
"166 81 LINE",
"121 81 LINE",
"121 0 LINE"
);
},
{
closed = 1;
nodes = (
"129 75 LINE",
"159 75 LINE",
"159 41 LINE",
"129 41 LINE"
);
},
{
closed = 1;
nodes = (
"59 124 LINE",
"59 149 LINE",
"71 149 LINE",
"71 174 LINE",
"85 174 LINE",
"85 199 LINE",
"96 199 LINE",
"96 205 LINE",
"75 205 LINE",
"75 181 LINE",
"64 181 LINE",
"64 156 LINE",
"46 156 LINE",
"46 181 LINE",
"35 181 LINE",
"35 205 LINE",
"15 205 LINE",
"15 199 LINE",
"26 199 LINE",
"26 174 LINE",
"39 174 LINE",
"39 149 LINE",
"51 149 LINE",
"51 124 LINE"
);
},
{
closed = 1;
nodes = (
"171 124 LINE",
"171 131 LINE",
"121 131 LINE",
"121 161 LINE",
"155 161 LINE",
"155 169 LINE",
"121 169 LINE",
"121 199 LINE",
"171 199 LINE",
"171 205 LINE",
"114 205 LINE",
"114 124 LINE"
);
},
{
closed = 1;
nodes = (
"71 246 LINE",
"71 255 LINE",
"26 255 LINE",
"26 321 LINE",
"71 321 LINE",
"71 329 LINE",
"19 329 LINE",
"19 246 LINE"
);
},
{
closed = 1;
nodes = (
"254 124 LINE",
"254 131 LINE",
"204 131 LINE",
"204 205 LINE",
"195 205 LINE",
"195 124 LINE"
);
},
{
closed = 1;
nodes = (
"155 246 LINE",
"155 329 LINE",
"91 329 LINE",
"91 246 LINE"
);
},
{
closed = 1;
nodes = (
"101 321 LINE",
"145 321 LINE",
"145 255 LINE",
"101 255 LINE"
);
},
{
closed = 1;
nodes = (
"285 124 LINE",
"285 149 LINE",
"299 149 LINE",
"299 174 LINE",
"311 174 LINE",
"311 199 LINE",
"324 199 LINE",
"324 205 LINE",
"301 205 LINE",
"301 181 LINE",
"290 181 LINE",
"290 156 LINE",
"274 156 LINE",
"274 181 LINE",
"261 181 LINE",
"261 205 LINE",
"241 205 LINE",
"241 199 LINE",
"254 199 LINE",
"254 174 LINE",
"265 174 LINE",
"265 149 LINE",
"279 149 LINE",
"279 124 LINE"
);
},
{
closed = 1;
nodes = (
"26 371 LINE",
"26 409 LINE",
"59 409 LINE",
"59 415 LINE",
"26 415 LINE",
"26 445 LINE",
"75 445 LINE",
"75 454 LINE",
"19 454 LINE",
"19 371 LINE"
);
},
{
closed = 1;
nodes = (
"186 246 LINE",
"186 321 LINE",
"195 321 LINE",
"195 296 LINE",
"209 296 LINE",
"209 271 LINE",
"220 271 LINE",
"220 246 LINE",
"245 246 LINE",
"245 329 LINE",
"236 329 LINE",
"236 255 LINE",
"229 255 LINE",
"229 280 LINE",
"215 280 LINE",
"215 305 LINE",
"204 305 LINE",
"204 329 LINE",
"179 329 LINE",
"179 246 LINE"
);
},
{
closed = 1;
nodes = (
"396 124 LINE",
"396 131 LINE",
"349 131 LINE",
"349 161 LINE",
"381 161 LINE",
"381 169 LINE",
"349 169 LINE",
"349 199 LINE",
"396 199 LINE",
"396 205 LINE",
"339 205 LINE",
"339 124 LINE"
);
},
{
closed = 1;
nodes = (
"155 371 LINE",
"155 454 LINE",
"91 454 LINE",
"91 371 LINE"
);
},
{
closed = 1;
nodes = (
"101 445 LINE",
"145 445 LINE",
"145 379 LINE",
"101 379 LINE"
);
},
{
closed = 1;
nodes = (
"295 246 LINE",
"295 321 LINE",
"324 321 LINE",
"324 329 LINE",
"256 329 LINE",
"256 321 LINE",
"285 321 LINE",
"285 246 LINE"
);
},
{
closed = 1;
nodes = (
"91 495 LINE",
"91 576 LINE",
"85 576 LINE",
"85 501 LINE",
"59 501 LINE",
"59 549 LINE",
"51 549 LINE",
"51 501 LINE",
"26 501 LINE",
"26 576 LINE",
"19 576 LINE",
"19 495 LINE"
);
},
{
closed = 1;
nodes = (
"451 124 LINE",
"451 199 LINE",
"479 199 LINE",
"479 205 LINE",
"414 205 LINE",
"414 199 LINE",
"441 199 LINE",
"441 124 LINE"
);
},
{
closed = 1;
nodes = (
"186 371 LINE",
"186 404 LINE",
"241 404 LINE",
"241 371 LINE",
"249 371 LINE",
"249 411 LINE",
"225 411 LINE",
"225 454 LINE",
"179 454 LINE",
"179 371 LINE"
);
},
{
closed = 1;
nodes = (
"186 445 LINE",
"215 445 LINE",
"215 411 LINE",
"186 411 LINE"
);
},
{
closed = 1;
nodes = (
"331 246 LINE",
"331 271 LINE",
"394 271 LINE",
"394 246 LINE",
"401 246 LINE",
"401 280 LINE",
"389 280 LINE",
"389 305 LINE",
"376 305 LINE",
"376 329 LINE",
"349 329 LINE",
"349 305 LINE",
"335 305 LINE",
"335 280 LINE",
"324 280 LINE",
"324 246 LINE"
);
},
{
closed = 1;
nodes = (
"344 296 LINE",
"355 296 LINE",
"355 321 LINE",
"369 321 LINE",
"369 296 LINE",
"381 296 LINE",
"381 280 LINE",
"344 280 LINE"
);
},
{
closed = 1;
nodes = (
"26 619 LINE",
"26 700 LINE",
"19 700 LINE",
"19 619 LINE"
);
},
{
closed = 1;
nodes = (
"121 495 LINE",
"121 519 LINE",
"184 519 LINE",
"184 495 LINE",
"191 495 LINE",
"191 526 LINE",
"179 526 LINE",
"179 551 LINE",
"166 551 LINE",
"166 576 LINE",
"139 576 LINE",
"139 551 LINE",
"125 551 LINE",
"125 526 LINE",
"114 526 LINE",
"114 495 LINE"
);
},
{
closed = 1;
nodes = (
"534 124 LINE",
"534 161 LINE",
"561 161 LINE",
"561 205 LINE",
"554 205 LINE",
"554 169 LINE",
"505 169 LINE",
"505 205 LINE",
"495 205 LINE",
"495 161 LINE",
"525 161 LINE",
"525 124 LINE"
);
},
{
closed = 1;
nodes = (
"134 544 LINE",
"145 544 LINE",
"145 569 LINE",
"159 569 LINE",
"159 544 LINE",
"171 544 LINE",
"171 526 LINE",
"134 526 LINE"
);
},
{
closed = 1;
nodes = (
"279 371 LINE",
"279 409 LINE",
"290 409 LINE",
"290 395 LINE",
"311 395 LINE",
"311 371 LINE",
"331 371 LINE",
"331 379 LINE",
"319 379 LINE",
"319 404 LINE",
"299 404 LINE",
"299 420 LINE",
"319 420 LINE",
"319 445 LINE",
"331 445 LINE",
"331 454 LINE",
"311 454 LINE",
"311 429 LINE",
"290 429 LINE",
"290 415 LINE",
"279 415 LINE",
"279 454 LINE",
"269 454 LINE",
"269 371 LINE"
);
},
{
closed = 1;
nodes = (
"471 246 LINE",
"471 255 LINE",
"425 255 LINE",
"425 321 LINE",
"471 321 LINE",
"471 329 LINE",
"419 329 LINE",
"419 246 LINE"
);
},
{
closed = 1;
nodes = (
"59 619 LINE",
"59 655 LINE",
"91 655 LINE",
"91 664 LINE",
"59 664 LINE",
"59 691 LINE",
"109 691 LINE",
"109 700 LINE",
"51 700 LINE",
"51 619 LINE"
);
},
{
closed = 1;
nodes = (
"586 124 LINE",
"586 199 LINE",
"595 199 LINE",
"595 174 LINE",
"606 174 LINE",
"606 149 LINE",
"619 149 LINE",
"619 124 LINE",
"645 124 LINE",
"645 205 LINE",
"635 205 LINE",
"635 131 LINE",
"629 131 LINE",
"629 156 LINE",
"615 156 LINE",
"615 181 LINE",
"604 181 LINE",
"604 205 LINE",
"579 205 LINE",
"579 124 LINE"
);
},
{
closed = 1;
nodes = (
"220 495 LINE",
"220 569 LINE",
"229 569 LINE",
"229 544 LINE",
"241 544 LINE",
"241 519 LINE",
"254 519 LINE",
"254 495 LINE",
"279 495 LINE",
"279 576 LINE",
"269 576 LINE",
"269 501 LINE",
"261 501 LINE",
"261 526 LINE",
"249 526 LINE",
"249 551 LINE",
"236 551 LINE",
"236 576 LINE",
"211 576 LINE",
"211 495 LINE"
);
},
{
closed = 1;
nodes = (
"525 246 LINE",
"525 321 LINE",
"554 321 LINE",
"554 329 LINE",
"489 329 LINE",
"489 321 LINE",
"516 321 LINE",
"516 246 LINE"
);
},
{
closed = 1;
nodes = (
"171 619 LINE",
"171 655 LINE",
"199 655 LINE",
"199 700 LINE",
"191 700 LINE",
"191 664 LINE",
"141 664 LINE",
"141 700 LINE",
"134 700 LINE",
"134 655 LINE",
"161 655 LINE",
"161 619 LINE"
);
},
{
closed = 1;
nodes = (
"394 371 LINE",
"394 445 LINE",
"401 445 LINE",
"401 420 LINE",
"414 420 LINE",
"414 395 LINE",
"425 395 LINE",
"425 371 LINE",
"435 371 LINE",
"435 395 LINE",
"446 395 LINE",
"446 420 LINE",
"459 420 LINE",
"459 445 LINE",
"466 445 LINE",
"466 371 LINE",
"475 371 LINE",
"475 454 LINE",
"451 454 LINE",
"451 429 LINE",
"439 429 LINE",
"439 404 LINE",
"421 404 LINE",
"421 429 LINE",
"409 429 LINE",
"409 454 LINE",
"385 454 LINE",
"385 371 LINE"
);
},
{
closed = 1;
nodes = (
"721 124 LINE",
"721 131 LINE",
"674 131 LINE",
"674 161 LINE",
"705 161 LINE",
"705 169 LINE",
"674 169 LINE",
"674 199 LINE",
"721 199 LINE",
"721 205 LINE",
"665 205 LINE",
"665 124 LINE"
);
},
{
closed = 1;
nodes = (
"331 495 LINE",
"331 569 LINE",
"360 569 LINE",
"360 576 LINE",
"295 576 LINE",
"295 569 LINE",
"324 569 LINE",
"324 495 LINE"
);
},
{
closed = 1;
nodes = (
"285 619 LINE",
"285 700 LINE",
"222 700 LINE",
"222 619 LINE"
);
},
{
closed = 1;
nodes = (
"230 691 LINE",
"276 691 LINE",
"276 627 LINE",
"230 627 LINE"
);
},
{
closed = 1;
nodes = (
"561 371 LINE",
"561 379 LINE",
"511 379 LINE",
"511 409 LINE",
"545 409 LINE",
"545 415 LINE",
"511 415 LINE",
"511 445 LINE",
"561 445 LINE",
"561 454 LINE",
"505 454 LINE",
"505 371 LINE"
);
},
{
closed = 1;
nodes = (
"769 246 LINE",
"769 329 LINE",
"570 329 LINE",
"570 246 LINE"
);
},
{
closed = 1;
nodes = (
"401 495 LINE",
"401 569 LINE",
"409 569 LINE",
"409 544 LINE",
"421 544 LINE",
"421 519 LINE",
"435 519 LINE",
"435 495 LINE",
"441 495 LINE",
"441 519 LINE",
"455 519 LINE",
"455 544 LINE",
"466 544 LINE",
"466 569 LINE",
"475 569 LINE",
"475 495 LINE",
"484 495 LINE",
"484 576 LINE",
"459 576 LINE",
"459 551 LINE",
"446 551 LINE",
"446 526 LINE",
"430 526 LINE",
"430 551 LINE",
"419 551 LINE",
"419 576 LINE",
"394 576 LINE",
"394 495 LINE"
);
},
{
closed = 1;
nodes = (
"374 619 LINE",
"374 700 LINE",
"365 700 LINE",
"365 627 LINE",
"319 627 LINE",
"319 700 LINE",
"311 700 LINE",
"311 619 LINE"
);
},
{
closed = 1;
nodes = (
"674 371 LINE",
"674 454 LINE",
"611 454 LINE",
"611 371 LINE"
);
},
{
closed = 1;
nodes = (
"619 445 LINE",
"665 445 LINE",
"665 379 LINE",
"619 379 LINE"
);
},
{
closed = 1;
nodes = (
"570 495 LINE",
"570 576 LINE",
"509 576 LINE",
"509 495 LINE"
);
},
{
closed = 1;
nodes = (
"516 569 LINE",
"561 569 LINE",
"561 501 LINE",
"516 501 LINE"
);
},
{
closed = 1;
nodes = (
"705 371 LINE",
"705 404 LINE",
"759 404 LINE",
"759 371 LINE",
"769 371 LINE",
"769 411 LINE",
"744 411 LINE",
"744 454 LINE",
"699 454 LINE",
"699 371 LINE"
);
},
{
closed = 1;
nodes = (
"705 445 LINE",
"735 445 LINE",
"735 411 LINE",
"705 411 LINE"
);
},
{
closed = 1;
nodes = (
"599 495 LINE",
"599 526 LINE",
"651 526 LINE",
"651 495 LINE",
"661 495 LINE",
"661 535 LINE",
"635 535 LINE",
"635 576 LINE",
"591 576 LINE",
"591 495 LINE"
);
},
{
closed = 1;
nodes = (
"599 569 LINE",
"629 569 LINE",
"629 535 LINE",
"599 535 LINE"
);
},
{
closed = 1;
nodes = (
"735 495 LINE",
"735 501 LINE",
"685 501 LINE",
"685 531 LINE",
"719 531 LINE",
"719 539 LINE",
"685 539 LINE",
"685 569 LINE",
"735 569 LINE",
"735 576 LINE",
"676 576 LINE",
"676 495 LINE"
);
},
{
closed = 1;
nodes = (
"769 619 LINE",
"769 700 LINE",
"401 700 LINE",
"401 619 LINE"
);
},
{
closed = 1;
nodes = (
"764 481 LINE",
"764 506 LINE",
"751 506 LINE",
"751 495 LINE",
"755 495 LINE",
"755 481 LINE"
);
}
);
width = 779;
},
{
layerId = "8B2712DD-44AF-41AD-B0E9-03B6F24551DE";
paths = (
{
closed = 1;
nodes = (
"769 0 LINE",
"769 81 LINE",
"220 81 LINE",
"220 0 LINE"
);
},
{
closed = 1;
nodes = (
"21 0 LINE",
"21 11 LINE",
"10 11 LINE",
"10 0 LINE"
);
},
{
closed = 1;
nodes = (
"51 0 LINE",
"51 36 LINE",
"85 36 LINE",
"85 45 LINE",
"51 45 LINE",
"51 75 LINE",
"101 75 LINE",
"101 81 LINE",
"44 81 LINE",
"44 0 LINE"
);
},
{
closed = 1;
nodes = (
"129 0 LINE",
"129 34 LINE",
"184 34 LINE",
"184 0 LINE",
"191 0 LINE",
"191 41 LINE",
"166 41 LINE",
"166 81 LINE",
"121 81 LINE",
"121 0 LINE"
);
},
{
closed = 1;
nodes = (
"129 75 LINE",
"159 75 LINE",
"159 41 LINE",
"129 41 LINE"
);
},
{
closed = 1;
nodes = (
"59 124 LINE",
"59 149 LINE",
"71 149 LINE",
"71 174 LINE",
"85 174 LINE",
"85 199 LINE",
"96 199 LINE",
"96 205 LINE",
"75 205 LINE",
"75 181 LINE",
"64 181 LINE",
"64 156 LINE",
"46 156 LINE",
"46 181 LINE",
"35 181 LINE",
"35 205 LINE",
"15 205 LINE",
"15 199 LINE",
"26 199 LINE",
"26 174 LINE",
"39 174 LINE",
"39 149 LINE",
"51 149 LINE",
"51 124 LINE"
);
},
{
closed = 1;
nodes = (
"171 124 LINE",
"171 131 LINE",
"121 131 LINE",
"121 161 LINE",
"155 161 LINE",
"155 169 LINE",
"121 169 LINE",
"121 199 LINE",
"171 199 LINE",
"171 205 LINE",
"114 205 LINE",
"114 124 LINE"
);
},
{
closed = 1;
nodes = (
"71 246 LINE",
"71 255 LINE",
"26 255 LINE",
"26 321 LINE",
"71 321 LINE",
"71 329 LINE",
"19 329 LINE",
"19 246 LINE"
);
},
{
closed = 1;
nodes = (
"254 124 LINE",
"254 131 LINE",
"204 131 LINE",
"204 205 LINE",
"195 205 LINE",
"195 124 LINE"
);
},
{
closed = 1;
nodes = (
"155 246 LINE",
"155 329 LINE",
"91 329 LINE",
"91 246 LINE"
);
},
{
closed = 1;
nodes = (
"101 321 LINE",
"145 321 LINE",
"145 255 LINE",
"101 255 LINE"
);
},
{
closed = 1;
nodes = (
"285 124 LINE",
"285 149 LINE",
"299 149 LINE",
"299 174 LINE",
"311 174 LINE",
"311 199 LINE",
"324 199 LINE",
"324 205 LINE",
"301 205 LINE",
"301 181 LINE",
"290 181 LINE",
"290 156 LINE",
"274 156 LINE",
"274 181 LINE",
"261 181 LINE",
"261 205 LINE",
"241 205 LINE",
"241 199 LINE",
"254 199 LINE",
"254 174 LINE",
"265 174 LINE",
"265 149 LINE",
"279 149 LINE",
"279 124 LINE"
);
},
{
closed = 1;
nodes = (
"26 371 LINE",
"26 409 LINE",
"59 409 LINE",
"59 415 LINE",
"26 415 LINE",
"26 445 LINE",
"75 445 LINE",
"75 454 LINE",
"19 454 LINE",
"19 371 LINE"
);
},
{
closed = 1;
nodes = (
"186 246 LINE",
"186 321 LINE",
"195 321 LINE",
"195 296 LINE",
"209 296 LINE",
"209 271 LINE",
"220 271 LINE",
"220 246 LINE",
"245 246 LINE",
"245 329 LINE",
"236 329 LINE",
"236 255 LINE",
"229 255 LINE",
"229 280 LINE",
"215 280 LINE",
"215 305 LINE",
"204 305 LINE",
"204 329 LINE",
"179 329 LINE",
"179 246 LINE"
);
},
{
closed = 1;
nodes = (
"396 124 LINE",
"396 131 LINE",
"349 131 LINE",
"349 161 LINE",
"381 161 LINE",
"381 169 LINE",
"349 169 LINE",
"349 199 LINE",
"396 199 LINE",
"396 205 LINE",
"339 205 LINE",
"339 124 LINE"
);
},
{
closed = 1;
nodes = (
"155 371 LINE",
"155 454 LINE",
"91 454 LINE",
"91 371 LINE"
);
},
{
closed = 1;
nodes = (
"101 445 LINE",
"145 445 LINE",
"145 379 LINE",
"101 379 LINE"
);
},
{
closed = 1;
nodes = (
"295 246 LINE",
"295 321 LINE",
"324 321 LINE",
"324 329 LINE",
"256 329 LINE",
"256 321 LINE",
"285 321 LINE",
"285 246 LINE"
);
},
{
closed = 1;
nodes = (
"91 495 LINE",
"91 576 LINE",
"85 576 LINE",
"85 501 LINE",
"59 501 LINE",
"59 549 LINE",
"51 549 LINE",
"51 501 LINE",
"26 501 LINE",
"26 576 LINE",
"19 576 LINE",
"19 495 LINE"
);
},
{
closed = 1;
nodes = (
"451 124 LINE",
"451 199 LINE",
"479 199 LINE",
"479 205 LINE",
"414 205 LINE",
"414 199 LINE",
"441 199 LINE",
"441 124 LINE"
);
},
{
closed = 1;
nodes = (
"186 371 LINE",
"186 404 LINE",
"241 404 LINE",
"241 371 LINE",
"249 371 LINE",
"249 411 LINE",
"225 411 LINE",
"225 454 LINE",
"179 454 LINE",
"179 371 LINE"
);
},
{
closed = 1;
nodes = (
"186 445 LINE",
"215 445 LINE",
"215 411 LINE",
"186 411 LINE"
);
},
{
closed = 1;
nodes = (
"331 246 LINE",
"331 271 LINE",
"394 271 LINE",
"394 246 LINE",
"401 246 LINE",
"401 280 LINE",
"389 280 LINE",
"389 305 LINE",
"376 305 LINE",
"376 329 LINE",
"349 329 LINE",
"349 305 LINE",
"335 305 LINE",
"335 280 LINE",
"324 280 LINE",
"324 246 LINE"
);
},
{
closed = 1;
nodes = (
"344 296 LINE",
"355 296 LINE",
"355 321 LINE",
"369 321 LINE",
"369 296 LINE",
"381 296 LINE",
"381 280 LINE",
"344 280 LINE"
);
},
{
closed = 1;
nodes = (
"26 619 LINE",
"26 700 LINE",
"19 700 LINE",
"19 619 LINE"
);
},
{
closed = 1;
nodes = (
"121 495 LINE",
"121 519 LINE",
"184 519 LINE",
"184 495 LINE",
"191 495 LINE",
"191 526 LINE",
"179 526 LINE",
"179 551 LINE",
"166 551 LINE",
"166 576 LINE",
"139 576 LINE",
"139 551 LINE",
"125 551 LINE",
"125 526 LINE",
"114 526 LINE",
"114 495 LINE"
);
},
{
closed = 1;
nodes = (
"534 124 LINE",
"534 161 LINE",
"561 161 LINE",
"561 205 LINE",
"554 205 LINE",
"554 169 LINE",
"505 169 LINE",
"505 205 LINE",
"495 205 LINE",
"495 161 LINE",
"525 161 LINE",
"525 124 LINE"
);
},
{
closed = 1;
nodes = (
"134 544 LINE",
"145 544 LINE",
"145 569 LINE",
"159 569 LINE",
"159 544 LINE",
"171 544 LINE",
"171 526 LINE",
"134 526 LINE"
);
},
{
closed = 1;
nodes = (
"279 371 LINE",
"279 409 LINE",
"290 409 LINE",
"290 395 LINE",
"311 395 LINE",
"311 371 LINE",
"331 371 LINE",
"331 379 LINE",
"319 379 LINE",
"319 404 LINE",
"299 404 LINE",
"299 420 LINE",
"319 420 LINE",
"319 445 LINE",
"331 445 LINE",
"331 454 LINE",
"311 454 LINE",
"311 429 LINE",
"290 429 LINE",
"290 415 LINE",
"279 415 LINE",
"279 454 LINE",
"269 454 LINE",
"269 371 LINE"
);
},
{
closed = 1;
nodes = (
"471 246 LINE",
"471 255 LINE",
"425 255 LINE",
"425 321 LINE",
"471 321 LINE",
"471 329 LINE",
"419 329 LINE",
"419 246 LINE"
);
},
{
closed = 1;
nodes = (
"59 619 LINE",
"59 655 LINE",
"91 655 LINE",
"91 664 LINE",
"59 664 LINE",
"59 691 LINE",
"109 691 LINE",
"109 700 LINE",
"51 700 LINE",
"51 619 LINE"
);
},
{
closed = 1;
nodes = (
"586 124 LINE",
"586 199 LINE",
"595 199 LINE",
"595 174 LINE",
"606 174 LINE",
"606 149 LINE",
"619 149 LINE",
"619 124 LINE",
"645 124 LINE",
"645 205 LINE",
"635 205 LINE",
"635 131 LINE",
"629 131 LINE",
"629 156 LINE",
"615 156 LINE",
"615 181 LINE",
"604 181 LINE",
"604 205 LINE",
"579 205 LINE",
"579 124 LINE"
);
},
{
closed = 1;
nodes = (
"220 495 LINE",
"220 569 LINE",
"229 569 LINE",
"229 544 LINE",
"241 544 LINE",
"241 519 LINE",
"254 519 LINE",
"254 495 LINE",
"279 495 LINE",
"279 576 LINE",
"269 576 LINE",
"269 501 LINE",
"261 501 LINE",
"261 526 LINE",
"249 526 LINE",
"249 551 LINE",
"236 551 LINE",
"236 576 LINE",
"211 576 LINE",
"211 495 LINE"
);
},
{
closed = 1;
nodes = (
"525 246 LINE",
"525 321 LINE",
"554 321 LINE",
"554 329 LINE",
"489 329 LINE",
"489 321 LINE",
"516 321 LINE",
"516 246 LINE"
);
},
{
closed = 1;
nodes = (
"171 619 LINE",
"171 655 LINE",
"199 655 LINE",
"199 700 LINE",
"191 700 LINE",
"191 664 LINE",
"141 664 LINE",
"141 700 LINE",
"134 700 LINE",
"134 655 LINE",
"161 655 LINE",
"161 619 LINE"
);
},
{
closed = 1;
nodes = (
"394 371 LINE",
"394 445 LINE",
"401 445 LINE",
"401 420 LINE",
"414 420 LINE",
"414 395 LINE",
"425 395 LINE",
"425 371 LINE",
"435 371 LINE",
"435 395 LINE",
"446 395 LINE",
"446 420 LINE",
"459 420 LINE",
"459 445 LINE",
"466 445 LINE",
"466 371 LINE",
"475 371 LINE",
"475 454 LINE",
"451 454 LINE",
"451 429 LINE",
"439 429 LINE",
"439 404 LINE",
"421 404 LINE",
"421 429 LINE",
"409 429 LINE",
"409 454 LINE",
"385 454 LINE",
"385 371 LINE"
);
},
{
closed = 1;
nodes = (
"721 124 LINE",
"721 131 LINE",
"674 131 LINE",
"674 161 LINE",
"705 161 LINE",
"705 169 LINE",
"674 169 LINE",
"674 199 LINE",
"721 199 LINE",
"721 205 LINE",
"665 205 LINE",
"665 124 LINE"
);
},
{
closed = 1;
nodes = (
"331 495 LINE",
"331 569 LINE",
"360 569 LINE",
"360 576 LINE",
"295 576 LINE",
"295 569 LINE",
"324 569 LINE",
"324 495 LINE"
);
},
{
closed = 1;
nodes = (
"285 619 LINE",
"285 700 LINE",
"222 700 LINE",
"222 619 LINE"
);
},
{
closed = 1;
nodes = (
"230 691 LINE",
"276 691 LINE",
"276 627 LINE",
"230 627 LINE"
);
},
{
closed = 1;
nodes = (
"561 371 LINE",
"561 379 LINE",
"511 379 LINE",
"511 409 LINE",
"545 409 LINE",
"545 415 LINE",
"511 415 LINE",
"511 445 LINE",
"561 445 LINE",
"561 454 LINE",
"505 454 LINE",
"505 371 LINE"
);
},
{
closed = 1;
nodes = (
"769 246 LINE",
"769 329 LINE",
"570 329 LINE",
"570 246 LINE"
);
},
{
closed = 1;
nodes = (
"401 495 LINE",
"401 569 LINE",
"409 569 LINE",
"409 544 LINE",
"421 544 LINE",
"421 519 LINE",
"435 519 LINE",
"435 495 LINE",
"441 495 LINE",
"441 519 LINE",
"455 519 LINE",
"455 544 LINE",
"466 544 LINE",
"466 569 LINE",
"475 569 LINE",
"475 495 LINE",
"484 495 LINE",
"484 576 LINE",
"459 576 LINE",
"459 551 LINE",
"446 551 LINE",
"446 526 LINE",
"430 526 LINE",
"430 551 LINE",
"419 551 LINE",
"419 576 LINE",
"394 576 LINE",
"394 495 LINE"
);
},
{
closed = 1;
nodes = (
"374 619 LINE",
"374 700 LINE",
"365 700 LINE",
"365 627 LINE",
"319 627 LINE",
"319 700 LINE",
"311 700 LINE",
"311 619 LINE"
);
},
{
closed = 1;
nodes = (
"674 371 LINE",
"674 454 LINE",
"611 454 LINE",
"611 371 LINE"
);
},
{
closed = 1;
nodes = (
"619 445 LINE",
"665 445 LINE",
"665 379 LINE",
"619 379 LINE"
);
},
{
closed = 1;
nodes = (
"570 495 LINE",
"570 576 LINE",
"509 576 LINE",
"509 495 LINE"
);
},
{
closed = 1;
nodes = (
"516 569 LINE",
"561 569 LINE",
"561 501 LINE",
"516 501 LINE"
);
},
{
closed = 1;
nodes = (
"705 371 LINE",
"705 404 LINE",
"759 404 LINE",
"759 371 LINE",
"769 371 LINE",
"769 411 LINE",
"744 411 LINE",
"744 454 LINE",
"699 454 LINE",
"699 371 LINE"
);
},
{
closed = 1;
nodes = (
"705 445 LINE",
"735 445 LINE",
"735 411 LINE",
"705 411 LINE"
);
},
{
closed = 1;
nodes = (
"599 495 LINE",
"599 526 LINE",
"651 526 LINE",
"651 495 LINE",
"661 495 LINE",
"661 535 LINE",
"635 535 LINE",
"635 576 LINE",
"591 576 LINE",
"591 495 LINE"
);
},
{
closed = 1;
nodes = (
"599 569 LINE",
"629 569 LINE",
"629 535 LINE",
"599 535 LINE"
);
},
{
closed = 1;
nodes = (
"735 495 LINE",
"735 501 LINE",
"685 501 LINE",
"685 531 LINE",
"719 531 LINE",
"719 539 LINE",
"685 539 LINE",
"685 569 LINE",
"735 569 LINE",
"735 576 LINE",
"676 576 LINE",
"676 495 LINE"
);
},
{
closed = 1;
nodes = (
"769 619 LINE",
"769 700 LINE",
"401 700 LINE",
"401 619 LINE"
);
},
{
closed = 1;
nodes = (
"764 481 LINE",
"764 506 LINE",
"751 506 LINE",
"751 495 LINE",
"755 495 LINE",
"755 481 LINE"
);
}
);
width = 779;
}
);
},
{
glyphname = period;
lastChange = "2021-05-01 11:42:14 +0000";
layers = (
{
layerId = "8B2712DD-44AF-41AD-B0E9-03B6F24551DE";
paths = (
{
closed = 1;
nodes = (
"197 0 LINE",
"197 164 LINE",
"42 164 LINE",
"42 0 LINE"
);
}
);
width = 232;
},
{
layerId = "ADD356F3-6F8E-4A19-BEE8-38EF5CB52C35";
paths = (
{
closed = 1;
nodes = (
"197 0 LINE",
"197 164 LINE",
"57 0 LINE"
);
}
);
width = 232;
},
{
associatedMasterId = "ADD356F3-6F8E-4A19-BEE8-38EF5CB52C35";
layerId = "0881A735-7E47-4ECC-9971-C57B9966D96C";
name = "Jun 4 20, 19:41";
paths = (
{
closed = 1;
nodes = (
"197 0 LINE",
"197 164 LINE",
"76 34 LINE",
"76 0 LINE"
);
}
);
width = 232;
}
);
unicode = 002E;
},
{
glyphname = comma;
lastChange = "2021-05-01 11:42:14 +0000";
layers = (
{
layerId = "8B2712DD-44AF-41AD-B0E9-03B6F24551DE";
paths = (
{
closed = 1;
nodes = (
"101 -153 LINE",
"228 164 LINE",
"67 164 LINE",
"17 -153 LINE"
);
}
);
width = 260;
},
{
layerId = "ADD356F3-6F8E-4A19-BEE8-38EF5CB52C35";
paths = (
{
closed = 1;
nodes = (
"47 -153 LINE",
"101 -153 LINE",
"228 164 LINE",
"77 1 LINE"
);
}
);
width = 260;
}
);
unicode = 002C;
},
{
glyphname = exclam;
lastChange = "2021-05-01 11:42:14 +0000";
layers = (
{
layerId = "ADD356F3-6F8E-4A19-BEE8-38EF5CB52C35";
paths = (
{
closed = 1;
nodes = (
"242 0 LINE",
"242 164 LINE",
"121 34 LINE",
"121 0 LINE"
);
},
{
closed = 1;
nodes = (
"141 250 LINE",
"212 250 LINE",
"249 800 LINE",
"141 679 LINE"
);
}
);
width = 329;
},
{
layerId = "8B2712DD-44AF-41AD-B0E9-03B6F24551DE";
paths = (
{
closed = 1;
nodes = (
"212 250 LINE",
"249 800 LINE",
"80 800 LINE",
"117 250 LINE"
);
},
{
closed = 1;
nodes = (
"242 0 LINE",
"242 164 LINE",
"87 164 LINE",
"87 0 LINE"
);
}
);
width = 329;
}
);
unicode = 0021;
},
{
glyphname = exclamdown;
lastChange = "2021-05-01 11:42:14 +0000";
layers = (
{
layerId = "ADD356F3-6F8E-4A19-BEE8-38EF5CB52C35";
paths = (
{
closed = 1;
nodes = (
"242 636 LINE",
"242 800 LINE",
"121 670 LINE",
"121 636 LINE"
);
},
{
closed = 1;
nodes = (
"249 0 LINE",
"212 550 LINE",
"144 451 LINE",
"144 0 LINE"
);
}
);
width = 329;
},
{
components = (
{
name = exclam;
transform = "{1, 0, 0, -1, 0, 800}";
}
);
layerId = "8B2712DD-44AF-41AD-B0E9-03B6F24551DE";
width = 329;
}
);
unicode = 00A1;
},
{
glyphname = question;
lastChange = "2021-05-01 11:42:14 +0000";
layers = (
{
layerId = "ADD356F3-6F8E-4A19-BEE8-38EF5CB52C35";
paths = (
{
closed = 1;
nodes = (
"97 550 LINE",
"189 656 LINE",
"180 646 OFFCURVE",
"177 631 OFFCURVE",
"177 608 CURVE SMOOTH",
"177 550 LINE"
);
},
{
closed = 1;
nodes = (
"404 525 OFFCURVE",
"400 506 OFFCURVE",
"378 476 CURVE SMOOTH",
"212 250 LINE",
"328 250 LINE",
"328 295 LINE SMOOTH",
"328 318 OFFCURVE",
"341 337 OFFCURVE",
"366 357 CURVE SMOOTH",
"437 415 LINE SMOOTH",
"481 451 OFFCURVE",
"512 506 OFFCURVE",
"512 575 CURVE SMOOTH",
"512 618 LINE SMOOTH",
"512 655 OFFCURVE",
"507 687 OFFCURVE",
"496 712 CURVE",
"404 608 LINE",
"404 554 LINE SMOOTH"
);
},
{
closed = 1;
nodes = (
"333 0 LINE",
"333 164 LINE",
"212 34 LINE",
"212 0 LINE"
);
}
);
width = 554;
},
{
layerId = "8B2712DD-44AF-41AD-B0E9-03B6F24551DE";
paths = (
{
closed = 1;
nodes = (
"328 250 LINE",
"328 295 LINE SMOOTH",
"328 318 OFFCURVE",
"341 337 OFFCURVE",
"366 357 CURVE SMOOTH",
"437 415 LINE SMOOTH",
"481 451 OFFCURVE",
"512 506 OFFCURVE",
"512 575 CURVE SMOOTH",
"512 618 LINE SMOOTH",
"512 754 OFFCURVE",
"445 810 OFFCURVE",
"275 810 CURVE SMOOTH",
"109 810 OFFCURVE",
"42 754 OFFCURVE",
"42 618 CURVE SMOOTH",
"42 550 LINE",
"177 550 LINE",
"177 608 LINE SMOOTH",
"177 662 OFFCURVE",
"193 675 OFFCURVE",
"275 675 CURVE SMOOTH",
"361 675 OFFCURVE",
"377 662 OFFCURVE",
"377 608 CURVE SMOOTH",
"377 583 LINE SMOOTH",
"377 542 OFFCURVE",
"367 513 OFFCURVE",
"337 489 CURVE SMOOTH",
"231 405 LINE SMOOTH",
"195 376 OFFCURVE",
"183 344 OFFCURVE",
"183 304 CURVE SMOOTH",
"183 250 LINE"
);
},
{
closed = 1;
nodes = (
"333 0 LINE",
"333 164 LINE",
"178 164 LINE",
"178 0 LINE"
);
}
);
width = 554;
},
{
associatedMasterId = "ADD356F3-6F8E-4A19-BEE8-38EF5CB52C35";
layerId = "D28F11FB-0D9B-4FB8-9C87-62FD2E06183C";
name = "Jun 4 20, 19:00";
paths = (
{
closed = 1;
nodes = (
"92 550 LINE",
"189 656 LINE",
"180 646 OFFCURVE",
"177 631 OFFCURVE",
"177 608 CURVE SMOOTH",
"177 550 LINE"
);
},
{
closed = 1;
nodes = (
"412 496 OFFCURVE",
"381 441 OFFCURVE",
"337 405 CURVE SMOOTH",
"266 347 LINE SMOOTH",
"241 327 OFFCURVE",
"228 308 OFFCURVE",
"228 285 CURVE SMOOTH",
"228 250 LINE",
"328 250 LINE",
"328 295 LINE SMOOTH",
"328 318 OFFCURVE",
"341 337 OFFCURVE",
"366 357 CURVE SMOOTH",
"437 415 LINE SMOOTH",
"481 451 OFFCURVE",
"512 506 OFFCURVE",
"512 575 CURVE SMOOTH",
"512 618 LINE SMOOTH",
"512 655 OFFCURVE",
"507 687 OFFCURVE",
"496 712 CURVE",
"412 613 LINE",
"412 565 LINE SMOOTH"
);
}
);
width = 600;
}
);
unicode = 003F;
},
{
glyphname = questiondown;
lastChange = "2021-05-01 11:42:14 +0000";
layers = (
{
layerId = "ADD356F3-6F8E-4A19-BEE8-38EF5CB52C35";
paths = (
{
closed = 1;
nodes = (
"376 636 LINE",
"376 800 LINE",
"236 636 LINE"
);
},
{
closed = 1;
nodes = (
"413 152 LINE",
"413 71 OFFCURVE",
"373 34 OFFCURVE",
"309 -9 CURVE",
"455 -2 OFFCURVE",
"513 55 OFFCURVE",
"513 182 CURVE SMOOTH",
"513 251 LINE"
);
},
{
closed = 1;
nodes = (
"372 552 LINE",
"372 498 LINE SMOOTH",
"372 458 OFFCURVE",
"360 424 OFFCURVE",
"324 396 CURVE SMOOTH",
"218 312 LINE SMOOTH",
"188 288 OFFCURVE",
"178 260 OFFCURVE",
"178 219 CURVE SMOOTH",
"178 182 LINE SMOOTH",
"178 178 OFFCURVE",
"178 174 OFFCURVE",
"178 170 CURVE",
"98 81 LINE",
"84 97 OFFCURVE",
"76 140 OFFCURVE",
"76 164 CURVE SMOOTH",
"76 195 OFFCURVE",
"79 213 OFFCURVE",
"88 224 CURVE SMOOTH"
);
}
);
width = 554;
},
{
components = (
{
name = question;
transform = "{-1, 0, 0, -1, 554, 800}";
}
);
layerId = "8B2712DD-44AF-41AD-B0E9-03B6F24551DE";
width = 554;
}
);
unicode = 00BF;
},
{
glyphname = bullet;
lastChange = "2021-05-01 11:42:14 +0000";
layers = (
{
layerId = "ADD356F3-6F8E-4A19-BEE8-38EF5CB52C35";
paths = (
{
closed = 1;
nodes = (
"269 280 LINE",
"269 526 LINE",
"35 280 LINE"
);
}
);
width = 303;
},
{
layerId = "8B2712DD-44AF-41AD-B0E9-03B6F24551DE";
paths = (
{
closed = 1;
nodes = (
"268 280 LINE",
"268 526 LINE",
"35 526 LINE",
"35 280 LINE"
);
}
);
width = 303;
}
);
unicode = 2022;
},
{
glyphname = asterisk;
lastChange = "2021-05-01 11:42:14 +0000";
layers = (
{
layerId = "ADD356F3-6F8E-4A19-BEE8-38EF5CB52C35";
paths = (
{
closed = 1;
nodes = (
"206 735 LINE",
"212 615 LINE",
"247 627 LINE",
"272 806 LINE"
);
},
{
closed = 1;
nodes = (
"40 721 LINE",
"165 668 LINE",
"131 631 LINE",
"77 649 LINE"
);
},
{
closed = 1;
nodes = (
"136 440 LINE",
"149 398 LINE",
"215 525 LINE"
);
},
{
closed = 1;
nodes = (
"350 649 LINE",
"416 599 LINE",
"383 722 LINE",
"214 651 LINE",
"212 610 LINE"
);
},
{
closed = 1;
nodes = (
"313 468 LINE",
"280 397 LINE",
"385 470 LINE",
"282 581 LINE",
"251 547 LINE"
);
}
);
width = 421;
},
{
components = (
{
name = bout_aster;
transform = "{0.57358, 0.81915, -0.81915, 0.57358, 551, 74}";
},
{
name = bout_aster;
transform = "{0.96593, -0.25882, 0.25882, 0.96593, -161, 110}";
},
{
name = bout_aster;
transform = "{-0.57358, 0.81915, 0.81915, 0.57358, -122, 74}";
},
{
name = bout_aster;
transform = "{0, -1, 1, 0, -370, 840}";
},
{
name = bout_aster;
transform = "{-0.96593, -0.25882, -0.25882, 0.96593, 582, 110}";
}
);
layerId = "8B2712DD-44AF-41AD-B0E9-03B6F24551DE";
paths = (
{
closed = 1;
nodes = (
"242 562 LINE",
"242 622 LINE",
"171 622 LINE",
"171 562 LINE"
);
}
);
width = 421;
}
);
unicode = 002A;
},
{
glyphname = numbersign;
lastChange = "2021-05-01 11:42:14 +0000";
layers = (
{
layerId = "ADD356F3-6F8E-4A19-BEE8-38EF5CB52C35";
paths = (
{
closed = 1;
nodes = (
"316 620 LINE",
"366 800 LINE",
"241 675 LINE",
"197 519 LINE"
);
},
{
closed = 1;
nodes = (
"650 502 LINE",
"650 620 LINE",
"555 502 LINE"
);
},
{
closed = 1;
nodes = (
"590 193 LINE",
"590 311 LINE",
"468 193 LINE"
);
},
{
closed = 1;
nodes = (
"230 312 LINE",
"283 502 LINE",
"170 422 LINE",
"124 260 LINE"
);
},
{
closed = 1;
nodes = (
"94 154 LINE",
"71 73 LINE",
"143 0 LINE",
"197 193 LINE"
);
},
{
closed = 1;
nodes = (
"588 620 LINE",
"638 800 LINE",
"513 675 LINE",
"469 519 LINE"
);
},
{
closed = 1;
nodes = (
"502 312 LINE",
"555 502 LINE",
"442 422 LINE",
"396 260 LINE"
);
},
{
closed = 1;
nodes = (
"366 154 LINE",
"343 73 LINE",
"415 0 LINE",
"469 193 LINE"
);
}
);
width = 655;
},
{
components = (
{
name = slash;
transform = "{1, 0, 0, 1, 13, 0}";
},
{
name = slash;
transform = "{1, 0, 0, 1, 285, 0}";
}
);
layerId = "8B2712DD-44AF-41AD-B0E9-03B6F24551DE";
paths = (
{
closed = 1;
nodes = (
"650 502 LINE",
"650 620 LINE",
"65 620 LINE",
"65 502 LINE"
);
},
{
closed = 1;
nodes = (
"590 193 LINE",
"590 311 LINE",
"5 311 LINE",
"5 193 LINE"
);
}
);
width = 655;
}
);
unicode = 0023;
},
{
glyphname = slash;
lastChange = "2021-05-01 11:42:14 +0000";
layers = (
{
layerId = "ADD356F3-6F8E-4A19-BEE8-38EF5CB52C35";
paths = (
{
closed = 1;
nodes = (
"58 73 LINE",
"130 0 LINE",
"353 800 LINE",
"228 675 LINE"
);
}
);
width = 358;
},
{
layerId = "8B2712DD-44AF-41AD-B0E9-03B6F24551DE";
paths = (
{
closed = 1;
nodes = (
"130 0 LINE",
"353 800 LINE",
"228 800 LINE",
"5 0 LINE"
);
}
);
width = 358;
}
);
unicode = 002F;
},
{
glyphname = backslash;
lastChange = "2021-05-01 11:42:14 +0000";
layers = (
{
layerId = "ADD356F3-6F8E-4A19-BEE8-38EF5CB52C35";
paths = (
{
closed = 1;
nodes = (
"302 0 LINE",
"391 0 LINE",
"167 800 LINE",
"95 719 LINE"
);
}
);
width = 395;
},
{
components = (
{
name = slash;
transform = "{-1, 0, 0, 1, 395, 0}";
}
);
layerId = "8B2712DD-44AF-41AD-B0E9-03B6F24551DE";
width = 395;
}
);
unicode = 005C;
},
{
glyphname = hyphen;
lastChange = "2021-05-01 11:42:14 +0000";
layers = (
{
layerId = "8B2712DD-44AF-41AD-B0E9-03B6F24551DE";
paths = (
{
closed = 1;
nodes = (
"305 326 LINE",
"305 444 LINE",
"30 444 LINE",
"30 326 LINE"
);
}
);
width = 335;
},
{
layerId = "ADD356F3-6F8E-4A19-BEE8-38EF5CB52C35";
paths = (
{
closed = 1;
nodes = (
"305 326 LINE",
"305 444 LINE",
"196 326 LINE"
);
}
);
width = 335;
}
);
unicode = 002D;
},
{
glyphname = endash;
lastChange = "2021-05-01 11:42:14 +0000";
layers = (
{
layerId = "ADD356F3-6F8E-4A19-BEE8-38EF5CB52C35";
paths = (
{
closed = 1;
nodes = (
"425 326 LINE",
"425 444 LINE",
"316 326 LINE"
);
}
);
width = 455;
},
{
layerId = "8B2712DD-44AF-41AD-B0E9-03B6F24551DE";
paths = (
{
closed = 1;
nodes = (
"425 326 LINE",
"425 444 LINE",
"30 444 LINE",
"30 326 LINE"
);
}
);
width = 455;
}
);
unicode = 2013;
},
{
glyphname = emdash;
lastChange = "2021-05-01 11:42:14 +0000";
layers = (
{
layerId = "ADD356F3-6F8E-4A19-BEE8-38EF5CB52C35";
paths = (
{
closed = 1;
nodes = (
"545 323 LINE",
"545 441 LINE",
"436 323 LINE"
);
}
);
width = 575;
},
{
layerId = "8B2712DD-44AF-41AD-B0E9-03B6F24551DE";
paths = (
{
closed = 1;
nodes = (
"545 326 LINE",
"545 444 LINE",
"30 444 LINE",
"30 326 LINE"
);
}
);
width = 575;
}
);
unicode = 2014;
},
{
glyphname = underscore;
lastChange = "2021-05-01 11:42:14 +0000";
layers = (
{
layerId = "ADD356F3-6F8E-4A19-BEE8-38EF5CB52C35";
paths = (
{
closed = 1;
nodes = (
"405 -108 LINE",
"405 0 LINE",
"296 -108 LINE"
);
}
);
width = 435;
},
{
layerId = "8B2712DD-44AF-41AD-B0E9-03B6F24551DE";
paths = (
{
closed = 1;
nodes = (
"405 -108 LINE",
"405 0 LINE",
"30 0 LINE",
"30 -108 LINE"
);
}
);
width = 435;
}
);
unicode = 005F;
},
{
glyphname = parenleft;
lastChange = "2021-05-01 11:42:14 +0000";
layers = (
{
layerId = "ADD356F3-6F8E-4A19-BEE8-38EF5CB52C35";
paths = (
{
closed = 1;
nodes = (
"101 205 OFFCURVE",
"166 42 OFFCURVE",
"255 -113 CURVE",
"303 -87 LINE",
"211 68 OFFCURVE",
"164 236 OFFCURVE",
"164 398 CURVE SMOOTH",
"164 560 OFFCURVE",
"211 728 OFFCURVE",
"303 883 CURVE",
"171 734 LINE",
"128 630 OFFCURVE",
"101 521 OFFCURVE",
"101 398 CURVE SMOOTH"
);
}
);
width = 313;
},
{
layerId = "8B2712DD-44AF-41AD-B0E9-03B6F24551DE";
paths = (
{
closed = 1;
nodes = (
"303 -87 LINE",
"211 68 OFFCURVE",
"164 236 OFFCURVE",
"164 398 CURVE SMOOTH",
"164 560 OFFCURVE",
"211 728 OFFCURVE",
"303 883 CURVE",
"226 927 LINE",
"137 772 OFFCURVE",
"70 591 OFFCURVE",
"70 398 CURVE SMOOTH",
"70 205 OFFCURVE",
"137 24 OFFCURVE",
"226 -131 CURVE"
);
}
);
width = 313;
},
{
associatedMasterId = "8B2712DD-44AF-41AD-B0E9-03B6F24551DE";
layerId = "653CB7A2-839F-4390-974F-07D6A3A333F4";
name = "Jun 4 20, 19:47";
paths = (
{
closed = 1;
nodes = (
"349 264 OFFCURVE",
"393 114 OFFCURVE",
"486 -37 CURVE",
"566 -37 LINE",
"473 114 OFFCURVE",
"429 264 OFFCURVE",
"429 402 CURVE SMOOTH",
"429 540 OFFCURVE",
"473 690 OFFCURVE",
"566 841 CURVE",
"486 841 LINE",
"393 690 OFFCURVE",
"349 540 OFFCURVE",
"349 402 CURVE SMOOTH"
);
}
);
width = 600;
},
{
associatedMasterId = "ADD356F3-6F8E-4A19-BEE8-38EF5CB52C35";
layerId = "B4F034A7-C1DB-4588-99FA-D33A0927ABBC";
name = "Jun 4 20, 21:09";
paths = (
{
closed = 1;
nodes = (
"385 244 OFFCURVE",
"443 78 OFFCURVE",
"537 -61 CURVE",
"565 -41 LINE",
"467 100 OFFCURVE",
"425 264 OFFCURVE",
"425 402 CURVE SMOOTH",
"425 540 OFFCURVE",
"467 704 OFFCURVE",
"565 845 CURVE",
"492 780 LINE",
"429 681 OFFCURVE",
"385 520 OFFCURVE",
"385 402 CURVE SMOOTH"
);
}
);
width = 600;
},
{
associatedMasterId = "8B2712DD-44AF-41AD-B0E9-03B6F24551DE";
layerId = "292C2FA7-EB6A-4FBD-A777-ED6A74D406AC";
name = "Jun 4 20, 21:09";
paths = (
{
closed = 1;
nodes = (
"355 244 OFFCURVE",
"416 63 OFFCURVE",
"510 -76 CURVE",
"565 -41 LINE",
"467 100 OFFCURVE",
"425 264 OFFCURVE",
"425 402 CURVE SMOOTH",
"425 540 OFFCURVE",
"467 704 OFFCURVE",
"565 845 CURVE",
"510 880 LINE",
"416 741 OFFCURVE",
"355 560 OFFCURVE",
"355 402 CURVE SMOOTH"
);
}
);
width = 600;
}
);
unicode = 0028;
},
{
glyphname = parenright;
lastChange = "2021-05-01 11:42:14 +0000";
layers = (
{
layerId = "ADD356F3-6F8E-4A19-BEE8-38EF5CB52C35";
paths = (
{
closed = 1;
nodes = (
"243 591 OFFCURVE",
"176 772 OFFCURVE",
"87 927 CURVE",
"69 844 LINE",
"142 702 OFFCURVE",
"183 542 OFFCURVE",
"183 398 CURVE SMOOTH",
"183 236 OFFCURVE",
"132 50 OFFCURVE",
"40 -105 CURVE",
"87 -131 LINE",
"176 24 OFFCURVE",
"243 205 OFFCURVE",
"243 398 CURVE SMOOTH"
);
}
);
width = 313;
},
{
layerId = "8B2712DD-44AF-41AD-B0E9-03B6F24551DE";
paths = (
{
closed = 1;
nodes = (
"176 24 OFFCURVE",
"243 205 OFFCURVE",
"243 398 CURVE SMOOTH",
"243 591 OFFCURVE",
"176 772 OFFCURVE",
"87 927 CURVE",
"10 883 LINE",
"102 728 OFFCURVE",
"149 560 OFFCURVE",
"149 398 CURVE SMOOTH",
"149 236 OFFCURVE",
"102 68 OFFCURVE",
"10 -87 CURVE",
"87 -131 LINE"
);
}
);
width = 313;
}
);
unicode = 0029;
},
{
glyphname = bracketleft;
lastChange = "2021-05-01 11:42:14 +0000";
layers = (
{
layerId = "ADD356F3-6F8E-4A19-BEE8-38EF5CB52C35";
paths = (
{
closed = 1;
nodes = (
"85 0 LINE",
"185 119 LINE",
"185 682 LINE",
"85 564 LINE"
);
},
{
closed = 1;
nodes = (
"363 682 LINE",
"363 800 LINE",
"254 682 LINE"
);
},
{
closed = 1;
nodes = (
"363 0 LINE",
"363 118 LINE",
"254 0 LINE"
);
}
);
width = 363;
},
{
layerId = "8B2712DD-44AF-41AD-B0E9-03B6F24551DE";
paths = (
{
closed = 1;
nodes = (
"185 0 LINE",
"185 800 LINE",
"50 800 LINE",
"50 0 LINE"
);
},
{
closed = 1;
nodes = (
"363 0 LINE",
"363 118 LINE",
"132 118 LINE",
"132 0 LINE"
);
},
{
closed = 1;
nodes = (
"363 682 LINE",
"363 800 LINE",
"132 800 LINE",
"132 682 LINE"
);
}
);
width = 363;
}
);
unicode = 005B;
},
{
glyphname = bracketright;
lastChange = "2021-05-01 11:42:14 +0000";
layers = (
{
layerId = "ADD356F3-6F8E-4A19-BEE8-38EF5CB52C35";
paths = (
{
closed = 1;
nodes = (
"213 117 LINE",
"117 0 LINE",
"313 0 LINE",
"313 800 LINE",
"213 682 LINE"
);
}
);
width = 363;
},
{
components = (
{
name = bracketleft;
transform = "{-1, 0, 0, 1, 363, 0}";
}
);
layerId = "8B2712DD-44AF-41AD-B0E9-03B6F24551DE";
width = 363;
}
);
unicode = 005D;
},
{
glyphname = quoteleft;
lastChange = "2021-05-01 11:42:14 +0000";
layers = (
{
layerId = "ADD356F3-6F8E-4A19-BEE8-38EF5CB52C35";
paths = (
{
closed = 1;
nodes = (
"93 700 LINE",
"174 483 LINE",
"228 483 LINE",
"178 800 LINE"
);
}
);
width = 240;
},
{
anchors = (
{
name = _top;
position = "{118, 800}";
}
);
layerId = "8B2712DD-44AF-41AD-B0E9-03B6F24551DE";
paths = (
{
closed = 1;
nodes = (
"228 483 LINE",
"178 800 LINE",
"17 800 LINE",
"144 483 LINE"
);
}
);
width = 240;
}
);
unicode = 2018;
},
{
glyphname = guillemetleft;
lastChange = "2021-05-01 11:42:14 +0000";
layers = (
{
layerId = "ADD356F3-6F8E-4A19-BEE8-38EF5CB52C35";
paths = (
{
closed = 1;
nodes = (
"529 167 LINE",
"548 180 LINE",
"418 416 LINE",
"548 652 LINE",
"545 654 LINE",
"340 375 LINE"
);
},
{
closed = 1;
nodes = (
"299 167 LINE",
"318 180 LINE",
"188 416 LINE",
"318 652 LINE",
"315 654 LINE",
"110 375 LINE"
);
}
);
width = 580;
},
{
layerId = "8B2712DD-44AF-41AD-B0E9-03B6F24551DE";
paths = (
{
closed = 1;
nodes = (
"548 180 LINE",
"418 416 LINE",
"548 652 LINE",
"515 679 LINE",
"279 427 LINE",
"279 405 LINE",
"515 153 LINE"
);
},
{
closed = 1;
nodes = (
"318 180 LINE",
"188 416 LINE",
"318 652 LINE",
"285 679 LINE",
"49 427 LINE",
"49 405 LINE",
"285 153 LINE"
);
}
);
width = 580;
},
{
associatedMasterId = "ADD356F3-6F8E-4A19-BEE8-38EF5CB52C35";
layerId = "1EFBFC3C-36CA-4C9F-B0CD-3C72DBDEA553";
name = "Jun 8 20, 11:58";
paths = (
{
closed = 1;
nodes = (
"515 153 LINE",
"538 170 LINE",
"418 416 LINE",
"538 662 LINE",
"323 359 LINE"
);
},
{
closed = 1;
nodes = (
"285 153 LINE",
"308 170 LINE",
"188 416 LINE",
"308 662 LINE",
"93 359 LINE"
);
}
);
width = 580;
},
{
associatedMasterId = "8B2712DD-44AF-41AD-B0E9-03B6F24551DE";
layerId = "055D8A34-9A25-457B-97D1-A1DA5563EDCC";
name = "Jun 8 20, 11:59";
paths = (
{
closed = 1;
nodes = (
"515 153 LINE",
"538 170 LINE",
"418 416 LINE",
"538 662 LINE",
"515 679 LINE",
"279 427 LINE",
"279 405 LINE"
);
},
{
closed = 1;
nodes = (
"285 153 LINE",
"308 170 LINE",
"188 416 LINE",
"308 662 LINE",
"285 679 LINE",
"49 427 LINE",
"49 405 LINE"
);
}
);
width = 580;
}
);
unicode = 00AB;
},
{
glyphname = guillemetright;
lastChange = "2021-05-01 11:42:14 +0000";
layers = (
{
layerId = "ADD356F3-6F8E-4A19-BEE8-38EF5CB52C35";
paths = (
{
closed = 1;
nodes = (
"314 678 LINE",
"314 645 LINE",
"471 392 LINE",
"309 155 LINE",
"312 153 LINE",
"548 405 LINE",
"548 427 LINE"
);
},
{
closed = 1;
nodes = (
"84 678 LINE",
"84 645 LINE",
"241 392 LINE",
"79 155 LINE",
"82 153 LINE",
"318 405 LINE",
"318 427 LINE"
);
}
);
width = 580;
},
{
components = (
{
name = guillemetleft;
transform = "{-1, 0, 0, 1, 597, 0}";
}
);
layerId = "8B2712DD-44AF-41AD-B0E9-03B6F24551DE";
width = 580;
}
);
unicode = 00BB;
},
{
glyphname = guilsinglleft;
lastChange = "2021-05-01 11:42:14 +0000";
layers = (
{
layerId = "ADD356F3-6F8E-4A19-BEE8-38EF5CB52C35";
paths = (
{
closed = 1;
nodes = (
"299 167 LINE",
"318 180 LINE",
"188 416 LINE",
"318 652 LINE",
"315 654 LINE",
"110 375 LINE"
);
}
);
width = 478;
},
{
layerId = "8B2712DD-44AF-41AD-B0E9-03B6F24551DE";
paths = (
{
closed = 1;
nodes = (
"318 180 LINE",
"188 416 LINE",
"318 652 LINE",
"285 679 LINE",
"49 427 LINE",
"49 405 LINE",
"285 153 LINE"
);
}
);
width = 478;
}
);
leftMetricsKey = guillementleft;
rightMetricsKey = guillementleft;
unicode = 2039;
},
{
glyphname = guilsinglright;
lastChange = "2021-05-01 11:42:14 +0000";
layers = (
{
layerId = "ADD356F3-6F8E-4A19-BEE8-38EF5CB52C35";
paths = (
{
closed = 1;
nodes = (
"84 678 LINE",
"84 645 LINE",
"241 392 LINE",
"79 155 LINE",
"82 153 LINE",
"318 405 LINE",
"318 427 LINE"
);
}
);
width = 350;
},
{
layerId = "8B2712DD-44AF-41AD-B0E9-03B6F24551DE";
paths = (
{
closed = 1;
nodes = (
"318 405 LINE",
"318 427 LINE",
"82 679 LINE",
"49 652 LINE",
"179 416 LINE",
"49 180 LINE",
"82 153 LINE"
);
}
);
width = 350;
}
);
leftMetricsKey = guillemetright;
rightMetricsKey = guillemetright;
unicode = 203A;
},
{
glyphname = quotesingle;
lastChange = "2021-05-01 11:42:14 +0000";
layers = (
{
layerId = "ADD356F3-6F8E-4A19-BEE8-38EF5CB52C35";
paths = (
{
closed = 1;
nodes = (
"88 493 LINE",
"140 493 LINE",
"165 800 LINE",
"82 637 LINE"
);
}
);
width = 200;
},
{
layerId = "8B2712DD-44AF-41AD-B0E9-03B6F24551DE";
paths = (
{
closed = 1;
nodes = (
"140 493 LINE",
"165 800 LINE",
"34 800 LINE",
"59 493 LINE"
);
}
);
width = 200;
}
);
unicode = 0027;
},
{
glyphname = at;
lastChange = "2021-05-01 11:42:14 +0000";
layers = (
{
layerId = "ADD356F3-6F8E-4A19-BEE8-38EF5CB52C35";
paths = (
{
closed = 1;
nodes = (
"539 399 LINE SMOOTH",
"539 306 OFFCURVE",
"498 251 OFFCURVE",
"434 208 CURVE",
"618 198 OFFCURVE",
"639 275 OFFCURVE",
"639 337 CURVE SMOOTH",
"639 618 LINE SMOOTH",
"639 655 OFFCURVE",
"635 687 OFFCURVE",
"624 712 CURVE",
"539 613 LINE"
);
},
{
closed = 1;
nodes = (
"122 92 LINE",
"108 108 OFFCURVE",
"100 129 OFFCURVE",
"100 153 CURVE SMOOTH",
"100 491 LINE SMOOTH",
"100 514 OFFCURVE",
"103 529 OFFCURVE",
"112 539 CURVE SMOOTH",
"212 656 LINE",
"203 646 OFFCURVE",
"200 631 OFFCURVE",
"200 608 CURVE SMOOTH",
"200 212 LINE SMOOTH",
"200 201 OFFCURVE",
"201 192 OFFCURVE",
"204 180 CURVE"
);
},
{
closed = 1;
nodes = (
"628 0 LINE",
"628 135 LINE",
"503 0 LINE"
);
},
{
closed = 1;
nodes = (
"340 274 LINE",
"326 290 OFFCURVE",
"318 311 OFFCURVE",
"318 335 CURVE SMOOTH",
"318 482 LINE",
"418 590 LINE",
"418 397 LINE SMOOTH",
"418 386 OFFCURVE",
"419 372 OFFCURVE",
"422 362 CURVE"
);
}
);
width = 689;
},
{
layerId = "8B2712DD-44AF-41AD-B0E9-03B6F24551DE";
paths = (
{
closed = 1;
nodes = (
"628 0 LINE",
"628 135 LINE",
"285 135 LINE SMOOTH",
"226 135 OFFCURVE",
"200 158 OFFCURVE",
"200 212 CURVE SMOOTH",
"200 608 LINE SMOOTH",
"200 662 OFFCURVE",
"206 675 OFFCURVE",
"352 675 CURVE SMOOTH",
"498 675 OFFCURVE",
"504 662 OFFCURVE",
"504 608 CURVE SMOOTH",
"504 399 LINE SMOOTH",
"504 353 OFFCURVE",
"493 344 OFFCURVE",
"463 344 CURVE SMOOTH",
"425 344 OFFCURVE",
"418 353 OFFCURVE",
"418 399 CURVE SMOOTH",
"418 590 LINE",
"283 590 LINE",
"283 337 LINE SMOOTH",
"283 236 OFFCURVE",
"331 208 OFFCURVE",
"463 208 CURVE SMOOTH",
"581 208 OFFCURVE",
"639 243 OFFCURVE",
"639 337 CURVE SMOOTH",
"639 618 LINE SMOOTH",
"639 754 OFFCURVE",
"582 810 OFFCURVE",
"352 810 CURVE SMOOTH",
"122 810 OFFCURVE",
"65 754 OFFCURVE",
"65 618 CURVE SMOOTH",
"65 192 LINE SMOOTH",
"65 56 OFFCURVE",
"122 0 OFFCURVE",
"302 0 CURVE SMOOTH"
);
}
);
width = 689;
}
);
unicode = 0040;
},
{
glyphname = ampersand;
lastChange = "2021-05-01 11:42:14 +0000";
layers = (
{
layerId = "ADD356F3-6F8E-4A19-BEE8-38EF5CB52C35";
paths = (
{
closed = 1;
nodes = (
"435 675 LINE",
"435 800 LINE",
"327 675 LINE"
);
},
{
closed = 1;
nodes = (
"571 338 LINE",
"571 463 LINE",
"394 267 LINE",
"394 0 LINE",
"494 0 LINE",
"494 338 LINE"
);
},
{
closed = 1;
nodes = (
"494 464 LINE",
"494 597 LINE",
"394 479 LINE",
"394 370 LINE"
);
},
{
closed = 1;
nodes = (
"133 453 LINE",
"87 492 OFFCURVE",
"105 535 OFFCURVE",
"112 543 CURVE SMOOTH",
"212 660 LINE",
"203 650 OFFCURVE",
"200 635 OFFCURVE",
"200 612 CURVE SMOOTH",
"200 544 LINE SMOOTH",
"200 540 OFFCURVE",
"200 536 OFFCURVE",
"200 532 CURVE"
);
},
{
closed = 1;
nodes = (
"122 92 LINE",
"108 108 OFFCURVE",
"100 129 OFFCURVE",
"100 153 CURVE SMOOTH",
"100 176 OFFCURVE",
"103 191 OFFCURVE",
"112 201 CURVE SMOOTH",
"212 318 LINE",
"203 308 OFFCURVE",
"200 293 OFFCURVE",
"200 270 CURVE SMOOTH",
"200 192 LINE SMOOTH",
"200 188 OFFCURVE",
"200 184 OFFCURVE",
"200 180 CURVE"
);
}
);
width = 611;
},
{
layerId = "8B2712DD-44AF-41AD-B0E9-03B6F24551DE";
paths = (
{
closed = 1;
nodes = (
"494 0 LINE",
"494 597 LINE",
"359 597 LINE",
"359 125 LINE",
"298 125 LINE SMOOTH",
"216 125 OFFCURVE",
"200 138 OFFCURVE",
"200 192 CURVE SMOOTH",
"200 271 LINE SMOOTH",
"200 325 OFFCURVE",
"216 338 OFFCURVE",
"298 338 CURVE SMOOTH",
"571 338 LINE",
"571 463 LINE",
"298 463 LINE SMOOTH",
"216 463 OFFCURVE",
"200 476 OFFCURVE",
"200 530 CURVE SMOOTH",
"200 613 LINE SMOOTH",
"200 667 OFFCURVE",
"216 675 OFFCURVE",
"298 675 CURVE SMOOTH",
"435 675 LINE",
"435 800 LINE",
"267 800 LINE SMOOTH",
"132 800 OFFCURVE",
"65 754 OFFCURVE",
"65 618 CURVE SMOOTH",
"65 525 LINE SMOOTH",
"65 462 OFFCURVE",
"95 427 OFFCURVE",
"138 401 CURVE",
"95 374 OFFCURVE",
"65 339 OFFCURVE",
"65 276 CURVE SMOOTH",
"65 182 LINE SMOOTH",
"65 46 OFFCURVE",
"132 0 OFFCURVE",
"267 0 CURVE SMOOTH"
);
}
);
width = 611;
}
);
unicode = 0026;
},
{
glyphname = paragraph;
lastChange = "2021-05-01 11:42:14 +0000";
layers = (
{
components = (
{
name = I;
transform = "{1, 0, 0, 1, 360, 0}";
}
);
layerId = "ADD356F3-6F8E-4A19-BEE8-38EF5CB52C35";
paths = (
{
closed = 1;
nodes = (
"269 0 LINE",
"369 0 LINE",
"369 800 LINE",
"269 682 LINE"
);
}
);
width = 655;
},
{
components = (
{
name = I;
transform = "{1, 0, 0, 1, 360, 0}";
}
);
layerId = "8B2712DD-44AF-41AD-B0E9-03B6F24551DE";
paths = (
{
closed = 1;
nodes = (
"369 0 LINE",
"369 800 LINE",
"185 800 LINE SMOOTH",
"74 800 OFFCURVE",
"40 756 OFFCURVE",
"40 649 CURVE SMOOTH",
"40 452 LINE SMOOTH",
"40 347 OFFCURVE",
"89 309 OFFCURVE",
"185 309 CURVE SMOOTH",
"234 309 LINE",
"234 0 LINE"
);
}
);
width = 655;
}
);
unicode = 00B6;
},
{
glyphname = section;
lastChange = "2021-05-01 11:42:14 +0000";
layers = (
{
layerId = "ADD356F3-6F8E-4A19-BEE8-38EF5CB52C35";
paths = (
{
closed = 1;
nodes = (
"424 -10 LINE SMOOTH",
"424 -51 OFFCURVE",
"414 -82 OFFCURVE",
"390 -109 CURVE SMOOTH",
"302 -209 LINE",
"472 -209 OFFCURVE",
"539 -153 OFFCURVE",
"539 -17 CURVE SMOOTH",
"539 121 LINE SMOOTH",
"539 137 OFFCURVE",
"537 146 OFFCURVE",
"534 153 CURVE",
"424 15 LINE"
);
},
{
closed = 1;
nodes = (
"420 575 LINE",
"535 575 LINE",
"535 615 LINE SMOOTH",
"535 645 OFFCURVE",
"532 671 OFFCURVE",
"525 694 CURVE",
"420 591 LINE"
);
},
{
closed = 1;
nodes = (
"120 -128 LINE",
"103 -112 OFFCURVE",
"89 -65 OFFCURVE",
"103 -52 CURVE SMOOTH",
"200 43 LINE",
"200 -11 LINE SMOOTH",
"200 -23 OFFCURVE",
"203 -39 OFFCURVE",
"207 -47 CURVE"
);
},
{
closed = 1;
nodes = (
"138 459 LINE",
"97 494 OFFCURVE",
"100 524 OFFCURVE",
"108 534 CURVE SMOOTH",
"212 653 LINE",
"203 643 OFFCURVE",
"200 628 OFFCURVE",
"200 605 CURVE SMOOTH",
"200 571 LINE SMOOTH",
"200 549 OFFCURVE",
"203 541 OFFCURVE",
"207 536 CURVE"
);
},
{
closed = 1;
nodes = (
"424 323 LINE",
"424 261 OFFCURVE",
"424 235 OFFCURVE",
"378 198 CURVE SMOOTH",
"306 140 LINE",
"475 140 OFFCURVE",
"539 182 OFFCURVE",
"539 274 CURVE SMOOTH",
"539 424 LINE SMOOTH",
"539 440 OFFCURVE",
"537 454 OFFCURVE",
"534 461 CURVE"
);
},
{
closed = 1;
nodes = (
"125 167 LINE",
"96 182 OFFCURVE",
"94 237 OFFCURVE",
"103 246 CURVE SMOOTH",
"212 360 LINE",
"203 350 OFFCURVE",
"200 335 OFFCURVE",
"200 312 CURVE SMOOTH",
"200 292 LINE SMOOTH",
"200 278 OFFCURVE",
"202 262 OFFCURVE",
"206 255 CURVE"
);
}
);
width = 604;
},
{
layerId = "8B2712DD-44AF-41AD-B0E9-03B6F24551DE";
paths = (
{
closed = 1;
nodes = (
"472 -208 OFFCURVE",
"539 -152 OFFCURVE",
"539 -16 CURVE SMOOTH",
"539 121 LINE SMOOTH",
"539 148 OFFCURVE",
"533 169 OFFCURVE",
"501 184 CURVE",
"533 210 OFFCURVE",
"539 243 OFFCURVE",
"539 283 CURVE SMOOTH",
"539 424 LINE SMOOTH",
"539 499 OFFCURVE",
"492 524 OFFCURVE",
"404 525 CURVE SMOOTH",
"243 526 LINE SMOOTH",
"210 526 OFFCURVE",
"200 531 OFFCURVE",
"200 569 CURVE SMOOTH",
"200 605 LINE SMOOTH",
"200 659 OFFCURVE",
"216 672 OFFCURVE",
"302 672 CURVE SMOOTH",
"384 672 OFFCURVE",
"400 659 OFFCURVE",
"400 605 CURVE SMOOTH",
"400 575 LINE",
"535 575 LINE",
"535 615 LINE SMOOTH",
"535 751 OFFCURVE",
"468 807 OFFCURVE",
"302 807 CURVE SMOOTH",
"132 807 OFFCURVE",
"65 751 OFFCURVE",
"65 615 CURVE SMOOTH",
"65 543 LINE SMOOTH",
"65 497 OFFCURVE",
"73 463 OFFCURVE",
"113 439 CURVE",
"72 410 OFFCURVE",
"65 371 OFFCURVE",
"65 322 CURVE SMOOTH",
"65 240 LINE SMOOTH",
"65 144 OFFCURVE",
"99 98 OFFCURVE",
"214 96 CURVE SMOOTH",
"367 94 LINE SMOOTH",
"396 94 OFFCURVE",
"404 77 OFFCURVE",
"404 45 CURVE SMOOTH",
"404 -6 LINE SMOOTH",
"404 -60 OFFCURVE",
"388 -73 OFFCURVE",
"302 -73 CURVE SMOOTH",
"216 -73 OFFCURVE",
"200 -60 OFFCURVE",
"200 -6 CURVE SMOOTH",
"200 43 LINE",
"65 43 LINE",
"65 -16 LINE SMOOTH",
"65 -152 OFFCURVE",
"132 -208 OFFCURVE",
"302 -208 CURVE SMOOTH"
);
},
{
closed = 1;
nodes = (
"216 226 OFFCURVE",
"200 239 OFFCURVE",
"200 293 CURVE SMOOTH",
"200 312 LINE SMOOTH",
"200 366 OFFCURVE",
"216 379 OFFCURVE",
"302 379 CURVE SMOOTH",
"384 379 OFFCURVE",
"400 366 OFFCURVE",
"400 312 CURVE SMOOTH",
"400 293 LINE SMOOTH",
"400 239 OFFCURVE",
"388 226 OFFCURVE",
"302 226 CURVE SMOOTH"
);
}
);
width = 604;
}
);
unicode = 00A7;
},
{
glyphname = degree;
lastChange = "2021-05-01 11:42:14 +0000";
layers = (
{
layerId = "ADD356F3-6F8E-4A19-BEE8-38EF5CB52C35";
paths = (
{
closed = 1;
nodes = (
"251 634 LINE SMOOTH",
"251 576 OFFCURVE",
"219 505 OFFCURVE",
"168 470 CURVE",
"279 468 OFFCURVE",
"328 517 OFFCURVE",
"328 635 CURVE SMOOTH",
"328 684 OFFCURVE",
"322 712 OFFCURVE",
"314 732 CURVE",
"251 655 LINE"
);
},
{
closed = 1;
nodes = (
"55 534 LINE",
"44 547 OFFCURVE",
"38 564 OFFCURVE",
"38 580 CURVE SMOOTH",
"38 592 OFFCURVE",
"40 601 OFFCURVE",
"47 609 CURVE SMOOTH",
"129 701 LINE",
"117 688 OFFCURVE",
"112 666 OFFCURVE",
"112 638 CURVE SMOOTH",
"112 622 OFFCURVE",
"114 607 OFFCURVE",
"116 601 CURVE"
);
}
);
width = 338;
},
{
layerId = "8B2712DD-44AF-41AD-B0E9-03B6F24551DE";
paths = (
{
closed = 1;
nodes = (
"276 470 OFFCURVE",
"328 512 OFFCURVE",
"328 637 CURVE SMOOTH",
"328 767 OFFCURVE",
"276 810 OFFCURVE",
"169 810 CURVE SMOOTH",
"62 810 OFFCURVE",
"10 767 OFFCURVE",
"10 637 CURVE SMOOTH",
"10 512 OFFCURVE",
"62 470 OFFCURVE",
"169 470 CURVE SMOOTH"
);
},
{
closed = 1;
nodes = (
"129 565 OFFCURVE",
"112 584 OFFCURVE",
"112 637 CURVE SMOOTH",
"112 691 OFFCURVE",
"128 715 OFFCURVE",
"169 715 CURVE SMOOTH",
"211 715 OFFCURVE",
"226 691 OFFCURVE",
"226 637 CURVE SMOOTH",
"226 584 OFFCURVE",
"211 565 OFFCURVE",
"169 565 CURVE SMOOTH"
);
}
);
width = 338;
}
);
unicode = 00B0;
},
{
glyphname = bar;
lastChange = "2021-05-01 11:42:14 +0000";
layers = (
{
layerId = "ADD356F3-6F8E-4A19-BEE8-38EF5CB52C35";
paths = (
{
closed = 1;
nodes = (
"115 0 LINE",
"175 0 LINE",
"175 800 LINE",
"115 719 LINE"
);
}
);
width = 255;
},
{
layerId = "8B2712DD-44AF-41AD-B0E9-03B6F24551DE";
paths = (
{
closed = 1;
nodes = (
"175 0 LINE",
"175 800 LINE",
"80 800 LINE",
"80 0 LINE"
);
}
);
width = 255;
}
);
unicode = 007C;
},
{
glyphname = brokenbar;
lastChange = "2021-05-01 11:42:14 +0000";
layers = (
{
layerId = "ADD356F3-6F8E-4A19-BEE8-38EF5CB52C35";
paths = (
{
closed = 1;
nodes = (
"175 480 LINE",
"175 800 LINE",
"115 719 LINE",
"115 480 LINE"
);
},
{
closed = 1;
nodes = (
"175 0 LINE",
"175 320 LINE",
"115 239 LINE",
"115 0 LINE"
);
}
);
width = 255;
},
{
layerId = "8B2712DD-44AF-41AD-B0E9-03B6F24551DE";
paths = (
{
closed = 1;
nodes = (
"175 480 LINE",
"175 800 LINE",
"80 800 LINE",
"80 480 LINE"
);
},
{
closed = 1;
nodes = (
"175 0 LINE",
"175 320 LINE",
"80 320 LINE",
"80 0 LINE"
);
}
);
width = 255;
}
);
leftMetricsKey = bar;
rightMetricsKey = bar;
unicode = 00A6;
},
{
glyphname = dagger;
lastChange = "2021-05-01 11:42:14 +0000";
layers = (
{
layerId = "ADD356F3-6F8E-4A19-BEE8-38EF5CB52C35";
paths = (
{
closed = 1;
nodes = (
"465 502 LINE",
"465 620 LINE",
"356 502 LINE"
);
},
{
closed = 1;
nodes = (
"218 413 LINE",
"218 0 LINE",
"307 0 LINE",
"307 502 LINE"
);
},
{
closed = 1;
nodes = (
"218 533 LINE",
"307 620 LINE",
"307 800 LINE",
"218 711 LINE"
);
}
);
width = 495;
},
{
layerId = "8B2712DD-44AF-41AD-B0E9-03B6F24551DE";
paths = (
{
closed = 1;
nodes = (
"307 0 LINE",
"307 800 LINE",
"189 800 LINE",
"189 0 LINE"
);
},
{
closed = 1;
nodes = (
"465 502 LINE",
"465 620 LINE",
"30 620 LINE",
"30 502 LINE"
);
}
);
width = 495;
}
);
unicode = 2020;
},
{
glyphname = daggerdbl;
lastChange = "2021-05-01 11:42:14 +0000";
layers = (
{
layerId = "ADD356F3-6F8E-4A19-BEE8-38EF5CB52C35";
paths = (
{
closed = 1;
nodes = (
"465 502 LINE",
"465 620 LINE",
"356 502 LINE"
);
},
{
closed = 1;
nodes = (
"307 320 LINE",
"307 502 LINE",
"218 413 LINE",
"218 231 LINE"
);
},
{
closed = 1;
nodes = (
"218 531 LINE",
"307 620 LINE",
"307 800 LINE",
"218 711 LINE"
);
},
{
closed = 1;
nodes = (
"218 113 LINE",
"218 0 LINE",
"307 0 LINE",
"307 202 LINE"
);
},
{
closed = 1;
nodes = (
"465 202 LINE",
"465 320 LINE",
"356 202 LINE"
);
}
);
width = 495;
},
{
layerId = "8B2712DD-44AF-41AD-B0E9-03B6F24551DE";
paths = (
{
closed = 1;
nodes = (
"307 0 LINE",
"307 800 LINE",
"189 800 LINE",
"189 0 LINE"
);
},
{
closed = 1;
nodes = (
"465 202 LINE",
"465 320 LINE",
"30 320 LINE",
"30 202 LINE"
);
},
{
closed = 1;
nodes = (
"465 502 LINE",
"465 620 LINE",
"30 620 LINE",
"30 502 LINE"
);
}
);
width = 495;
}
);
leftMetricsKey = dagger;
rightMetricsKey = dagger;
unicode = 2021;
},
{
glyphname = dollar;
lastChange = "2021-05-01 11:42:14 +0000";
layers = (
{
layerId = "ADD356F3-6F8E-4A19-BEE8-38EF5CB52C35";
paths = (
{
closed = 1;
nodes = (
"425 249 LINE SMOOTH",
"425 208 OFFCURVE",
"415 177 OFFCURVE",
"391 150 CURVE SMOOTH",
"303 50 LINE",
"473 50 OFFCURVE",
"540 106 OFFCURVE",
"540 242 CURVE SMOOTH",
"540 370 LINE SMOOTH",
"540 389 OFFCURVE",
"537 398 OFFCURVE",
"535 405 CURVE",
"425 267 LINE"
);
},
{
closed = 1;
nodes = (
"421 531 LINE",
"536 531 LINE",
"536 558 LINE SMOOTH",
"536 588 OFFCURVE",
"533 614 OFFCURVE",
"526 637 CURVE",
"421 564 LINE"
);
},
{
closed = 1;
nodes = (
"123 412 LINE",
"111 421 OFFCURVE",
"101 431 OFFCURVE",
"101 446 CURVE SMOOTH",
"101 459 OFFCURVE",
"104 470 OFFCURVE",
"113 480 CURVE SMOOTH",
"213 597 LINE",
"204 587 OFFCURVE",
"201 572 OFFCURVE",
"201 549 CURVE SMOOTH",
"201 503 LINE"
);
},
{
closed = 1;
nodes = (
"127 112 LINE",
"110 128 OFFCURVE",
"87 151 OFFCURVE",
"102 169 CURVE SMOOTH",
"201 282 LINE",
"201 246 LINE SMOOTH",
"201 222 OFFCURVE",
"210 212 OFFCURVE",
"212 204 CURVE"
);
},
{
closed = 1;
nodes = (
"291 730 LINE",
"349 749 LINE",
"349 800 LINE",
"291 750 LINE"
);
},
{
closed = 1;
nodes = (
"349 476 LINE",
"349 613 LINE",
"289 543 LINE",
"289 428 LINE"
);
},
{
closed = 1;
nodes = (
"349 188 LINE",
"349 343 LINE",
"289 273 LINE",
"289 144 LINE"
);
},
{
closed = 1;
nodes = (
"304 52 LINE",
"289 33 LINE",
"289 0 LINE",
"349 0 LINE",
"349 52 LINE"
);
}
);
width = 604;
},
{
components = (
{
name = bar;
transform = "{1, 0, 0, 1, 174, 0}";
}
);
layerId = "8B2712DD-44AF-41AD-B0E9-03B6F24551DE";
paths = (
{
closed = 1;
nodes = (
"473 50 OFFCURVE",
"540 106 OFFCURVE",
"540 242 CURVE SMOOTH",
"540 357 LINE SMOOTH",
"540 432 OFFCURVE",
"493 470 OFFCURVE",
"405 471 CURVE SMOOTH",
"244 472 LINE SMOOTH",
"211 472 OFFCURVE",
"201 477 OFFCURVE",
"201 515 CURVE SMOOTH",
"201 548 LINE SMOOTH",
"201 602 OFFCURVE",
"217 615 OFFCURVE",
"303 615 CURVE SMOOTH",
"385 615 OFFCURVE",
"401 602 OFFCURVE",
"401 548 CURVE SMOOTH",
"401 531 LINE",
"536 531 LINE",
"536 558 LINE SMOOTH",
"536 694 OFFCURVE",
"469 750 OFFCURVE",
"303 750 CURVE SMOOTH",
"133 750 OFFCURVE",
"66 694 OFFCURVE",
"66 558 CURVE SMOOTH",
"66 489 LINE SMOOTH",
"66 393 OFFCURVE",
"100 346 OFFCURVE",
"215 345 CURVE SMOOTH",
"353 344 LINE SMOOTH",
"395 344 OFFCURVE",
"405 331 OFFCURVE",
"405 294 CURVE SMOOTH",
"405 252 LINE SMOOTH",
"405 198 OFFCURVE",
"389 185 OFFCURVE",
"303 185 CURVE SMOOTH",
"217 185 OFFCURVE",
"201 198 OFFCURVE",
"201 252 CURVE SMOOTH",
"201 282 LINE",
"66 282 LINE",
"66 242 LINE SMOOTH",
"66 106 OFFCURVE",
"133 50 OFFCURVE",
"303 50 CURVE SMOOTH"
);
}
);
width = 604;
}
);
unicode = 0024;
},
{
glyphname = euro;
lastChange = "2021-05-01 11:42:14 +0000";
layers = (
{
components = (
{
name = equal;
transform = "{1, 0, 0, 1, -51, 20}";
}
);
layerId = "ADD356F3-6F8E-4A19-BEE8-38EF5CB52C35";
paths = (
{
closed = 1;
nodes = (
"489 154 LINE SMOOTH",
"489 60 OFFCURVE",
"479 19 OFFCURVE",
"446 -3 CURVE",
"552 15 OFFCURVE",
"589 73 OFFCURVE",
"589 182 CURVE SMOOTH",
"589 295 LINE",
"489 176 LINE"
);
},
{
closed = 1;
nodes = (
"250 238 LINE",
"250 192 LINE SMOOTH",
"250 188 OFFCURVE",
"250 174 OFFCURVE",
"251 170 CURVE",
"172 92 LINE",
"156 108 OFFCURVE",
"150 122 OFFCURVE",
"150 137 CURVE"
);
},
{
closed = 1;
nodes = (
"454 534 LINE",
"589 534 LINE",
"589 618 LINE SMOOTH",
"589 667 OFFCURVE",
"581 708 OFFCURVE",
"562 738 CURVE",
"454 608 LINE"
);
},
{
closed = 1;
nodes = (
"148 252 LINE",
"148 333 LINE",
"250 436 LINE",
"250 355 LINE"
);
},
{
closed = 1;
nodes = (
"148 451 LINE",
"148 543 LINE",
"262 656 LINE",
"253 646 OFFCURVE",
"250 631 OFFCURVE",
"250 608 CURVE SMOOTH",
"250 554 LINE"
);
}
);
width = 645;
},
{
components = (
{
name = C;
transform = "{1, 0, 0, 1, 50, 0}";
}
);
layerId = "8B2712DD-44AF-41AD-B0E9-03B6F24551DE";
paths = (
{
closed = 1;
nodes = (
"384 436 LINE",
"384 554 LINE",
"30 554 LINE",
"30 436 LINE"
);
},
{
closed = 1;
nodes = (
"384 236 LINE",
"384 354 LINE",
"30 354 LINE",
"30 236 LINE"
);
}
);
width = 645;
}
);
rightMetricsKey = C;
unicode = 20AC;
},
{
glyphname = sterling;
lastChange = "2021-05-01 11:42:14 +0000";
layers = (
{
layerId = "ADD356F3-6F8E-4A19-BEE8-38EF5CB52C35";
paths = (
{
closed = 1;
nodes = (
"137 12 LINE",
"237 130 LINE",
"237 254 LINE",
"137 166 LINE"
);
},
{
closed = 1;
nodes = (
"526 0 LINE",
"526 130 LINE",
"416 0 LINE"
);
},
{
closed = 1;
nodes = (
"484 253 LINE",
"484 383 LINE",
"374 253 LINE"
);
},
{
closed = 1;
nodes = (
"137 293 LINE",
"137 491 LINE SMOOTH",
"137 514 OFFCURVE",
"140 529 OFFCURVE",
"149 539 CURVE SMOOTH",
"249 656 LINE",
"240 646 OFFCURVE",
"237 631 OFFCURVE",
"237 608 CURVE SMOOTH",
"237 384 LINE"
);
},
{
closed = 1;
nodes = (
"401 464 LINE",
"536 464 LINE",
"536 618 LINE SMOOTH",
"536 667 OFFCURVE",
"529 708 OFFCURVE",
"510 738 CURVE",
"401 608 LINE"
);
}
);
width = 591;
},
{
layerId = "8B2712DD-44AF-41AD-B0E9-03B6F24551DE";
paths = (
{
closed = 1;
nodes = (
"526 0 LINE",
"526 130 LINE",
"237 130 LINE",
"237 608 LINE SMOOTH",
"237 662 OFFCURVE",
"243 675 OFFCURVE",
"322 675 CURVE SMOOTH",
"395 675 OFFCURVE",
"401 662 OFFCURVE",
"401 608 CURVE SMOOTH",
"401 464 LINE",
"536 464 LINE",
"536 618 LINE SMOOTH",
"536 754 OFFCURVE",
"479 810 OFFCURVE",
"322 810 CURVE SMOOTH",
"159 810 OFFCURVE",
"102 754 OFFCURVE",
"102 618 CURVE SMOOTH",
"102 0 LINE"
);
},
{
closed = 1;
nodes = (
"484 254 LINE",
"484 384 LINE",
"15 384 LINE",
"15 254 LINE"
);
}
);
width = 591;
}
);
unicode = 00A3;
},
{
glyphname = yen;
lastChange = "2021-05-01 11:42:14 +0000";
layers = (
{
anchors = (
{
name = top;
position = "{243, 800}";
}
);
components = (
{
name = equal;
transform = "{1, 0, 0, 1, 12, -80}";
}
);
layerId = "ADD356F3-6F8E-4A19-BEE8-38EF5CB52C35";
paths = (
{
closed = 1;
nodes = (
"339 455 LINE",
"499 800 LINE",
"334 680 LINE",
"212 384 LINE",
"212 343 LINE"
);
},
{
closed = 1;
nodes = (
"200 455 LINE",
"243 553 LINE",
"139 800 LINE",
"71 693 LINE",
"185 455 LINE"
);
},
{
closed = 1;
nodes = (
"211 185 LINE",
"310 255 LINE",
"310 337 LINE",
"211 265 LINE"
);
},
{
closed = 1;
nodes = (
"211 65 LINE",
"211 0 LINE",
"310 0 LINE",
"310 137 LINE"
);
}
);
width = 486;
},
{
components = (
{
name = equal;
transform = "{1, 0, 0, 1, 11, -80}";
},
{
name = Y;
}
);
layerId = "8B2712DD-44AF-41AD-B0E9-03B6F24551DE";
width = 486;
}
);
unicode = 00A5;
},
{
glyphname = plus;
lastChange = "2021-05-01 11:42:14 +0000";
layers = (
{
layerId = "ADD356F3-6F8E-4A19-BEE8-38EF5CB52C35";
paths = (
{
closed = 1;
nodes = (
"465 326 LINE",
"465 444 LINE",
"356 326 LINE"
);
},
{
closed = 1;
nodes = (
"218 237 LINE",
"218 168 LINE",
"307 168 LINE",
"307 326 LINE"
);
},
{
closed = 1;
nodes = (
"218 357 LINE",
"307 444 LINE",
"307 603 LINE",
"218 514 LINE"
);
}
);
width = 495;
},
{
layerId = "8B2712DD-44AF-41AD-B0E9-03B6F24551DE";
paths = (
{
closed = 1;
nodes = (
"307 168 LINE",
"307 603 LINE",
"189 603 LINE",
"189 168 LINE"
);
},
{
closed = 1;
nodes = (
"465 326 LINE",
"465 444 LINE",
"30 444 LINE",
"30 326 LINE"
);
}
);
width = 495;
}
);
unicode = 002B;
},
{
glyphname = minus;
lastChange = "2021-05-01 11:42:14 +0000";
layers = (
{
layerId = "ADD356F3-6F8E-4A19-BEE8-38EF5CB52C35";
paths = (
{
closed = 1;
nodes = (
"465 326 LINE",
"465 444 LINE",
"356 326 LINE"
);
}
);
width = 495;
},
{
layerId = "8B2712DD-44AF-41AD-B0E9-03B6F24551DE";
paths = (
{
closed = 1;
nodes = (
"465 326 LINE",
"465 444 LINE",
"30 444 LINE",
"30 326 LINE"
);
}
);
width = 495;
}
);
unicode = 2212;
},
{
glyphname = equal;
lastChange = "2021-05-01 11:42:14 +0000";
layers = (
{
components = (
{
name = hyphen;
transform = "{1, 0, 0, 1, 130, 90}";
},
{
name = hyphen;
transform = "{1, 0, 0, 1, 130, -110}";
}
);
layerId = "ADD356F3-6F8E-4A19-BEE8-38EF5CB52C35";
width = 465;
},
{
layerId = "8B2712DD-44AF-41AD-B0E9-03B6F24551DE";
paths = (
{
closed = 1;
nodes = (
"435 416 LINE",
"435 534 LINE",
"30 534 LINE",
"30 416 LINE"
);
},
{
closed = 1;
nodes = (
"435 216 LINE",
"435 334 LINE",
"30 334 LINE",
"30 216 LINE"
);
}
);
width = 465;
}
);
unicode = 003D;
},
{
glyphname = greater;
lastChange = "2021-05-01 11:42:14 +0000";
layers = (
{
layerId = "ADD356F3-6F8E-4A19-BEE8-38EF5CB52C35";
paths = (
{
closed = 1;
nodes = (
"50 689 LINE",
"99 616 LINE",
"439 441 LINE",
"439 379 LINE",
"355 288 LINE",
"489 355 LINE",
"489 477 LINE"
);
},
{
closed = 1;
nodes = (
"50 281 LINE",
"95 222 LINE",
"209 268 LINE",
"342 416 LINE"
);
}
);
width = 534;
},
{
components = (
{
name = less;
transform = "{-1, 0, 0, -1, 534, 832}";
}
);
layerId = "8B2712DD-44AF-41AD-B0E9-03B6F24551DE";
width = 534;
}
);
unicode = 003E;
},
{
glyphname = less;
lastChange = "2021-05-01 11:42:14 +0000";
layers = (
{
layerId = "ADD356F3-6F8E-4A19-BEE8-38EF5CB52C35";
paths = (
{
closed = 1;
nodes = (
"94 448 LINE",
"436 613 LINE",
"484 552 LINE",
"484 689 LINE",
"45 477 LINE"
);
},
{
closed = 1;
nodes = (
"116 376 LINE",
"436 218 LINE",
"483 281 LINE",
"191 416 LINE"
);
}
);
width = 534;
},
{
layerId = "8B2712DD-44AF-41AD-B0E9-03B6F24551DE";
paths = (
{
closed = 1;
nodes = (
"484 280 LINE",
"191 416 LINE",
"484 552 LINE",
"484 689 LINE",
"45 477 LINE",
"45 355 LINE",
"484 143 LINE"
);
}
);
width = 534;
}
);
unicode = 003C;
},
{
glyphname = asciicircum;
lastChange = "2021-05-01 11:42:14 +0000";
layers = (
{
layerId = "ADD356F3-6F8E-4A19-BEE8-38EF5CB52C35";
paths = (
{
closed = 1;
nodes = (
"79 416 LINE",
"73 400 LINE",
"138 400 LINE",
"175 477 LINE"
);
},
{
closed = 1;
nodes = (
"194 471 LINE",
"228 400 LINE",
"295 400 LINE",
"249 524 LINE"
);
}
);
width = 350;
},
{
layerId = "8B2712DD-44AF-41AD-B0E9-03B6F24551DE";
paths = (
{
closed = 1;
nodes = (
"138 400 LINE",
"175 477 LINE",
"212 400 LINE",
"295 400 LINE",
"249 524 LINE",
"103 524 LINE",
"57 400 LINE"
);
}
);
width = 350;
}
);
unicode = 005E;
},
{
glyphname = percent;
lastChange = "2021-05-01 11:42:14 +0000";
layers = (
{
components = (
{
name = degree;
},
{
name = degree;
transform = "{1, 0, 0, 1, 438, -481}";
}
);
layerId = "ADD356F3-6F8E-4A19-BEE8-38EF5CB52C35";
paths = (
{
closed = 1;
nodes = (
"248 73 LINE",
"320 0 LINE",
"580 800 LINE",
"455 675 LINE"
);
}
);
width = 776;
},
{
components = (
{
name = degree;
transform = "{1, 0, 0, 1, 438, -481}";
},
{
name = fraction;
transform = "{1, 0, 0, 1, 190, 0}";
},
{
name = degree;
}
);
layerId = "8B2712DD-44AF-41AD-B0E9-03B6F24551DE";
width = 776;
}
);
unicode = 0025;
},
{
glyphname = dieresis;
lastChange = "2021-05-01 11:42:14 +0000";
layers = (
{
anchors = (
{
name = _top;
position = "{167, 800}";
}
);
layerId = "ADD356F3-6F8E-4A19-BEE8-38EF5CB52C35";
paths = (
{
closed = 1;
nodes = (
"216 706 LINE",
"299 800 LINE",
"299 894 LINE",
"216 800 LINE"
);
},
{
closed = 1;
nodes = (
"56 706 LINE",
"139 800 LINE",
"139 894 LINE",
"56 800 LINE"
);
}
);
width = 340;
},
{
anchors = (
{
name = _top;
position = "{167, 800}";
}
);
layerId = "8B2712DD-44AF-41AD-B0E9-03B6F24551DE";
paths = (
{
closed = 1;
nodes = (
"299 800 LINE",
"299 894 LINE",
"197 894 LINE",
"197 800 LINE"
);
},
{
closed = 1;
nodes = (
"139 800 LINE",
"139 894 LINE",
"37 894 LINE",
"37 800 LINE"
);
}
);
width = 340;
}
);
unicode = 00A8;
},
{
glyphname = grave;
lastChange = "2021-05-01 11:42:14 +0000";
layers = (
{
anchors = (
{
name = _top;
position = "{97, 800}";
}
);
layerId = "ADD356F3-6F8E-4A19-BEE8-38EF5CB52C35";
paths = (
{
closed = 1;
nodes = (
"60 800 LINE",
"90 707 LINE",
"141 800 LINE",
"125 924 LINE"
);
}
);
width = 210;
},
{
anchors = (
{
name = _top;
position = "{97, 800}";
}
);
layerId = "8B2712DD-44AF-41AD-B0E9-03B6F24551DE";
paths = (
{
closed = 1;
nodes = (
"141 800 LINE",
"125 924 LINE",
"15 924 LINE",
"60 800 LINE"
);
}
);
width = 210;
}
);
unicode = 0060;
},
{
glyphname = acute;
lastChange = "2021-05-01 11:42:14 +0000";
layers = (
{
anchors = (
{
name = _top;
position = "{67, 800}";
}
);
layerId = "ADD356F3-6F8E-4A19-BEE8-38EF5CB52C35";
paths = (
{
closed = 1;
nodes = (
"51 786 LINE",
"37 707 LINE",
"109 800 LINE",
"154 924 LINE"
);
}
);
width = 214;
},
{
anchors = (
{
name = _top;
position = "{67, 800}";
}
);
layerId = "8B2712DD-44AF-41AD-B0E9-03B6F24551DE";
paths = (
{
closed = 1;
nodes = (
"109 800 LINE",
"154 924 LINE",
"44 924 LINE",
"28 800 LINE"
);
}
);
width = 214;
},
{
anchors = (
{
name = _top;
position = "{67, 800}";
}
);
associatedMasterId = "ADD356F3-6F8E-4A19-BEE8-38EF5CB52C35";
layerId = "ADDF50FA-4681-4053-9DC6-951F91CF19AB";
name = "Jun 4 20, 22:01";
paths = (
{
closed = 1;
nodes = (
"32 700 LINE",
"114 800 LINE",
"184 939 LINE",
"78 808 LINE"
);
}
);
width = 214;
}
);
unicode = 00B4;
},
{
glyphname = circumflex;
lastChange = "2021-05-01 11:42:14 +0000";
layers = (
{
anchors = (
{
name = _top;
position = "{67, 800}";
}
);
associatedMasterId = "ADD356F3-6F8E-4A19-BEE8-38EF5CB52C35";
layerId = "5D6BD9A8-1790-4FE1-A5C5-8C214BB108C4";
name = "Jun 4 20, 22:54";
paths = (
{
closed = 1;
nodes = (
"119 739 LINE",
"176 800 LINE",
"76 924 LINE",
"20 862 LINE"
);
}
);
width = 600;
},
{
anchors = (
{
name = _top;
position = "{67, 800}";
}
);
associatedMasterId = "8B2712DD-44AF-41AD-B0E9-03B6F24551DE";
layerId = "15DFF08E-D182-4A45-BEC7-DF49A784A06C";
name = "Jun 4 20, 22:54";
paths = (
{
closed = 1;
nodes = (
"-34 800 LINE",
"176 800 LINE",
"76 924 LINE",
"76 924 LINE"
);
}
);
width = 600;
},
{
anchors = (
{
name = _top;
position = "{67, 800}";
}
);
associatedMasterId = "8B2712DD-44AF-41AD-B0E9-03B6F24551DE";
layerId = "7E33A01A-67CF-4C07-BE95-768CE5BBB076";
name = "Jun 4 20, 22:58";
paths = (
{
closed = 1;
nodes = (
"-34 845 LINE",
"-34 800 LINE",
"176 800 LINE",
"176 845 LINE",
"76 924 LINE",
"76 924 LINE"
);
}
);
width = 600;
},
{
anchors = (
{
name = _top;
position = "{175, 800}";
}
);
layerId = "8B2712DD-44AF-41AD-B0E9-03B6F24551DE";
paths = (
{
closed = 1;
nodes = (
"138 800 LINE",
"175 877 LINE",
"212 800 LINE",
"295 800 LINE",
"249 924 LINE",
"103 924 LINE",
"57 800 LINE"
);
}
);
width = 350;
},
{
anchors = (
{
name = _top;
position = "{67, 800}";
}
);
associatedMasterId = "ADD356F3-6F8E-4A19-BEE8-38EF5CB52C35";
layerId = "75234C06-5FDC-44D5-BEAD-49C6DDCEDF1C";
name = "Jun 4 20, 22:58";
paths = (
{
closed = 1;
nodes = (
"76 924 LINE",
"49 905 LINE",
"119 849 LINE",
"119 739 LINE",
"176 800 LINE",
"176 845 LINE"
);
}
);
width = 600;
},
{
anchors = (
{
name = _top;
position = "{175, 800}";
}
);
layerId = "ADD356F3-6F8E-4A19-BEE8-38EF5CB52C35";
paths = (
{
closed = 1;
nodes = (
"79 816 LINE",
"50 736 LINE",
"138 800 LINE",
"175 877 LINE"
);
},
{
closed = 1;
nodes = (
"194 871 LINE",
"254 746 LINE",
"295 800 LINE",
"249 924 LINE"
);
}
);
width = 350;
},
{
anchors = (
{
name = _top;
position = "{67, 800}";
}
);
associatedMasterId = "ADD356F3-6F8E-4A19-BEE8-38EF5CB52C35";
layerId = "B0E48BF2-86FC-40FF-B265-A3C080BB015A";
name = "Jun 4 20, 22:58";
paths = (
{
closed = 1;
nodes = (
"130 713 LINE",
"206 800 LINE",
"106 924 LINE",
"31 833 LINE"
);
}
);
width = 600;
},
{
anchors = (
{
name = _top;
position = "{67, 800}";
}
);
associatedMasterId = "8B2712DD-44AF-41AD-B0E9-03B6F24551DE";
layerId = "6EED89C2-9423-4C0C-BA1D-220B3F957D47";
name = "Jun 4 20, 22:58";
paths = (
{
closed = 1;
nodes = (
"-54 800 LINE",
"206 800 LINE",
"106 924 LINE",
"56 924 LINE"
);
}
);
width = 600;
}
);
rightMetricsKey = "55-";
unicode = 02C6;
},
{
glyphname = ring;
lastChange = "2021-05-01 11:42:14 +0000";
layers = (
{
layerId = "ADD356F3-6F8E-4A19-BEE8-38EF5CB52C35";
paths = (
{
closed = 1;
nodes = (
"363 679 LINE SMOOTH",
"363 634 OFFCURVE",
"338 588 OFFCURVE",
"298 560 CURVE",
"385 559 OFFCURVE",
"424 592 OFFCURVE",
"424 680 CURVE SMOOTH",
"424 715 OFFCURVE",
"419 731 OFFCURVE",
"413 747 CURVE",
"363 686 LINE"
);
},
{
closed = 1;
nodes = (
"218 599 LINE",
"207 610 OFFCURVE",
"201 622 OFFCURVE",
"201 634 CURVE SMOOTH",
"201 644 OFFCURVE",
"202 651 OFFCURVE",
"208 657 CURVE SMOOTH",
"270 718 LINE",
"261 707 OFFCURVE",
"259 690 OFFCURVE",
"259 679 CURVE SMOOTH",
"259 668 OFFCURVE",
"261 657 OFFCURVE",
"264 651 CURVE"
);
}
);
width = 600;
},
{
layerId = "8B2712DD-44AF-41AD-B0E9-03B6F24551DE";
paths = (
{
closed = 1;
nodes = (
"384 560 OFFCURVE",
"424 592 OFFCURVE",
"424 679 CURVE SMOOTH",
"424 770 OFFCURVE",
"384 803 OFFCURVE",
"303 803 CURVE SMOOTH",
"222 803 OFFCURVE",
"182 770 OFFCURVE",
"182 679 CURVE SMOOTH",
"182 592 OFFCURVE",
"222 560 OFFCURVE",
"303 560 CURVE SMOOTH"
);
},
{
closed = 1;
nodes = (
"272 631 OFFCURVE",
"259 646 OFFCURVE",
"259 679 CURVE SMOOTH",
"259 712 OFFCURVE",
"272 731 OFFCURVE",
"303 731 CURVE SMOOTH",
"335 731 OFFCURVE",
"347 712 OFFCURVE",
"347 679 CURVE SMOOTH",
"347 646 OFFCURVE",
"335 631 OFFCURVE",
"303 631 CURVE SMOOTH"
);
}
);
width = 600;
}
);
unicode = 02DA;
},
{
glyphname = tilde;
lastChange = "2021-05-01 11:42:14 +0000";
layers = (
{
anchors = (
{
name = _top;
position = "{282, 229}";
}
);
layerId = "ADD356F3-6F8E-4A19-BEE8-38EF5CB52C35";
paths = (
{
closed = 1;
nodes = (
"407 341 LINE",
"397 304 OFFCURVE",
"379 269 OFFCURVE",
"350 248 CURVE",
"415 248 OFFCURVE",
"448 309 OFFCURVE",
"448 362 CURVE SMOOTH",
"448 365 LINE"
);
},
{
closed = 1;
nodes = (
"207 255 LINE",
"207 263 OFFCURVE",
"209 288 OFFCURVE",
"226 296 CURVE",
"184 276 OFFCURVE",
"166 268 OFFCURVE",
"166 259 CURVE SMOOTH",
"166 255 LINE"
);
}
);
width = 578;
},
{
anchors = (
{
name = _top;
position = "{282, 229}";
}
);
components = (
{
name = bout_tilde;
},
{
name = bout_tilde;
transform = "{-1, 0, 0, -1, 578, 620}";
}
);
layerId = "8B2712DD-44AF-41AD-B0E9-03B6F24551DE";
width = 578;
}
);
unicode = 02DC;
},
{
glyphname = cedilla;
lastChange = "2021-05-01 11:42:14 +0000";
layers = (
{
layerId = "ADD356F3-6F8E-4A19-BEE8-38EF5CB52C35";
paths = (
{
closed = 1;
nodes = (
"232 -154 LINE",
"340 -154 LINE",
"350 -8 LINE"
);
}
);
width = 600;
},
{
layerId = "8B2712DD-44AF-41AD-B0E9-03B6F24551DE";
paths = (
{
closed = 1;
nodes = (
"340 -154 LINE",
"350 0 LINE",
"248 0 LINE",
"208 -154 LINE"
);
}
);
width = 600;
}
);
unicode = 00B8;
},
{
export = 0;
glyphname = bout_aster;
lastChange = "2021-04-30 11:35:01 +0000";
layers = (
{
layerId = "8B2712DD-44AF-41AD-B0E9-03B6F24551DE";
paths = (
{
closed = 1;
nodes = (
"226 541 LINE",
"226 616 LINE",
"34 642 LINE",
"34 515 LINE"
);
}
);
width = 326;
},
{
layerId = "ADD356F3-6F8E-4A19-BEE8-38EF5CB52C35";
width = 600;
}
);
subCategory = Nonspacing;
},
{
glyphname = VTF;
lastChange = "2021-05-01 11:42:14 +0000";
layers = (
{
components = (
{
name = F;
transform = "{1, 0, 0, 1, 779, 0}";
}
);
layerId = "ADD356F3-6F8E-4A19-BEE8-38EF5CB52C35";
paths = (
{
closed = 1;
nodes = (
"235 73 LINE",
"307 0 LINE",
"483 671 LINE",
"358 546 LINE"
);
},
{
closed = 1;
nodes = (
"211 107 LINE",
"255 271 LINE",
"122 800 LINE",
"50 719 LINE"
);
},
{
closed = 1;
nodes = (
"613 0 LINE",
"713 0 LINE",
"713 670 LINE",
"613 552 LINE"
);
}
);
width = 1292;
},
{
components = (
{
name = V;
},
{
name = F;
transform = "{1, 0, 0, 1, 779, 0}";
}
);
layerId = "8B2712DD-44AF-41AD-B0E9-03B6F24551DE";
paths = (
{
closed = 1;
nodes = (
"712 0 LINE",
"712 670 LINE",
"959 670 LINE",
"959 800 LINE",
"440 800 LINE",
"440 670 LINE",
"577 670 LINE",
"577 0 LINE"
);
}
);
width = 1292;
}
);
leftMetricsKey = V;
rightMetricsKey = F;
},
{
export = 0;
glyphname = bout_tilde;
lastChange = "2021-04-29 14:40:42 +0000";
layers = (
{
layerId = "8B2712DD-44AF-41AD-B0E9-03B6F24551DE";
paths = (
{
closed = 1;
nodes = (
"207 255 LINE",
"207 275 OFFCURVE",
"215 299 OFFCURVE",
"239 299 CURVE SMOOTH",
"255 299 OFFCURVE",
"267 282 OFFCURVE",
"277 275 CURVE",
"301 345 LINE",
"280 366 OFFCURVE",
"259 372 OFFCURVE",
"227 372 CURVE SMOOTH",
"168 372 OFFCURVE",
"130 318 OFFCURVE",
"130 255 CURVE"
);
}
